<?xml version="1.0" encoding="UTF-8" standalone="no"?>
<!-- Created with Inkscape (http://www.inkscape.org/) -->

<svg
   xmlns:dc="http://purl.org/dc/elements/1.1/"
   xmlns:cc="http://creativecommons.org/ns#"
   xmlns:rdf="http://www.w3.org/1999/02/22-rdf-syntax-ns#"
   xmlns:svg="http://www.w3.org/2000/svg"
   xmlns="http://www.w3.org/2000/svg"
   xmlns:sodipodi="http://sodipodi.sourceforge.net/DTD/sodipodi-0.dtd"
   xmlns:inkscape="http://www.inkscape.org/namespaces/inkscape"
   width="257.74677"
   height="80.626221"
   id="svg2"
   version="1.1"
   inkscape:version="0.47+devel r9327"
   sodipodi:docname="Neues Dokument 1">
  <defs
     id="defs4" />
  <sodipodi:namedview
     id="base"
     pagecolor="#ffffff"
     bordercolor="#666666"
     borderopacity="1.0"
     inkscape:pageopacity="0.0"
     inkscape:pageshadow="2"
     inkscape:zoom="1.5387831"
     inkscape:cx="238.05056"
     inkscape:cy="-23.443677"
     inkscape:document-units="px"
     inkscape:current-layer="layer1"
     showgrid="false"
     inkscape:snap-object-midpoints="true"
     inkscape:window-width="1276"
     inkscape:window-height="756"
     inkscape:window-x="4"
     inkscape:window-y="0"
     inkscape:window-maximized="0" />
  <metadata
     id="metadata7">
    <rdf:RDF>
      <cc:Work
         rdf:about="">
        <dc:format>image/svg+xml</dc:format>
        <dc:type
           rdf:resource="http://purl.org/dc/dcmitype/StillImage" />
        <dc:title></dc:title>
      </cc:Work>
    </rdf:RDF>
  </metadata>
  <g
     inkscape:label="Ebene 1"
     inkscape:groupmode="layer"
     id="layer1"
     transform="translate(-75.833839,-38.373779)">
    <path
       sodipodi:type="arc"
       id="path2915"
       style="fill:#000000;stroke:none"
       sodipodi:cx="77.333839"
       sodipodi:cy="946.20227"
       sodipodi:rx="1.5"
       sodipodi:ry="1.5"
       d="m 78.833839,946.20227 c 0,0.82843 -0.671572,1.5 -1.5,1.5 -0.828427,0 -1.5,-0.67157 -1.5,-1.5 0,-0.82843 0.671573,-1.5 1.5,-1.5 0.828428,0 1.5,0.67157 1.5,1.5 z"
       transform="translate(0,-847.19086)" />
    <path
       sodipodi:type="arc"
       id="path2917"
       style="fill:#000000;stroke:none"
       sodipodi:cx="131.92242"
       sodipodi:cy="1008.5892"
       sodipodi:rx="1.5"
       sodipodi:ry="1.5"
       d="m 133.42242,1008.5892 c 0,0.8284 -0.67157,1.5 -1.5,1.5 -0.82842,0 -1.5,-0.6716 -1.5,-1.5 0,-0.8285 0.67158,-1.5 1.5,-1.5 0.82843,0 1.5,0.6715 1.5,1.5 z"
       transform="matrix(1,0,0,-1,0,1048.463)" />
    <path
       sodipodi:type="arc"
       id="path2919"
       style="fill:#000000;stroke:none"
       sodipodi:cx="171.56413"
       sodipodi:cy="946.85211"
       sodipodi:rx="1.5"
       sodipodi:ry="1.5"
       d="m 173.06413,946.85211 c 0,0.82843 -0.67157,1.5 -1.5,1.5 -0.82842,0 -1.5,-0.67157 -1.5,-1.5 0,-0.82843 0.67158,-1.5 1.5,-1.5 0.82843,0 1.5,0.67157 1.5,1.5 z"
       transform="translate(-9.3147125,-847.8407)" />
    <path
       sodipodi:type="arc"
       id="path2921"
       style="fill:#000000;stroke:none"
       sodipodi:cx="204.70721"
       sodipodi:cy="1015.7377"
       sodipodi:rx="1.5"
       sodipodi:ry="1.5"
       d="m 206.20721,1015.7377 c 0,0.8284 -0.67157,1.5 -1.5,1.5 -0.82842,0 -1.5,-0.6716 -1.5,-1.5 0,-0.8285 0.67158,-1.5 1.5,-1.5 0.82843,0 1.5,0.6715 1.5,1.5 z"
       transform="matrix(1,0,0,-1,6.1737061,1055.6115)" />
    <path
       sodipodi:type="arc"
       id="path2923"
       style="fill:#000000;stroke:none"
       sodipodi:cx="257.99609"
       sodipodi:cy="955.9502"
       sodipodi:rx="1.5"
       sodipodi:ry="1.5"
       d="m 259.49609,955.9502 c 0,0.82842 -0.67157,1.5 -1.5,1.5 -0.82842,0 -1.5,-0.67158 -1.5,-1.5 0,-0.82843 0.67158,-1.5 1.5,-1.5 0.82843,0 1.5,0.67157 1.5,1.5 z"
       transform="translate(-10.831085,-856.93878)" />
    <path
       sodipodi:type="arc"
       id="path2925"
       style="fill:#000000;stroke:none"
       sodipodi:cx="289.83942"
       sodipodi:cy="1012.4884"
       sodipodi:rx="1.5"
       sodipodi:ry="1.5"
       d="m 291.33942,1012.4884 c 0,0.8284 -0.67158,1.5 -1.5,1.5 -0.82843,0 -1.5,-0.6716 -1.5,-1.5 0,-0.8284 0.67157,-1.5 1.5,-1.5 0.82842,0 1.5,0.6716 1.5,1.5 z"
       transform="matrix(1,0,0,-1,0,1052.3622)" />
    <path
       sodipodi:type="arc"
       id="path2927"
       style="fill:#000000;stroke:none"
       sodipodi:cx="332.0806"
       sodipodi:cy="953.35077"
       sodipodi:rx="1.5"
       sodipodi:ry="1.5"
       d="m 333.5806,953.35077 c 0,0.82843 -0.67158,1.5 -1.5,1.5 -0.82843,0 -1.5,-0.67157 -1.5,-1.5 0,-0.82843 0.67157,-1.5 1.5,-1.5 0.82842,0 1.5,0.67157 1.5,1.5 z"
       transform="matrix(1,0,0,-1,0,1052.3622)" />
    <path
       style="fill:none;stroke:#ff0000;stroke-width:1px;stroke-linecap:butt;stroke-linejoin:miter;stroke-opacity:1"
       d="m 77.333839,99.011411 54.588581,-59.137583 30.327,59.137584 48.6315,-59.137583 36.28409,59.137586 42.67441,-59.137636 42.24118,59.137635"
       id="path2935"
       inkscape:connector-curvature="0" />
    <path
       style="fill:none;stroke:#000000;stroke-width:1px;stroke-linecap:butt;stroke-linejoin:miter;stroke-opacity:1"
       d="m 332.0806,99.011414 -84.91559,10e-7 -84.91559,-3e-6 -84.915581,-1e-6"
       id="path2929"
       inkscape:connector-curvature="0" />
    <path
       style="fill:none;stroke:#000000;stroke-width:1px;stroke-linecap:butt;stroke-linejoin:miter;stroke-opacity:1"
       d="m 289.83942,39.873779 -78.9585,5e-5 -78.9585,-10e-7"
       id="path2931"
       inkscape:connector-curvature="0" />
    <path
       style="fill:none;stroke:#000000;stroke-width:1;stroke-linecap:butt;stroke-linejoin:miter;stroke-miterlimit:4;stroke-opacity:1;stroke-dasharray:1, 2;stroke-dashoffset:0"
       d="m 332.0806,99.011414 c 0,0 -85.72085,19.561506 -128.67311,19.495946 C 160.45523,118.4418 77.333839,99.011411 77.333839,99.011411"
       id="path2937"
       inkscape:connector-curvature="0"
       sodipodi:nodetypes="czc" />
  </g>
</svg>
