<?xml version="1.0" encoding="UTF-8" standalone="no"?>
<!-- Created with Inkscape (http://www.inkscape.org/) -->

<svg
   xmlns:dc="http://purl.org/dc/elements/1.1/"
   xmlns:cc="http://creativecommons.org/ns#"
   xmlns:rdf="http://www.w3.org/1999/02/22-rdf-syntax-ns#"
   xmlns:svg="http://www.w3.org/2000/svg"
   xmlns="http://www.w3.org/2000/svg"
   xmlns:sodipodi="http://sodipodi.sourceforge.net/DTD/sodipodi-0.dtd"
   xmlns:inkscape="http://www.inkscape.org/namespaces/inkscape"
   width="282.74213"
   height="168.92609"
   id="svg2"
   version="1.1"
   inkscape:version="0.47+devel r9327"
   sodipodi:docname="comb.svg">
  <defs
     id="defs4">
    <inkscape:path-effect
       effect="construct_grid"
       id="path-effect2919"
       is_visible="true"
       nr_x="22"
       nr_y="21" />
  </defs>
  <sodipodi:namedview
     id="base"
     pagecolor="#ffffff"
     bordercolor="#666666"
     borderopacity="1.0"
     inkscape:pageopacity="0.0"
     inkscape:pageshadow="2"
     inkscape:zoom="4.5457607"
     inkscape:cx="141.37519"
     inkscape:cy="84.513935"
     inkscape:document-units="px"
     inkscape:current-layer="layer1"
     showgrid="false"
     showguides="true"
     inkscape:guide-bbox="true"
     inkscape:window-width="1676"
     inkscape:window-height="1006"
     inkscape:window-x="4"
     inkscape:window-y="0"
     inkscape:window-maximized="0" />
  <metadata
     id="metadata7">
    <rdf:RDF>
      <cc:Work
         rdf:about="">
        <dc:format>image/svg+xml</dc:format>
        <dc:type
           rdf:resource="http://purl.org/dc/dcmitype/StillImage" />
        <dc:title />
      </cc:Work>
    </rdf:RDF>
  </metadata>
  <g
     inkscape:label="Ebene 1"
     inkscape:groupmode="layer"
     id="layer1"
     transform="translate(-100.16706,-0.49277673)">
    <path
       sodipodi:type="arc"
       style="fill:none;stroke:#000000;stroke-opacity:1"
       id="path3925"
       sodipodi:cx="137.41035"
       sodipodi:cy="60.996788"
       sodipodi:rx="140.09152"
       sodipodi:ry="50.272079"
       d="m 277.50188,60.996788 c 0,27.764503 -62.72111,50.272082 -140.09153,50.272082 -77.370407,0 -140.0915176,-22.507579 -140.0915176,-50.272082 0,-27.764503 62.7211106,-50.272079 140.0915176,-50.272079 77.37042,0 140.09153,22.507576 140.09153,50.272079 z"
       transform="matrix(1.0055288,0,0,0.5283069,103.37218,-4.9058594)" />
    <g
       id="g2978"
       transform="translate(5.5748489,0)">
      <g
         id="g2944">
        <path
           d="m 69.710615,24.800892 c 0,2.591353 -2.100707,4.69206 -4.69206,4.69206 -2.591354,0 -4.692061,-2.100707 -4.692061,-4.69206 0,-2.591354 2.100707,-4.692061 4.692061,-4.692061 2.591353,0 4.69206,2.100707 4.69206,4.692061 z"
           sodipodi:ry="4.6920605"
           sodipodi:rx="4.6920605"
           sodipodi:cy="24.800892"
           sodipodi:cx="65.018555"
           id="path3863"
           style="fill:#000000;fill-opacity:1;fill-rule:nonzero;stroke:none"
           sodipodi:type="arc"
           transform="matrix(0.7159662,0,0,0.7159662,77.352319,19.324872)" />
        <path
           transform="matrix(0.7159662,0,0,0.7159662,77.352319,52.918441)"
           sodipodi:type="arc"
           style="fill:#000000;fill-opacity:1;fill-rule:nonzero;stroke:none"
           id="path3879"
           sodipodi:cx="65.018555"
           sodipodi:cy="24.800892"
           sodipodi:rx="4.6920605"
           sodipodi:ry="4.6920605"
           d="m 69.710615,24.800892 c 0,2.591353 -2.100707,4.69206 -4.69206,4.69206 -2.591354,0 -4.692061,-2.100707 -4.692061,-4.69206 0,-2.591354 2.100707,-4.692061 4.692061,-4.692061 2.591353,0 4.69206,2.100707 4.69206,4.692061 z" />
        <path
           transform="matrix(0.7159662,0,0,0.7159662,77.352319,94.190537)"
           sodipodi:type="arc"
           style="fill:#000000;fill-opacity:1;fill-rule:nonzero;stroke:none"
           id="path3895"
           sodipodi:cx="65.018555"
           sodipodi:cy="24.800892"
           sodipodi:rx="4.6920605"
           sodipodi:ry="4.6920605"
           d="m 69.710615,24.800892 c 0,2.591353 -2.100707,4.69206 -4.69206,4.69206 -2.591354,0 -4.692061,-2.100707 -4.692061,-4.69206 0,-2.591354 2.100707,-4.692061 4.692061,-4.692061 2.591353,0 4.69206,2.100707 4.69206,4.692061 z" />
        <path
           d="m 69.710615,24.800892 c 0,2.591353 -2.100707,4.69206 -4.69206,4.69206 -2.591354,0 -4.692061,-2.100707 -4.692061,-4.69206 0,-2.591354 2.100707,-4.692061 4.692061,-4.692061 2.591353,0 4.69206,2.100707 4.69206,4.692061 z"
           sodipodi:ry="4.6920605"
           sodipodi:rx="4.6920605"
           sodipodi:cy="24.800892"
           sodipodi:cx="65.018555"
           id="path3911"
           style="fill:#000000;fill-opacity:1;fill-rule:nonzero;stroke:none"
           sodipodi:type="arc"
           transform="matrix(0.7159662,0,0,0.7159662,77.352319,127.78411)" />
        <path
           sodipodi:type="arc"
           style="fill:none;stroke:#000000;stroke-width:1;stroke-linecap:round;stroke-miterlimit:4;stroke-opacity:1;stroke-dasharray:1, 2;stroke-dashoffset:0"
           id="path3927"
           sodipodi:cx="-6.0326495"
           sodipodi:cy="136.06976"
           sodipodi:rx="32.844425"
           sodipodi:ry="105.23622"
           d="m 26.811776,136.06976 c 0,58.12036 -14.70495,105.23622 -32.8444255,105.23622 -18.1394755,0 -32.8444255,-47.11586 -32.8444255,-105.23622 0,-58.120357 14.70495,-105.236218 32.8444255,-105.236218 18.1394755,0 32.8444255,47.115861 32.8444255,105.236218 z"
           transform="matrix(0.7159662,0,0,0.7159662,128.02773,-3.7107204)" />
      </g>
      <g
         transform="translate(14.35759,0)"
         id="g2957">
        <path
           d="m 69.710615,24.800892 c 0,2.591353 -2.100707,4.69206 -4.69206,4.69206 -2.591354,0 -4.692061,-2.100707 -4.692061,-4.69206 0,-2.591354 2.100707,-4.692061 4.692061,-4.692061 2.591353,0 4.69206,2.100707 4.69206,4.692061 z"
           sodipodi:ry="4.6920605"
           sodipodi:rx="4.6920605"
           sodipodi:cy="24.800892"
           sodipodi:cx="65.018555"
           id="path3867"
           style="fill:#000000;fill-opacity:1;fill-rule:nonzero;stroke:none"
           sodipodi:type="arc"
           transform="matrix(0.7159662,0,0,0.7159662,177.11756,19.324872)" />
        <path
           transform="matrix(0.7159662,0,0,0.7159662,175.19791,52.918441)"
           sodipodi:type="arc"
           style="fill:#000000;fill-opacity:1;fill-rule:nonzero;stroke:none"
           id="path3883"
           sodipodi:cx="65.018555"
           sodipodi:cy="24.800892"
           sodipodi:rx="4.6920605"
           sodipodi:ry="4.6920605"
           d="m 69.710615,24.800892 c 0,2.591353 -2.100707,4.69206 -4.69206,4.69206 -2.591354,0 -4.692061,-2.100707 -4.692061,-4.69206 0,-2.591354 2.100707,-4.692061 4.692061,-4.692061 2.591353,0 4.69206,2.100707 4.69206,4.692061 z" />
        <path
           transform="matrix(0.7159662,0,0,0.7159662,177.11754,94.190537)"
           sodipodi:type="arc"
           style="fill:#000000;fill-opacity:1;fill-rule:nonzero;stroke:none"
           id="path3899"
           sodipodi:cx="65.018555"
           sodipodi:cy="24.800892"
           sodipodi:rx="4.6920605"
           sodipodi:ry="4.6920605"
           d="m 69.710615,24.800892 c 0,2.591353 -2.100707,4.69206 -4.69206,4.69206 -2.591354,0 -4.692061,-2.100707 -4.692061,-4.69206 0,-2.591354 2.100707,-4.692061 4.692061,-4.692061 2.591353,0 4.69206,2.100707 4.69206,4.692061 z" />
        <path
           d="m 69.710615,24.800892 c 0,2.591353 -2.100707,4.69206 -4.69206,4.69206 -2.591354,0 -4.692061,-2.100707 -4.692061,-4.69206 0,-2.591354 2.100707,-4.692061 4.692061,-4.692061 2.591353,0 4.69206,2.100707 4.69206,4.692061 z"
           sodipodi:ry="4.6920605"
           sodipodi:rx="4.6920605"
           sodipodi:cy="24.800892"
           sodipodi:cx="65.018555"
           id="path3915"
           style="fill:#000000;fill-opacity:1;fill-rule:nonzero;stroke:none"
           sodipodi:type="arc"
           transform="matrix(0.7159662,0,0,0.7159662,177.11754,127.78411)" />
        <path
           transform="matrix(0.7159662,0,0,0.7159662,225.92898,-6.5901691)"
           d="m 26.811776,136.06976 c 0,58.12036 -14.70495,105.23622 -32.8444255,105.23622 -18.1394755,0 -32.8444255,-47.11586 -32.8444255,-105.23622 0,-58.120357 14.70495,-105.236218 32.8444255,-105.236218 18.1394755,0 32.8444255,47.115861 32.8444255,105.236218 z"
           sodipodi:ry="105.23622"
           sodipodi:rx="32.844425"
           sodipodi:cy="136.06976"
           sodipodi:cx="-6.0326495"
           id="path3929"
           style="fill:none;stroke:#000000;stroke-width:1;stroke-linecap:round;stroke-miterlimit:4;stroke-opacity:1;stroke-dasharray:1, 2;stroke-dashoffset:0"
           sodipodi:type="arc" />
      </g>
      <g
         transform="translate(7.1787991,0)"
         id="g2951">
        <path
           sodipodi:type="arc"
           style="fill:#000000;fill-opacity:1;fill-rule:nonzero;stroke:none"
           id="path3865"
           sodipodi:cx="65.018555"
           sodipodi:cy="24.800892"
           sodipodi:rx="4.6920605"
           sodipodi:ry="4.6920605"
           d="m 69.710615,24.800892 c 0,2.591353 -2.100707,4.69206 -4.69206,4.69206 -2.591354,0 -4.692061,-2.100707 -4.692061,-4.69206 0,-2.591354 2.100707,-4.692061 4.692061,-4.692061 2.591353,0 4.69206,2.100707 4.69206,4.692061 z"
           transform="matrix(0.7159662,0,0,0.7159662,127.23493,19.324872)" />
        <path
           transform="matrix(0.7159662,0,0,0.7159662,127.23493,94.190537)"
           d="m 69.710615,24.800892 c 0,2.591353 -2.100707,4.69206 -4.69206,4.69206 -2.591354,0 -4.692061,-2.100707 -4.692061,-4.69206 0,-2.591354 2.100707,-4.692061 4.692061,-4.692061 2.591353,0 4.69206,2.100707 4.69206,4.692061 z"
           sodipodi:ry="4.6920605"
           sodipodi:rx="4.6920605"
           sodipodi:cy="24.800892"
           sodipodi:cx="65.018555"
           id="path3897"
           style="fill:#000000;fill-opacity:1;fill-rule:nonzero;stroke:none"
           sodipodi:type="arc" />
        <path
           sodipodi:type="arc"
           style="fill:#000000;fill-opacity:1;fill-rule:nonzero;stroke:none"
           id="path3913"
           sodipodi:cx="65.018555"
           sodipodi:cy="24.800892"
           sodipodi:rx="4.6920605"
           sodipodi:ry="4.6920605"
           d="m 69.710615,24.800892 c 0,2.591353 -2.100707,4.69206 -4.69206,4.69206 -2.591354,0 -4.692061,-2.100707 -4.692061,-4.69206 0,-2.591354 2.100707,-4.692061 4.692061,-4.692061 2.591353,0 4.69206,2.100707 4.69206,4.692061 z"
           transform="matrix(0.7159662,0,0,0.7159662,127.23493,127.78411)" />
        <path
           sodipodi:type="arc"
           style="fill:none;stroke:#000000;stroke-width:1;stroke-linecap:round;stroke-miterlimit:4;stroke-opacity:1;stroke-dasharray:1, 2;stroke-dashoffset:0"
           id="path3931"
           sodipodi:cx="-6.0326495"
           sodipodi:cy="136.06976"
           sodipodi:rx="32.844425"
           sodipodi:ry="105.23622"
           d="m 26.811776,136.06976 c 0,58.12036 -14.70495,105.23622 -32.8444255,105.23622 -18.1394755,0 -32.8444255,-47.11586 -32.8444255,-105.23622 0,-58.120357 14.70495,-105.236218 32.8444255,-105.236218 18.1394755,0 32.8444255,47.115861 32.8444255,105.236218 z"
           transform="matrix(0.7159662,0,0,0.7159662,176.97835,-6.5901691)" />
      </g>
      <g
         transform="translate(17.697115,0)"
         id="g2964">
        <path
           sodipodi:type="arc"
           style="fill:#000000;fill-opacity:1;fill-rule:nonzero;stroke:none"
           id="path3861"
           sodipodi:cx="65.018555"
           sodipodi:cy="24.800892"
           sodipodi:rx="4.6920605"
           sodipodi:ry="4.6920605"
           d="m 69.710615,24.800892 c 0,2.591353 -2.100707,4.69206 -4.69206,4.69206 -2.591354,0 -4.692061,-2.100707 -4.692061,-4.69206 0,-2.591354 2.100707,-4.692061 4.692061,-4.692061 2.591353,0 4.69206,2.100707 4.69206,4.692061 z"
           transform="matrix(0.7159662,0,0,0.7159662,227.00015,19.324872)" />
        <path
           transform="matrix(0.7159662,0,0,0.7159662,227.00015,52.918441)"
           d="m 69.710615,24.800892 c 0,2.591353 -2.100707,4.69206 -4.69206,4.69206 -2.591354,0 -4.692061,-2.100707 -4.692061,-4.69206 0,-2.591354 2.100707,-4.692061 4.692061,-4.692061 2.591353,0 4.69206,2.100707 4.69206,4.692061 z"
           sodipodi:ry="4.6920605"
           sodipodi:rx="4.6920605"
           sodipodi:cy="24.800892"
           sodipodi:cx="65.018555"
           id="path3877"
           style="fill:#000000;fill-opacity:1;fill-rule:nonzero;stroke:none"
           sodipodi:type="arc" />
        <path
           transform="matrix(0.7159662,0,0,0.7159662,227.00015,94.190537)"
           d="m 69.710615,24.800892 c 0,2.591353 -2.100707,4.69206 -4.69206,4.69206 -2.591354,0 -4.692061,-2.100707 -4.692061,-4.69206 0,-2.591354 2.100707,-4.692061 4.692061,-4.692061 2.591353,0 4.69206,2.100707 4.69206,4.692061 z"
           sodipodi:ry="4.6920605"
           sodipodi:rx="4.6920605"
           sodipodi:cy="24.800892"
           sodipodi:cx="65.018555"
           id="path3893"
           style="fill:#000000;fill-opacity:1;fill-rule:nonzero;stroke:none"
           sodipodi:type="arc" />
        <path
           sodipodi:type="arc"
           style="fill:#000000;fill-opacity:1;fill-rule:nonzero;stroke:none"
           id="path3909"
           sodipodi:cx="65.018555"
           sodipodi:cy="24.800892"
           sodipodi:rx="4.6920605"
           sodipodi:ry="4.6920605"
           d="m 69.710615,24.800892 c 0,2.591353 -2.100707,4.69206 -4.69206,4.69206 -2.591354,0 -4.692061,-2.100707 -4.692061,-4.69206 0,-2.591354 2.100707,-4.692061 4.692061,-4.692061 2.591353,0 4.69206,2.100707 4.69206,4.692061 z"
           transform="matrix(0.7159662,0,0,0.7159662,227.00015,127.78411)" />
        <path
           sodipodi:type="arc"
           style="fill:none;stroke:#000000;stroke-width:1;stroke-linecap:round;stroke-miterlimit:4;stroke-opacity:1;stroke-dasharray:1, 2;stroke-dashoffset:0"
           id="path3933"
           sodipodi:cx="-6.0326495"
           sodipodi:cy="136.06976"
           sodipodi:rx="32.844425"
           sodipodi:ry="105.23622"
           d="m 26.811776,136.06976 c 0,58.12036 -14.70495,105.23622 -32.8444255,105.23622 -18.1394755,0 -32.8444255,-47.11586 -32.8444255,-105.23622 0,-58.120357 14.70495,-105.236218 32.8444255,-105.236218 18.1394755,0 32.8444255,47.115861 32.8444255,105.236218 z"
           transform="matrix(0.7159662,0,0,0.7159662,278.71888,-7.5499852)" />
      </g>
      <g
         transform="translate(20.23234,0.21523774)"
         id="g2971">
        <path
           transform="matrix(0.7159662,0,0,0.7159662,271.98484,22.122963)"
           d="m 69.710615,24.800892 c 0,2.591353 -2.100707,4.69206 -4.69206,4.69206 -2.591354,0 -4.692061,-2.100707 -4.692061,-4.69206 0,-2.591354 2.100707,-4.692061 4.692061,-4.692061 2.591353,0 4.69206,2.100707 4.69206,4.692061 z"
           sodipodi:ry="4.6920605"
           sodipodi:rx="4.6920605"
           sodipodi:cy="24.800892"
           sodipodi:cx="65.018555"
           id="path2934"
           style="fill:#000000;fill-opacity:1;fill-rule:nonzero;stroke:none"
           sodipodi:type="arc" />
        <path
           sodipodi:type="arc"
           style="fill:#000000;fill-opacity:1;fill-rule:nonzero;stroke:none"
           id="path2936"
           sodipodi:cx="65.018555"
           sodipodi:cy="24.800892"
           sodipodi:rx="4.6920605"
           sodipodi:ry="4.6920605"
           d="m 69.710615,24.800892 c 0,2.591353 -2.100707,4.69206 -4.69206,4.69206 -2.591354,0 -4.692061,-2.100707 -4.692061,-4.69206 0,-2.591354 2.100707,-4.692061 4.692061,-4.692061 2.591353,0 4.69206,2.100707 4.69206,4.692061 z"
           transform="matrix(0.7159662,0,0,0.7159662,291.35624,19.556592)" />
        <path
           sodipodi:type="arc"
           style="fill:#000000;fill-opacity:1;fill-rule:nonzero;stroke:none"
           id="path2938"
           sodipodi:cx="65.018555"
           sodipodi:cy="24.800892"
           sodipodi:rx="4.6920605"
           sodipodi:ry="4.6920605"
           d="m 69.710615,24.800892 c 0,2.591353 -2.100707,4.69206 -4.69206,4.69206 -2.591354,0 -4.692061,-2.100707 -4.692061,-4.69206 0,-2.591354 2.100707,-4.692061 4.692061,-4.692061 2.591353,0 4.69206,2.100707 4.69206,4.692061 z"
           transform="matrix(0.7159662,0,0,0.7159662,280.59435,94.190537)" />
        <path
           transform="matrix(0.7159662,0,0,0.7159662,280.59435,127.78411)"
           d="m 69.710615,24.800892 c 0,2.591353 -2.100707,4.69206 -4.69206,4.69206 -2.591354,0 -4.692061,-2.100707 -4.692061,-4.69206 0,-2.591354 2.100707,-4.692061 4.692061,-4.692061 2.591353,0 4.69206,2.100707 4.69206,4.692061 z"
           sodipodi:ry="4.6920605"
           sodipodi:rx="4.6920605"
           sodipodi:cy="24.800892"
           sodipodi:cx="65.018555"
           id="path2940"
           style="fill:#000000;fill-opacity:1;fill-rule:nonzero;stroke:none"
           sodipodi:type="arc" />
        <path
           transform="matrix(0.7159662,0,0,0.7159662,332.31308,-7.5499852)"
           d="m 26.811776,136.06976 c 0,58.12036 -14.70495,105.23622 -32.8444255,105.23622 -18.1394755,0 -32.8444255,-47.11586 -32.8444255,-105.23622 0,-58.120357 14.70495,-105.236218 32.8444255,-105.236218 18.1394755,0 32.8444255,47.115861 32.8444255,105.236218 z"
           sodipodi:ry="105.23622"
           sodipodi:rx="32.844425"
           sodipodi:cy="136.06976"
           sodipodi:cx="-6.0326495"
           id="path2942"
           style="fill:none;stroke:#000000;stroke-width:1;stroke-linecap:round;stroke-miterlimit:4;stroke-opacity:1;stroke-dasharray:1, 2;stroke-dashoffset:0"
           sodipodi:type="arc" />
      </g>
    </g>
  </g>
</svg>
