<?xml version="1.0" encoding="UTF-8" standalone="no"?>
<!-- Created with Inkscape (http://www.inkscape.org/) -->

<svg
   xmlns:dc="http://purl.org/dc/elements/1.1/"
   xmlns:cc="http://creativecommons.org/ns#"
   xmlns:rdf="http://www.w3.org/1999/02/22-rdf-syntax-ns#"
   xmlns:svg="http://www.w3.org/2000/svg"
   xmlns="http://www.w3.org/2000/svg"
   xmlns:sodipodi="http://sodipodi.sourceforge.net/DTD/sodipodi-0.dtd"
   xmlns:inkscape="http://www.inkscape.org/namespaces/inkscape"
   width="173.00992"
   height="107.99194"
   id="svg2"
   version="1.1"
   inkscape:version="0.47+devel r9327"
   sodipodi:docname="Neues Dokument 1">
  <defs
     id="defs4" />
  <sodipodi:namedview
     id="base"
     pagecolor="#ffffff"
     bordercolor="#666666"
     borderopacity="1.0"
     inkscape:pageopacity="0.0"
     inkscape:pageshadow="2"
     inkscape:zoom="7.2690608"
     inkscape:cx="86.504963"
     inkscape:cy="20.979327"
     inkscape:document-units="px"
     inkscape:current-layer="layer1"
     showgrid="false"
     inkscape:object-nodes="false"
     inkscape:snap-object-midpoints="true"
     inkscape:window-width="1676"
     inkscape:window-height="1006"
     inkscape:window-x="4"
     inkscape:window-y="0"
     inkscape:window-maximized="0" />
  <metadata
     id="metadata7">
    <rdf:RDF>
      <cc:Work
         rdf:about="">
        <dc:format>image/svg+xml</dc:format>
        <dc:type
           rdf:resource="http://purl.org/dc/dcmitype/StillImage" />
        <dc:title></dc:title>
      </cc:Work>
    </rdf:RDF>
  </metadata>
  <g
     inkscape:label="Ebene 1"
     inkscape:groupmode="layer"
     id="layer1"
     transform="translate(-96.267754,-37.063599)">
    <path
       sodipodi:type="arc"
       id="path2915"
       style="fill:#000000;stroke:none"
       sodipodi:cx="106.43682"
       sodipodi:cy="975.7511"
       sodipodi:rx="1.5"
       sodipodi:ry="1.5"
       d="m 107.93682,975.7511 c 0,0.82843 -0.67157,1.5 -1.5,1.5 -0.82843,0 -1.5,-0.67157 -1.5,-1.5 0,-0.82843 0.67157,-1.5 1.5,-1.5 0.82843,0 1.5,0.67157 1.5,1.5 z"
       transform="matrix(1,0,0,-1,0,1052.3622)" />
    <path
       sodipodi:type="arc"
       id="path2917"
       style="fill:#000000;stroke:none"
       sodipodi:cx="169.52832"
       sodipodi:cy="1013.7986"
       sodipodi:rx="1.5"
       sodipodi:ry="1.5"
       d="m 171.02832,1013.7986 c 0,0.8284 -0.67157,1.5 -1.5,1.5 -0.82843,0 -1.5,-0.6716 -1.5,-1.5 0,-0.8284 0.67157,-1.5 1.5,-1.5 0.82843,0 1.5,0.6716 1.5,1.5 z"
       transform="matrix(1,0,0,-1,0,1052.3622)" />
    <path
       sodipodi:type="arc"
       id="path2919"
       style="fill:#000000;stroke:none"
       sodipodi:cx="210.46556"
       sodipodi:cy="948.29907"
       sodipodi:rx="1.5"
       sodipodi:ry="1.5"
       d="m 211.96556,948.29907 c 0,0.82843 -0.67157,1.5 -1.5,1.5 -0.82843,0 -1.5,-0.67157 -1.5,-1.5 0,-0.82842 0.67157,-1.5 1.5,-1.5 0.82843,0 1.5,0.67158 1.5,1.5 z"
       transform="matrix(1,0,0,-1,0,1052.3622)" />
    <path
       sodipodi:type="arc"
       id="path2921"
       style="fill:#000000;stroke:none"
       sodipodi:cx="97.767754"
       sodipodi:cy="908.80664"
       sodipodi:rx="1.5"
       sodipodi:ry="1.5"
       d="m 99.267754,908.80664 c 0,0.82843 -0.671573,1.5 -1.5,1.5 -0.828428,0 -1.5,-0.67157 -1.5,-1.5 0,-0.82843 0.671572,-1.5 1.5,-1.5 0.828427,0 1.5,0.67157 1.5,1.5 z"
       transform="matrix(1,0,0,-1,0,1052.3622)" />
    <path
       sodipodi:type="arc"
       id="path2923"
       style="fill:#000000;stroke:none"
       sodipodi:cx="182.05029"
       sodipodi:cy="965.15558"
       sodipodi:rx="1.5"
       sodipodi:ry="1.5"
       d="m 183.55029,965.15558 c 0,0.82843 -0.67157,1.5 -1.5,1.5 -0.82842,0 -1.5,-0.67157 -1.5,-1.5 0,-0.82843 0.67158,-1.5 1.5,-1.5 0.82843,0 1.5,0.67157 1.5,1.5 z"
       transform="matrix(1,0,0,-1,0,1052.3622)" />
    <path
       sodipodi:type="arc"
       id="path2925"
       style="fill:#000000;stroke:none"
       sodipodi:cx="215.28169"
       sodipodi:cy="1005.1296"
       sodipodi:rx="1.5"
       sodipodi:ry="1.5"
       d="m 216.78169,1005.1296 c 0,0.8284 -0.67157,1.5 -1.5,1.5 -0.82842,0 -1.5,-0.6716 -1.5,-1.5 0,-0.8284 0.67158,-1.5 1.5,-1.5 0.82843,0 1.5,0.6716 1.5,1.5 z"
       transform="matrix(1,0,0,-1,0,1052.3622)" />
    <path
       sodipodi:type="arc"
       id="path2927"
       style="fill:#000000;stroke:none"
       sodipodi:cx="267.77768"
       sodipodi:cy="954.07843"
       sodipodi:rx="1.5"
       sodipodi:ry="1.5"
       d="m 269.27768,954.07843 c 0,0.82843 -0.67157,1.5 -1.5,1.5 -0.82843,0 -1.5,-0.67157 -1.5,-1.5 0,-0.82843 0.67157,-1.5 1.5,-1.5 0.82843,0 1.5,0.67157 1.5,1.5 z"
       transform="matrix(1,0,0,-1,0,1052.3622)" />
    <path
       sodipodi:type="arc"
       id="path2929"
       style="fill:#000000;stroke:none"
       sodipodi:cx="213.35526"
       sodipodi:cy="910.73309"
       sodipodi:rx="1.5"
       sodipodi:ry="1.5"
       d="m 214.85526,910.73309 c 0,0.82843 -0.67158,1.5 -1.5,1.5 -0.82843,0 -1.5,-0.67157 -1.5,-1.5 0,-0.82842 0.67157,-1.5 1.5,-1.5 0.82842,0 1.5,0.67158 1.5,1.5 z"
       transform="matrix(1,0,0,-1,0,1052.3622)" />
    <path
       sodipodi:type="arc"
       id="path2931"
       style="fill:#000000;stroke:none"
       sodipodi:cx="155.0799"
       sodipodi:cy="936.25867"
       sodipodi:rx="1.5"
       sodipodi:ry="1.5"
       d="m 156.5799,936.25867 c 0,0.82842 -0.67158,1.5 -1.5,1.5 -0.82843,0 -1.5,-0.67158 -1.5,-1.5 0,-0.82843 0.67157,-1.5 1.5,-1.5 0.82842,0 1.5,0.67157 1.5,1.5 z"
       transform="matrix(1,0,0,-1,24.624914,1065.4313)" />
    <path
       sodipodi:type="arc"
       id="path2933"
       style="fill:#000000;stroke:none"
       sodipodi:cx="147.37405"
       sodipodi:cy="911.21472"
       sodipodi:rx="1.5"
       sodipodi:ry="1.5"
       d="m 148.87405,911.21472 c 0,0.82843 -0.67157,1.5 -1.5,1.5 -0.82842,0 -1.5,-0.67157 -1.5,-1.5 0,-0.82843 0.67158,-1.5 1.5,-1.5 0.82843,0 1.5,0.67157 1.5,1.5 z"
       transform="matrix(1,0,0,-1,-10.042563,1026.4991)" />
    <path
       sodipodi:type="arc"
       id="path2935"
       style="fill:#000000;stroke:none"
       sodipodi:cx="248.99472"
       sodipodi:cy="927.10803"
       sodipodi:rx="1.5"
       sodipodi:ry="1.5"
       d="m 250.49472,927.10803 c 0,0.82843 -0.67157,1.5 -1.5,1.5 -0.82843,0 -1.5,-0.67157 -1.5,-1.5 0,-0.82842 0.67157,-1.5 1.5,-1.5 0.82843,0 1.5,0.67158 1.5,1.5 z"
       transform="matrix(1,0,0,-1,0,1052.3622)" />
    <path
       sodipodi:type="arc"
       id="path2937"
       style="fill:#000000;stroke:none"
       sodipodi:cx="245.14182"
       sodipodi:cy="970.93494"
       sodipodi:rx="1.5"
       sodipodi:ry="1.5"
       d="m 246.64182,970.93494 c 0,0.82842 -0.67158,1.5 -1.5,1.5 -0.82843,0 -1.5,-0.67158 -1.5,-1.5 0,-0.82843 0.67157,-1.5 1.5,-1.5 0.82842,0 1.5,0.67157 1.5,1.5 z"
       transform="matrix(1,0,0,-1,-74.70016,1032.4146)" />
    <path
       style="fill:none;stroke:#000000;stroke-width:1px;stroke-linecap:butt;stroke-linejoin:miter;stroke-opacity:1"
       d="m 106.43682,76.611084 63.0915,-38.047485 45.75337,8.669006 52.49599,51.051147 -18.78296,26.970398 -35.63946,16.37494 -115.587506,1.92645 z"
       id="path2939"
       inkscape:connector-curvature="0" />
  </g>
</svg>
