<?xml version="1.0" encoding="UTF-8" standalone="no"?>
<!-- Created with Inkscape (http://www.inkscape.org/) -->

<svg
   xmlns:dc="http://purl.org/dc/elements/1.1/"
   xmlns:cc="http://creativecommons.org/ns#"
   xmlns:rdf="http://www.w3.org/1999/02/22-rdf-syntax-ns#"
   xmlns:svg="http://www.w3.org/2000/svg"
   xmlns="http://www.w3.org/2000/svg"
   xmlns:xlink="http://www.w3.org/1999/xlink"
   xmlns:sodipodi="http://sodipodi.sourceforge.net/DTD/sodipodi-0.dtd"
   xmlns:inkscape="http://www.inkscape.org/namespaces/inkscape"
   width="200.84375"
   height="200.84375"
   id="svg3796"
   version="1.1"
   inkscape:version="0.47+devel r9327"
   sodipodi:docname="Neues Dokument 8">
  <defs
     id="defs3798" />
  <sodipodi:namedview
     id="base"
     pagecolor="#ffffff"
     bordercolor="#666666"
     borderopacity="1.0"
     inkscape:pageopacity="0.0"
     inkscape:pageshadow="2"
     inkscape:zoom="2.0763492"
     inkscape:cx="54.913338"
     inkscape:cy="106.30237"
     inkscape:document-units="px"
     inkscape:current-layer="layer1"
     showgrid="false"
     inkscape:object-paths="true"
     inkscape:snap-intersection-paths="true"
     inkscape:snap-nodes="true"
     inkscape:snap-object-midpoints="true"
     inkscape:snap-global="false"
     inkscape:window-width="1676"
     inkscape:window-height="1006"
     inkscape:window-x="4"
     inkscape:window-y="0"
     inkscape:window-maximized="0" />
  <metadata
     id="metadata3801">
    <rdf:RDF>
      <cc:Work
         rdf:about="">
        <dc:format>image/svg+xml</dc:format>
        <dc:type
           rdf:resource="http://purl.org/dc/dcmitype/StillImage" />
        <dc:title></dc:title>
      </cc:Work>
    </rdf:RDF>
  </metadata>
  <g
     inkscape:label="Ebene 1"
     inkscape:groupmode="layer"
     id="layer1"
     transform="translate(-186.61636,-14)">
    <path
       style="fill:none;stroke:#000000;stroke-width:1px;stroke-linecap:butt;stroke-linejoin:miter;stroke-opacity:1"
       d="m 287.04227,14.001209 0,200.833271"
       id="path3804"
       inkscape:connector-curvature="0" />
    <use
       x="0"
       y="0"
       xlink:href="#path3804"
       id="use4314"
       transform="matrix(0,1,-1,0,401.46011,-172.62443)"
       width="744.09448"
       height="1052.3622" />
    <path
       sodipodi:type="arc"
       style="fill:none;stroke:#000000;stroke-width:0.71517026;stroke-opacity:1"
       id="path4316"
       sodipodi:cx="297.8786"
       sodipodi:cy="100.45102"
       sodipodi:rx="55.62648"
       sodipodi:ry="55.62648"
       d="m 353.50508,100.45102 c 0,30.72166 -24.90482,55.62648 -55.62648,55.62648 -30.72166,0 -55.62648,-24.90482 -55.62648,-55.62648 0,-30.721657 24.90482,-55.626481 55.62648,-55.626481 30.72166,0 55.62648,24.904824 55.62648,55.626481 z"
       transform="matrix(1.3982684,0,0,1.3982684,-129.47197,-26.039646)" />
    <path
       sodipodi:type="arc"
       style="fill:none;stroke:#000000;stroke-width:1.28004432;stroke-linecap:round;stroke-miterlimit:4;stroke-opacity:1;stroke-dasharray:1.28004434, 2.56008868;stroke-dashoffset:0"
       id="path4318"
       sodipodi:cx="274.76111"
       sodipodi:cy="111.76897"
       sodipodi:rx="52.25518"
       sodipodi:ry="93.43322"
       d="m 327.01629,111.76897 c 0,51.60174 -23.39544,93.43322 -52.25518,93.43322 -28.85974,0 -52.25518,-41.83148 -52.25518,-93.43322 0,-51.601746 23.39544,-93.433223 52.25518,-93.433223 28.85974,0 52.25518,41.831477 52.25518,93.433223 z"
       transform="matrix(1,0,0,0.95360825,-14,7.8340317)" />
    <path
       id="path4322"
       style="fill:#d3d3d3;fill-opacity:1;stroke:none"
       d="m 276.22436,190.63831 c -34.94559,-5.10276 -61.65877,-32.71821 -65.69004,-67.90882 -0.27187,-2.37326 -0.49609,-5.01938 -0.49826,-5.88026 l -0.004,-1.56525 38.04755,0 38.04755,0 0,38.04755 0,38.04755 -2.76929,-0.0517 c -1.5231,-0.0285 -4.73321,-0.33852 -7.13356,-0.68902 z m -66.18285,-78.84603 c 0.0151,-3.27895 1.27281,-11.844949 2.3704,-16.143763 5.59239,-21.90324 20.18934,-39.994745 40.51482,-50.214196 8.84209,-4.445718 20.07465,-7.404247 29.58837,-7.793244 l 3.3713,-0.137846 0.1233,38.167953 0.1233,38.167956 -38.05044,0 -38.05045,0 0.009,-2.04686 0,0 z"
       inkscape:connector-curvature="0" />
    <text
       xml:space="preserve"
       style="font-size:10px;font-style:normal;font-variant:normal;font-weight:normal;font-stretch:normal;text-align:start;line-height:112.99999952%;writing-mode:lr-tb;text-anchor:start;fill:#000000;fill-opacity:1;stroke:none;font-family:Palatino;-inkscape-font-specification:Palatino"
       x="367.47189"
       y="125.25416"
       id="text4325"
       sodipodi:linespacing="113%"><tspan
         sodipodi:role="line"
         id="tspan4327"
         x="367.47189"
         y="125.25416">1</tspan></text>
    <text
       xml:space="preserve"
       style="font-size:10px;font-style:normal;font-variant:normal;font-weight:normal;font-stretch:normal;text-align:start;line-height:112.99999952%;writing-mode:lr-tb;text-anchor:start;fill:#000000;fill-opacity:1;stroke:none;font-family:Palatino;-inkscape-font-specification:Palatino"
       x="288.96872"
       y="31.820948"
       id="text4329"
       sodipodi:linespacing="113%"><tspan
         sodipodi:role="line"
         id="tspan4331"
         x="288.96872"
         y="31.820948">1</tspan></text>
    <text
       xml:space="preserve"
       style="font-size:10px;font-style:normal;font-variant:normal;font-weight:normal;font-stretch:normal;text-align:start;line-height:112.99999952%;writing-mode:lr-tb;text-anchor:start;fill:#000000;fill-opacity:1;stroke:none;font-family:Palatino;-inkscape-font-specification:Palatino"
       x="199.87004"
       y="122.8461"
       id="text4333"
       sodipodi:linespacing="113%"><tspan
         sodipodi:role="line"
         id="tspan4335"
         x="199.87004"
         y="122.8461">-1</tspan></text>
    <text
       xml:space="preserve"
       style="font-size:10px;font-style:normal;font-variant:normal;font-weight:normal;font-stretch:normal;text-align:start;line-height:112.99999952%;writing-mode:lr-tb;text-anchor:start;fill:#000000;fill-opacity:1;stroke:none;font-family:Palatino;-inkscape-font-specification:Palatino"
       x="287.04227"
       y="202.79411"
       id="text4337"
       sodipodi:linespacing="113%"><tspan
         sodipodi:role="line"
         id="tspan4339"
         x="287.04227"
         y="202.79411">-1</tspan></text>
  </g>
</svg>
