<?xml version="1.0" encoding="UTF-8" standalone="no"?>
<!-- Created with Inkscape (http://www.inkscape.org/) -->

<svg
   xmlns:dc="http://purl.org/dc/elements/1.1/"
   xmlns:cc="http://creativecommons.org/ns#"
   xmlns:rdf="http://www.w3.org/1999/02/22-rdf-syntax-ns#"
   xmlns:svg="http://www.w3.org/2000/svg"
   xmlns="http://www.w3.org/2000/svg"
   xmlns:sodipodi="http://sodipodi.sourceforge.net/DTD/sodipodi-0.dtd"
   xmlns:inkscape="http://www.inkscape.org/namespaces/inkscape"
   width="163"
   height="181.13782"
   id="svg4379"
   version="1.1"
   inkscape:version="0.47+devel r9327"
   sodipodi:docname="points.svg">
  <defs
     id="defs4381" />
  <sodipodi:namedview
     id="base"
     pagecolor="#ffffff"
     bordercolor="#666666"
     borderopacity="1.0"
     inkscape:pageopacity="0.0"
     inkscape:pageshadow="2"
     inkscape:zoom="1.5387831"
     inkscape:cx="124.07848"
     inkscape:cy="129.13782"
     inkscape:document-units="px"
     inkscape:current-layer="layer1"
     showgrid="true"
     inkscape:window-width="1276"
     inkscape:window-height="756"
     inkscape:window-x="4"
     inkscape:window-y="0"
     inkscape:window-maximized="0"
     inkscape:snap-global="true">
    <inkscape:grid
       type="xygrid"
       id="grid4387"
       empspacing="5"
       visible="true"
       enabled="true"
       snapvisiblegridlinesonly="true" />
  </sodipodi:namedview>
  <metadata
     id="metadata4384">
    <rdf:RDF>
      <cc:Work
         rdf:about="">
        <dc:format>image/svg+xml</dc:format>
        <dc:type
           rdf:resource="http://purl.org/dc/dcmitype/StillImage" />
      </cc:Work>
    </rdf:RDF>
  </metadata>
  <g
     inkscape:label="Ebene 1"
     inkscape:groupmode="layer"
     id="layer1"
     transform="translate(-98.5,-480.36218)">
    <path
       style="fill:#ff9f9f;fill-opacity:1;stroke:#000000;stroke-width:1px;stroke-linecap:butt;stroke-linejoin:miter;stroke-opacity:1"
       d="m 106.57772,577.96133 36.3924,-70.83519 103.3284,23.39511 5.84878,61.7371 -100.07908,43.5409 z"
       id="path4702"
       inkscape:connector-curvature="0" />
    <path
       style="fill:#9fff9f;fill-opacity:1;stroke:#000000;stroke-width:1px;stroke-linecap:butt;stroke-linejoin:miter;stroke-opacity:1"
       d="m 120,562.36218 20,-40 60,0 40,20 0,40 -20,20 -40,20 -40,0 -20,-40 z"
       id="path4704"
       inkscape:connector-curvature="0" />
    <path
       sodipodi:type="arc"
       id="path4389"
       style="fill:#000000;stroke:none"
       sodipodi:cx="100"
       sodipodi:cy="660"
       sodipodi:rx="1.5"
       sodipodi:ry="1.5"
       d="m 101.5,660 c 0,0.82843 -0.67157,1.5 -1.5,1.5 -0.828427,0 -1.5,-0.67157 -1.5,-1.5 0,-0.82843 0.671573,-1.5 1.5,-1.5 0.82843,0 1.5,0.67157 1.5,1.5 z" />
    <path
       sodipodi:type="arc"
       id="path4393"
       style="fill:#000000;stroke:none"
       sodipodi:cx="120"
       sodipodi:cy="660"
       sodipodi:rx="1.5"
       sodipodi:ry="1.5"
       d="m 121.5,660 c 0,0.82843 -0.67157,1.5 -1.5,1.5 -0.82843,0 -1.5,-0.67157 -1.5,-1.5 0,-0.82843 0.67157,-1.5 1.5,-1.5 0.82843,0 1.5,0.67157 1.5,1.5 z" />
    <path
       sodipodi:type="arc"
       id="path4397"
       style="fill:#000000;stroke:none"
       sodipodi:cx="140"
       sodipodi:cy="660"
       sodipodi:rx="1.5"
       sodipodi:ry="1.5"
       d="m 141.5,660 c 0,0.82843 -0.67157,1.5 -1.5,1.5 -0.82843,0 -1.5,-0.67157 -1.5,-1.5 0,-0.82843 0.67157,-1.5 1.5,-1.5 0.82843,0 1.5,0.67157 1.5,1.5 z" />
    <path
       sodipodi:type="arc"
       id="path4421"
       style="fill:#000000;stroke:none"
       sodipodi:cx="160"
       sodipodi:cy="660"
       sodipodi:rx="1.5"
       sodipodi:ry="1.5"
       d="m 161.5,660 c 0,0.82843 -0.67157,1.5 -1.5,1.5 -0.82843,0 -1.5,-0.67157 -1.5,-1.5 0,-0.82843 0.67157,-1.5 1.5,-1.5 0.82843,0 1.5,0.67157 1.5,1.5 z" />
    <path
       sodipodi:type="arc"
       id="path4425"
       style="fill:#000000;stroke:none"
       sodipodi:cx="180"
       sodipodi:cy="660"
       sodipodi:rx="1.5"
       sodipodi:ry="1.5"
       d="m 181.5,660 c 0,0.82843 -0.67157,1.5 -1.5,1.5 -0.82843,0 -1.5,-0.67157 -1.5,-1.5 0,-0.82843 0.67157,-1.5 1.5,-1.5 0.82843,0 1.5,0.67157 1.5,1.5 z" />
    <path
       sodipodi:type="arc"
       id="path4427"
       style="fill:#000000;stroke:none"
       sodipodi:cx="100"
       sodipodi:cy="640"
       sodipodi:rx="1.5"
       sodipodi:ry="1.5"
       d="m 101.5,640 c 0,0.82843 -0.67157,1.5 -1.5,1.5 -0.828427,0 -1.5,-0.67157 -1.5,-1.5 0,-0.82843 0.671573,-1.5 1.5,-1.5 0.82843,0 1.5,0.67157 1.5,1.5 z" />
    <path
       sodipodi:type="arc"
       id="path4429"
       style="fill:#000000;stroke:none"
       sodipodi:cx="120"
       sodipodi:cy="640"
       sodipodi:rx="1.5"
       sodipodi:ry="1.5"
       d="m 121.5,640 c 0,0.82843 -0.67157,1.5 -1.5,1.5 -0.82843,0 -1.5,-0.67157 -1.5,-1.5 0,-0.82843 0.67157,-1.5 1.5,-1.5 0.82843,0 1.5,0.67157 1.5,1.5 z" />
    <path
       sodipodi:type="arc"
       id="path4431"
       style="fill:#000000;stroke:none"
       sodipodi:cx="140"
       sodipodi:cy="640"
       sodipodi:rx="1.5"
       sodipodi:ry="1.5"
       d="m 141.5,640 c 0,0.82843 -0.67157,1.5 -1.5,1.5 -0.82843,0 -1.5,-0.67157 -1.5,-1.5 0,-0.82843 0.67157,-1.5 1.5,-1.5 0.82843,0 1.5,0.67157 1.5,1.5 z" />
    <path
       sodipodi:type="arc"
       id="path4433"
       style="fill:#000000;stroke:none"
       sodipodi:cx="160"
       sodipodi:cy="640"
       sodipodi:rx="1.5"
       sodipodi:ry="1.5"
       d="m 161.5,640 c 0,0.82843 -0.67157,1.5 -1.5,1.5 -0.82843,0 -1.5,-0.67157 -1.5,-1.5 0,-0.82843 0.67157,-1.5 1.5,-1.5 0.82843,0 1.5,0.67157 1.5,1.5 z" />
    <path
       sodipodi:type="arc"
       id="path4435"
       style="fill:#000000;stroke:none"
       sodipodi:cx="180"
       sodipodi:cy="640"
       sodipodi:rx="1.5"
       sodipodi:ry="1.5"
       d="m 181.5,640 c 0,0.82843 -0.67157,1.5 -1.5,1.5 -0.82843,0 -1.5,-0.67157 -1.5,-1.5 0,-0.82843 0.67157,-1.5 1.5,-1.5 0.82843,0 1.5,0.67157 1.5,1.5 z" />
    <path
       sodipodi:type="arc"
       id="path4437"
       style="fill:#000000;stroke:none"
       sodipodi:cx="200"
       sodipodi:cy="640"
       sodipodi:rx="1.5"
       sodipodi:ry="1.5"
       d="m 201.5,640 c 0,0.82843 -0.67157,1.5 -1.5,1.5 -0.82843,0 -1.5,-0.67157 -1.5,-1.5 0,-0.82843 0.67157,-1.5 1.5,-1.5 0.82843,0 1.5,0.67157 1.5,1.5 z" />
    <path
       sodipodi:type="arc"
       id="path4439"
       style="fill:#000000;stroke:none"
       sodipodi:cx="220"
       sodipodi:cy="640"
       sodipodi:rx="1.5"
       sodipodi:ry="1.5"
       d="m 221.5,640 c 0,0.82843 -0.67157,1.5 -1.5,1.5 -0.82843,0 -1.5,-0.67157 -1.5,-1.5 0,-0.82843 0.67157,-1.5 1.5,-1.5 0.82843,0 1.5,0.67157 1.5,1.5 z" />
    <path
       sodipodi:type="arc"
       id="path4441"
       style="fill:#000000;stroke:none"
       sodipodi:cx="240"
       sodipodi:cy="640"
       sodipodi:rx="1.5"
       sodipodi:ry="1.5"
       d="m 241.5,640 c 0,0.82843 -0.67157,1.5 -1.5,1.5 -0.82843,0 -1.5,-0.67157 -1.5,-1.5 0,-0.82843 0.67157,-1.5 1.5,-1.5 0.82843,0 1.5,0.67157 1.5,1.5 z" />
    <path
       sodipodi:type="arc"
       id="path4443"
       style="fill:#000000;stroke:none"
       sodipodi:cx="260"
       sodipodi:cy="640"
       sodipodi:rx="1.5"
       sodipodi:ry="1.5"
       d="m 261.5,640 c 0,0.82843 -0.67157,1.5 -1.5,1.5 -0.82843,0 -1.5,-0.67157 -1.5,-1.5 0,-0.82843 0.67157,-1.5 1.5,-1.5 0.82843,0 1.5,0.67157 1.5,1.5 z" />
    <path
       sodipodi:type="arc"
       id="path4445"
       style="fill:#000000;stroke:none"
       sodipodi:cx="260"
       sodipodi:cy="620"
       sodipodi:rx="1.5"
       sodipodi:ry="1.5"
       d="m 261.5,620 c 0,0.82843 -0.67157,1.5 -1.5,1.5 -0.82843,0 -1.5,-0.67157 -1.5,-1.5 0,-0.82843 0.67157,-1.5 1.5,-1.5 0.82843,0 1.5,0.67157 1.5,1.5 z" />
    <path
       sodipodi:type="arc"
       id="path4447"
       style="fill:#000000;stroke:none"
       sodipodi:cx="240"
       sodipodi:cy="620"
       sodipodi:rx="1.5"
       sodipodi:ry="1.5"
       d="m 241.5,620 c 0,0.82843 -0.67157,1.5 -1.5,1.5 -0.82843,0 -1.5,-0.67157 -1.5,-1.5 0,-0.82843 0.67157,-1.5 1.5,-1.5 0.82843,0 1.5,0.67157 1.5,1.5 z" />
    <path
       sodipodi:type="arc"
       id="path4449"
       style="fill:#000000;stroke:none"
       sodipodi:cx="220"
       sodipodi:cy="620"
       sodipodi:rx="1.5"
       sodipodi:ry="1.5"
       d="m 221.5,620 c 0,0.82843 -0.67157,1.5 -1.5,1.5 -0.82843,0 -1.5,-0.67157 -1.5,-1.5 0,-0.82843 0.67157,-1.5 1.5,-1.5 0.82843,0 1.5,0.67157 1.5,1.5 z" />
    <path
       sodipodi:type="arc"
       id="path4451"
       style="fill:#000000;stroke:none"
       sodipodi:cx="200"
       sodipodi:cy="620"
       sodipodi:rx="1.5"
       sodipodi:ry="1.5"
       d="m 201.5,620 c 0,0.82843 -0.67157,1.5 -1.5,1.5 -0.82843,0 -1.5,-0.67157 -1.5,-1.5 0,-0.82843 0.67157,-1.5 1.5,-1.5 0.82843,0 1.5,0.67157 1.5,1.5 z" />
    <path
       sodipodi:type="arc"
       id="path4453"
       style="fill:#000000;stroke:none"
       sodipodi:cx="180"
       sodipodi:cy="620"
       sodipodi:rx="1.5"
       sodipodi:ry="1.5"
       d="m 181.5,620 c 0,0.82843 -0.67157,1.5 -1.5,1.5 -0.82843,0 -1.5,-0.67157 -1.5,-1.5 0,-0.82843 0.67157,-1.5 1.5,-1.5 0.82843,0 1.5,0.67157 1.5,1.5 z" />
    <path
       sodipodi:type="arc"
       id="path4455"
       style="fill:#000000;stroke:none"
       sodipodi:cx="160"
       sodipodi:cy="620"
       sodipodi:rx="1.5"
       sodipodi:ry="1.5"
       d="m 161.5,620 c 0,0.82843 -0.67157,1.5 -1.5,1.5 -0.82843,0 -1.5,-0.67157 -1.5,-1.5 0,-0.82843 0.67157,-1.5 1.5,-1.5 0.82843,0 1.5,0.67157 1.5,1.5 z" />
    <path
       sodipodi:type="arc"
       id="path4457"
       style="fill:#000000;stroke:none"
       sodipodi:cx="140"
       sodipodi:cy="620"
       sodipodi:rx="1.5"
       sodipodi:ry="1.5"
       d="m 141.5,620 c 0,0.82843 -0.67157,1.5 -1.5,1.5 -0.82843,0 -1.5,-0.67157 -1.5,-1.5 0,-0.82843 0.67157,-1.5 1.5,-1.5 0.82843,0 1.5,0.67157 1.5,1.5 z" />
    <path
       sodipodi:type="arc"
       id="path4459"
       style="fill:#000000;stroke:none"
       sodipodi:cx="120"
       sodipodi:cy="620"
       sodipodi:rx="1.5"
       sodipodi:ry="1.5"
       d="m 121.5,620 c 0,0.82843 -0.67157,1.5 -1.5,1.5 -0.82843,0 -1.5,-0.67157 -1.5,-1.5 0,-0.82843 0.67157,-1.5 1.5,-1.5 0.82843,0 1.5,0.67157 1.5,1.5 z" />
    <path
       sodipodi:type="arc"
       id="path4461"
       style="fill:#000000;stroke:none"
       sodipodi:cx="100"
       sodipodi:cy="620"
       sodipodi:rx="1.5"
       sodipodi:ry="1.5"
       d="m 101.5,620 c 0,0.82843 -0.67157,1.5 -1.5,1.5 -0.828427,0 -1.5,-0.67157 -1.5,-1.5 0,-0.82843 0.671573,-1.5 1.5,-1.5 0.82843,0 1.5,0.67157 1.5,1.5 z" />
    <path
       sodipodi:type="arc"
       id="path4463"
       style="fill:#000000;stroke:none"
       sodipodi:cx="100"
       sodipodi:cy="600"
       sodipodi:rx="1.5"
       sodipodi:ry="1.5"
       d="m 101.5,600 c 0,0.82843 -0.67157,1.5 -1.5,1.5 -0.828427,0 -1.5,-0.67157 -1.5,-1.5 0,-0.82843 0.671573,-1.5 1.5,-1.5 0.82843,0 1.5,0.67157 1.5,1.5 z" />
    <path
       sodipodi:type="arc"
       id="path4465"
       style="fill:#000000;stroke:none"
       sodipodi:cx="120"
       sodipodi:cy="600"
       sodipodi:rx="1.5"
       sodipodi:ry="1.5"
       d="m 121.5,600 c 0,0.82843 -0.67157,1.5 -1.5,1.5 -0.82843,0 -1.5,-0.67157 -1.5,-1.5 0,-0.82843 0.67157,-1.5 1.5,-1.5 0.82843,0 1.5,0.67157 1.5,1.5 z" />
    <path
       sodipodi:type="arc"
       id="path4467"
       style="fill:#000000;stroke:none"
       sodipodi:cx="140"
       sodipodi:cy="600"
       sodipodi:rx="1.5"
       sodipodi:ry="1.5"
       d="m 141.5,600 c 0,0.82843 -0.67157,1.5 -1.5,1.5 -0.82843,0 -1.5,-0.67157 -1.5,-1.5 0,-0.82843 0.67157,-1.5 1.5,-1.5 0.82843,0 1.5,0.67157 1.5,1.5 z" />
    <path
       sodipodi:type="arc"
       id="path4469"
       style="fill:#000000;stroke:none"
       sodipodi:cx="160"
       sodipodi:cy="600"
       sodipodi:rx="1.5"
       sodipodi:ry="1.5"
       d="m 161.5,600 c 0,0.82843 -0.67157,1.5 -1.5,1.5 -0.82843,0 -1.5,-0.67157 -1.5,-1.5 0,-0.82843 0.67157,-1.5 1.5,-1.5 0.82843,0 1.5,0.67157 1.5,1.5 z" />
    <path
       sodipodi:type="arc"
       id="path4471"
       style="fill:#000000;stroke:none"
       sodipodi:cx="180"
       sodipodi:cy="600"
       sodipodi:rx="1.5"
       sodipodi:ry="1.5"
       d="m 181.5,600 c 0,0.82843 -0.67157,1.5 -1.5,1.5 -0.82843,0 -1.5,-0.67157 -1.5,-1.5 0,-0.82843 0.67157,-1.5 1.5,-1.5 0.82843,0 1.5,0.67157 1.5,1.5 z" />
    <path
       sodipodi:type="arc"
       id="path4473"
       style="fill:#000000;stroke:none"
       sodipodi:cx="200"
       sodipodi:cy="600"
       sodipodi:rx="1.5"
       sodipodi:ry="1.5"
       d="m 201.5,600 c 0,0.82843 -0.67157,1.5 -1.5,1.5 -0.82843,0 -1.5,-0.67157 -1.5,-1.5 0,-0.82843 0.67157,-1.5 1.5,-1.5 0.82843,0 1.5,0.67157 1.5,1.5 z" />
    <path
       sodipodi:type="arc"
       id="path4475"
       style="fill:#000000;stroke:none"
       sodipodi:cx="220"
       sodipodi:cy="600"
       sodipodi:rx="1.5"
       sodipodi:ry="1.5"
       d="m 221.5,600 c 0,0.82843 -0.67157,1.5 -1.5,1.5 -0.82843,0 -1.5,-0.67157 -1.5,-1.5 0,-0.82843 0.67157,-1.5 1.5,-1.5 0.82843,0 1.5,0.67157 1.5,1.5 z" />
    <path
       sodipodi:type="arc"
       id="path4477"
       style="fill:#000000;stroke:none"
       sodipodi:cx="240"
       sodipodi:cy="600"
       sodipodi:rx="1.5"
       sodipodi:ry="1.5"
       d="m 241.5,600 c 0,0.82843 -0.67157,1.5 -1.5,1.5 -0.82843,0 -1.5,-0.67157 -1.5,-1.5 0,-0.82843 0.67157,-1.5 1.5,-1.5 0.82843,0 1.5,0.67157 1.5,1.5 z" />
    <path
       sodipodi:type="arc"
       id="path4479"
       style="fill:#000000;stroke:none"
       sodipodi:cx="260"
       sodipodi:cy="600"
       sodipodi:rx="1.5"
       sodipodi:ry="1.5"
       d="m 261.5,600 c 0,0.82843 -0.67157,1.5 -1.5,1.5 -0.82843,0 -1.5,-0.67157 -1.5,-1.5 0,-0.82843 0.67157,-1.5 1.5,-1.5 0.82843,0 1.5,0.67157 1.5,1.5 z" />
    <path
       sodipodi:type="arc"
       id="path4481"
       style="fill:#000000;stroke:none"
       sodipodi:cx="260"
       sodipodi:cy="580"
       sodipodi:rx="1.5"
       sodipodi:ry="1.5"
       d="m 261.5,580 c 0,0.82843 -0.67157,1.5 -1.5,1.5 -0.82843,0 -1.5,-0.67157 -1.5,-1.5 0,-0.82843 0.67157,-1.5 1.5,-1.5 0.82843,0 1.5,0.67157 1.5,1.5 z" />
    <path
       sodipodi:type="arc"
       id="path4483"
       style="fill:#000000;stroke:none"
       sodipodi:cx="240"
       sodipodi:cy="580"
       sodipodi:rx="1.5"
       sodipodi:ry="1.5"
       d="m 241.5,580 c 0,0.82843 -0.67157,1.5 -1.5,1.5 -0.82843,0 -1.5,-0.67157 -1.5,-1.5 0,-0.82843 0.67157,-1.5 1.5,-1.5 0.82843,0 1.5,0.67157 1.5,1.5 z" />
    <path
       sodipodi:type="arc"
       id="path4485"
       style="fill:#000000;stroke:none"
       sodipodi:cx="220"
       sodipodi:cy="580"
       sodipodi:rx="1.5"
       sodipodi:ry="1.5"
       d="m 221.5,580 c 0,0.82843 -0.67157,1.5 -1.5,1.5 -0.82843,0 -1.5,-0.67157 -1.5,-1.5 0,-0.82843 0.67157,-1.5 1.5,-1.5 0.82843,0 1.5,0.67157 1.5,1.5 z" />
    <path
       sodipodi:type="arc"
       id="path4487"
       style="fill:#000000;stroke:none"
       sodipodi:cx="200"
       sodipodi:cy="580"
       sodipodi:rx="1.5"
       sodipodi:ry="1.5"
       d="m 201.5,580 c 0,0.82843 -0.67157,1.5 -1.5,1.5 -0.82843,0 -1.5,-0.67157 -1.5,-1.5 0,-0.82843 0.67157,-1.5 1.5,-1.5 0.82843,0 1.5,0.67157 1.5,1.5 z" />
    <path
       sodipodi:type="arc"
       id="path4489"
       style="fill:#000000;stroke:none"
       sodipodi:cx="180"
       sodipodi:cy="580"
       sodipodi:rx="1.5"
       sodipodi:ry="1.5"
       d="m 181.5,580 c 0,0.82843 -0.67157,1.5 -1.5,1.5 -0.82843,0 -1.5,-0.67157 -1.5,-1.5 0,-0.82843 0.67157,-1.5 1.5,-1.5 0.82843,0 1.5,0.67157 1.5,1.5 z" />
    <path
       sodipodi:type="arc"
       id="path4491"
       style="fill:#000000;stroke:none"
       sodipodi:cx="160"
       sodipodi:cy="580"
       sodipodi:rx="1.5"
       sodipodi:ry="1.5"
       d="m 161.5,580 c 0,0.82843 -0.67157,1.5 -1.5,1.5 -0.82843,0 -1.5,-0.67157 -1.5,-1.5 0,-0.82843 0.67157,-1.5 1.5,-1.5 0.82843,0 1.5,0.67157 1.5,1.5 z" />
    <path
       sodipodi:type="arc"
       id="path4493"
       style="fill:#000000;stroke:none"
       sodipodi:cx="140"
       sodipodi:cy="580"
       sodipodi:rx="1.5"
       sodipodi:ry="1.5"
       d="m 141.5,580 c 0,0.82843 -0.67157,1.5 -1.5,1.5 -0.82843,0 -1.5,-0.67157 -1.5,-1.5 0,-0.82843 0.67157,-1.5 1.5,-1.5 0.82843,0 1.5,0.67157 1.5,1.5 z" />
    <path
       sodipodi:type="arc"
       id="path4495"
       style="fill:#000000;stroke:none"
       sodipodi:cx="120"
       sodipodi:cy="580"
       sodipodi:rx="1.5"
       sodipodi:ry="1.5"
       d="m 121.5,580 c 0,0.82843 -0.67157,1.5 -1.5,1.5 -0.82843,0 -1.5,-0.67157 -1.5,-1.5 0,-0.82843 0.67157,-1.5 1.5,-1.5 0.82843,0 1.5,0.67157 1.5,1.5 z" />
    <path
       d="m 101.5,660 c 0,0.82843 -0.67157,1.5 -1.5,1.5 -0.828427,0 -1.5,-0.67157 -1.5,-1.5 0,-0.82843 0.671573,-1.5 1.5,-1.5 0.82843,0 1.5,0.67157 1.5,1.5 z"
       sodipodi:ry="1.5"
       sodipodi:rx="1.5"
       sodipodi:cy="660"
       sodipodi:cx="100"
       style="fill:#000000;stroke:none"
       id="path4612"
       sodipodi:type="arc"
       transform="translate(0,-98.13782)" />
    <path
       d="m 121.5,660 c 0,0.82843 -0.67157,1.5 -1.5,1.5 -0.82843,0 -1.5,-0.67157 -1.5,-1.5 0,-0.82843 0.67157,-1.5 1.5,-1.5 0.82843,0 1.5,0.67157 1.5,1.5 z"
       sodipodi:ry="1.5"
       sodipodi:rx="1.5"
       sodipodi:cy="660"
       sodipodi:cx="120"
       style="fill:#000000;stroke:none"
       id="path4614"
       sodipodi:type="arc"
       transform="translate(0,-98.13782)" />
    <path
       d="m 141.5,660 c 0,0.82843 -0.67157,1.5 -1.5,1.5 -0.82843,0 -1.5,-0.67157 -1.5,-1.5 0,-0.82843 0.67157,-1.5 1.5,-1.5 0.82843,0 1.5,0.67157 1.5,1.5 z"
       sodipodi:ry="1.5"
       sodipodi:rx="1.5"
       sodipodi:cy="660"
       sodipodi:cx="140"
       style="fill:#000000;stroke:none"
       id="path4616"
       sodipodi:type="arc"
       transform="translate(0,-98.13782)" />
    <path
       d="m 161.5,660 c 0,0.82843 -0.67157,1.5 -1.5,1.5 -0.82843,0 -1.5,-0.67157 -1.5,-1.5 0,-0.82843 0.67157,-1.5 1.5,-1.5 0.82843,0 1.5,0.67157 1.5,1.5 z"
       sodipodi:ry="1.5"
       sodipodi:rx="1.5"
       sodipodi:cy="660"
       sodipodi:cx="160"
       style="fill:#000000;stroke:none"
       id="path4618"
       sodipodi:type="arc"
       transform="translate(0,-98.13782)" />
    <path
       d="m 181.5,660 c 0,0.82843 -0.67157,1.5 -1.5,1.5 -0.82843,0 -1.5,-0.67157 -1.5,-1.5 0,-0.82843 0.67157,-1.5 1.5,-1.5 0.82843,0 1.5,0.67157 1.5,1.5 z"
       sodipodi:ry="1.5"
       sodipodi:rx="1.5"
       sodipodi:cy="660"
       sodipodi:cx="180"
       style="fill:#000000;stroke:none"
       id="path4620"
       sodipodi:type="arc"
       transform="translate(0,-98.13782)" />
    <path
       d="m 101.5,640 c 0,0.82843 -0.67157,1.5 -1.5,1.5 -0.828427,0 -1.5,-0.67157 -1.5,-1.5 0,-0.82843 0.671573,-1.5 1.5,-1.5 0.82843,0 1.5,0.67157 1.5,1.5 z"
       sodipodi:ry="1.5"
       sodipodi:rx="1.5"
       sodipodi:cy="640"
       sodipodi:cx="100"
       style="fill:#000000;stroke:none"
       id="path4622"
       sodipodi:type="arc"
       transform="translate(0,-98.13782)" />
    <path
       d="m 121.5,640 c 0,0.82843 -0.67157,1.5 -1.5,1.5 -0.82843,0 -1.5,-0.67157 -1.5,-1.5 0,-0.82843 0.67157,-1.5 1.5,-1.5 0.82843,0 1.5,0.67157 1.5,1.5 z"
       sodipodi:ry="1.5"
       sodipodi:rx="1.5"
       sodipodi:cy="640"
       sodipodi:cx="120"
       style="fill:#000000;stroke:none"
       id="path4624"
       sodipodi:type="arc"
       transform="translate(0,-98.13782)" />
    <path
       d="m 141.5,640 c 0,0.82843 -0.67157,1.5 -1.5,1.5 -0.82843,0 -1.5,-0.67157 -1.5,-1.5 0,-0.82843 0.67157,-1.5 1.5,-1.5 0.82843,0 1.5,0.67157 1.5,1.5 z"
       sodipodi:ry="1.5"
       sodipodi:rx="1.5"
       sodipodi:cy="640"
       sodipodi:cx="140"
       style="fill:#000000;stroke:none"
       id="path4626"
       sodipodi:type="arc"
       transform="translate(0,-98.13782)" />
    <path
       d="m 161.5,640 c 0,0.82843 -0.67157,1.5 -1.5,1.5 -0.82843,0 -1.5,-0.67157 -1.5,-1.5 0,-0.82843 0.67157,-1.5 1.5,-1.5 0.82843,0 1.5,0.67157 1.5,1.5 z"
       sodipodi:ry="1.5"
       sodipodi:rx="1.5"
       sodipodi:cy="640"
       sodipodi:cx="160"
       style="fill:#000000;stroke:none"
       id="path4628"
       sodipodi:type="arc"
       transform="translate(0,-98.13782)" />
    <path
       d="m 181.5,640 c 0,0.82843 -0.67157,1.5 -1.5,1.5 -0.82843,0 -1.5,-0.67157 -1.5,-1.5 0,-0.82843 0.67157,-1.5 1.5,-1.5 0.82843,0 1.5,0.67157 1.5,1.5 z"
       sodipodi:ry="1.5"
       sodipodi:rx="1.5"
       sodipodi:cy="640"
       sodipodi:cx="180"
       style="fill:#000000;stroke:none"
       id="path4630"
       sodipodi:type="arc"
       transform="translate(0,-98.13782)" />
    <path
       d="m 201.5,640 c 0,0.82843 -0.67157,1.5 -1.5,1.5 -0.82843,0 -1.5,-0.67157 -1.5,-1.5 0,-0.82843 0.67157,-1.5 1.5,-1.5 0.82843,0 1.5,0.67157 1.5,1.5 z"
       sodipodi:ry="1.5"
       sodipodi:rx="1.5"
       sodipodi:cy="640"
       sodipodi:cx="200"
       style="fill:#000000;stroke:none"
       id="path4632"
       sodipodi:type="arc"
       transform="translate(0,-98.13782)" />
    <path
       d="m 221.5,640 c 0,0.82843 -0.67157,1.5 -1.5,1.5 -0.82843,0 -1.5,-0.67157 -1.5,-1.5 0,-0.82843 0.67157,-1.5 1.5,-1.5 0.82843,0 1.5,0.67157 1.5,1.5 z"
       sodipodi:ry="1.5"
       sodipodi:rx="1.5"
       sodipodi:cy="640"
       sodipodi:cx="220"
       style="fill:#000000;stroke:none"
       id="path4634"
       sodipodi:type="arc"
       transform="translate(0,-98.13782)" />
    <path
       d="m 241.5,640 c 0,0.82843 -0.67157,1.5 -1.5,1.5 -0.82843,0 -1.5,-0.67157 -1.5,-1.5 0,-0.82843 0.67157,-1.5 1.5,-1.5 0.82843,0 1.5,0.67157 1.5,1.5 z"
       sodipodi:ry="1.5"
       sodipodi:rx="1.5"
       sodipodi:cy="640"
       sodipodi:cx="240"
       style="fill:#000000;stroke:none"
       id="path4636"
       sodipodi:type="arc"
       transform="translate(0,-98.13782)" />
    <path
       d="m 261.5,640 c 0,0.82843 -0.67157,1.5 -1.5,1.5 -0.82843,0 -1.5,-0.67157 -1.5,-1.5 0,-0.82843 0.67157,-1.5 1.5,-1.5 0.82843,0 1.5,0.67157 1.5,1.5 z"
       sodipodi:ry="1.5"
       sodipodi:rx="1.5"
       sodipodi:cy="640"
       sodipodi:cx="260"
       style="fill:#000000;stroke:none"
       id="path4638"
       sodipodi:type="arc"
       transform="translate(0,-98.13782)" />
    <path
       d="m 261.5,620 c 0,0.82843 -0.67157,1.5 -1.5,1.5 -0.82843,0 -1.5,-0.67157 -1.5,-1.5 0,-0.82843 0.67157,-1.5 1.5,-1.5 0.82843,0 1.5,0.67157 1.5,1.5 z"
       sodipodi:ry="1.5"
       sodipodi:rx="1.5"
       sodipodi:cy="620"
       sodipodi:cx="260"
       style="fill:#000000;stroke:none"
       id="path4640"
       sodipodi:type="arc"
       transform="translate(0,-98.13782)" />
    <path
       d="m 241.5,620 c 0,0.82843 -0.67157,1.5 -1.5,1.5 -0.82843,0 -1.5,-0.67157 -1.5,-1.5 0,-0.82843 0.67157,-1.5 1.5,-1.5 0.82843,0 1.5,0.67157 1.5,1.5 z"
       sodipodi:ry="1.5"
       sodipodi:rx="1.5"
       sodipodi:cy="620"
       sodipodi:cx="240"
       style="fill:#000000;stroke:none"
       id="path4642"
       sodipodi:type="arc"
       transform="translate(0,-98.13782)" />
    <path
       d="m 221.5,620 c 0,0.82843 -0.67157,1.5 -1.5,1.5 -0.82843,0 -1.5,-0.67157 -1.5,-1.5 0,-0.82843 0.67157,-1.5 1.5,-1.5 0.82843,0 1.5,0.67157 1.5,1.5 z"
       sodipodi:ry="1.5"
       sodipodi:rx="1.5"
       sodipodi:cy="620"
       sodipodi:cx="220"
       style="fill:#000000;stroke:none"
       id="path4644"
       sodipodi:type="arc"
       transform="translate(0,-98.13782)" />
    <path
       d="m 201.5,620 c 0,0.82843 -0.67157,1.5 -1.5,1.5 -0.82843,0 -1.5,-0.67157 -1.5,-1.5 0,-0.82843 0.67157,-1.5 1.5,-1.5 0.82843,0 1.5,0.67157 1.5,1.5 z"
       sodipodi:ry="1.5"
       sodipodi:rx="1.5"
       sodipodi:cy="620"
       sodipodi:cx="200"
       style="fill:#000000;stroke:none"
       id="path4646"
       sodipodi:type="arc"
       transform="translate(0,-98.13782)" />
    <path
       d="m 181.5,620 c 0,0.82843 -0.67157,1.5 -1.5,1.5 -0.82843,0 -1.5,-0.67157 -1.5,-1.5 0,-0.82843 0.67157,-1.5 1.5,-1.5 0.82843,0 1.5,0.67157 1.5,1.5 z"
       sodipodi:ry="1.5"
       sodipodi:rx="1.5"
       sodipodi:cy="620"
       sodipodi:cx="180"
       style="fill:#000000;stroke:none"
       id="path4648"
       sodipodi:type="arc"
       transform="translate(0,-98.13782)" />
    <path
       d="m 161.5,620 c 0,0.82843 -0.67157,1.5 -1.5,1.5 -0.82843,0 -1.5,-0.67157 -1.5,-1.5 0,-0.82843 0.67157,-1.5 1.5,-1.5 0.82843,0 1.5,0.67157 1.5,1.5 z"
       sodipodi:ry="1.5"
       sodipodi:rx="1.5"
       sodipodi:cy="620"
       sodipodi:cx="160"
       style="fill:#000000;stroke:none"
       id="path4650"
       sodipodi:type="arc"
       transform="translate(0,-98.13782)" />
    <path
       d="m 141.5,620 c 0,0.82843 -0.67157,1.5 -1.5,1.5 -0.82843,0 -1.5,-0.67157 -1.5,-1.5 0,-0.82843 0.67157,-1.5 1.5,-1.5 0.82843,0 1.5,0.67157 1.5,1.5 z"
       sodipodi:ry="1.5"
       sodipodi:rx="1.5"
       sodipodi:cy="620"
       sodipodi:cx="140"
       style="fill:#000000;stroke:none"
       id="path4652"
       sodipodi:type="arc"
       transform="translate(0,-98.13782)" />
    <path
       d="m 121.5,620 c 0,0.82843 -0.67157,1.5 -1.5,1.5 -0.82843,0 -1.5,-0.67157 -1.5,-1.5 0,-0.82843 0.67157,-1.5 1.5,-1.5 0.82843,0 1.5,0.67157 1.5,1.5 z"
       sodipodi:ry="1.5"
       sodipodi:rx="1.5"
       sodipodi:cy="620"
       sodipodi:cx="120"
       style="fill:#000000;stroke:none"
       id="path4654"
       sodipodi:type="arc"
       transform="translate(0,-98.13782)" />
    <path
       d="m 101.5,620 c 0,0.82843 -0.67157,1.5 -1.5,1.5 -0.828427,0 -1.5,-0.67157 -1.5,-1.5 0,-0.82843 0.671573,-1.5 1.5,-1.5 0.82843,0 1.5,0.67157 1.5,1.5 z"
       sodipodi:ry="1.5"
       sodipodi:rx="1.5"
       sodipodi:cy="620"
       sodipodi:cx="100"
       style="fill:#000000;stroke:none"
       id="path4656"
       sodipodi:type="arc"
       transform="translate(0,-98.13782)" />
    <path
       d="m 101.5,600 c 0,0.82843 -0.67157,1.5 -1.5,1.5 -0.828427,0 -1.5,-0.67157 -1.5,-1.5 0,-0.82843 0.671573,-1.5 1.5,-1.5 0.82843,0 1.5,0.67157 1.5,1.5 z"
       sodipodi:ry="1.5"
       sodipodi:rx="1.5"
       sodipodi:cy="600"
       sodipodi:cx="100"
       style="fill:#000000;stroke:none"
       id="path4658"
       sodipodi:type="arc"
       transform="translate(0,-98.13782)" />
    <path
       d="m 121.5,600 c 0,0.82843 -0.67157,1.5 -1.5,1.5 -0.82843,0 -1.5,-0.67157 -1.5,-1.5 0,-0.82843 0.67157,-1.5 1.5,-1.5 0.82843,0 1.5,0.67157 1.5,1.5 z"
       sodipodi:ry="1.5"
       sodipodi:rx="1.5"
       sodipodi:cy="600"
       sodipodi:cx="120"
       style="fill:#000000;stroke:none"
       id="path4660"
       sodipodi:type="arc"
       transform="translate(0,-98.13782)" />
    <path
       d="m 141.5,600 c 0,0.82843 -0.67157,1.5 -1.5,1.5 -0.82843,0 -1.5,-0.67157 -1.5,-1.5 0,-0.82843 0.67157,-1.5 1.5,-1.5 0.82843,0 1.5,0.67157 1.5,1.5 z"
       sodipodi:ry="1.5"
       sodipodi:rx="1.5"
       sodipodi:cy="600"
       sodipodi:cx="140"
       style="fill:#000000;stroke:none"
       id="path4662"
       sodipodi:type="arc"
       transform="translate(0,-98.13782)" />
    <path
       d="m 161.5,600 c 0,0.82843 -0.67157,1.5 -1.5,1.5 -0.82843,0 -1.5,-0.67157 -1.5,-1.5 0,-0.82843 0.67157,-1.5 1.5,-1.5 0.82843,0 1.5,0.67157 1.5,1.5 z"
       sodipodi:ry="1.5"
       sodipodi:rx="1.5"
       sodipodi:cy="600"
       sodipodi:cx="160"
       style="fill:#000000;stroke:none"
       id="path4664"
       sodipodi:type="arc"
       transform="translate(0,-98.13782)" />
    <path
       d="m 181.5,600 c 0,0.82843 -0.67157,1.5 -1.5,1.5 -0.82843,0 -1.5,-0.67157 -1.5,-1.5 0,-0.82843 0.67157,-1.5 1.5,-1.5 0.82843,0 1.5,0.67157 1.5,1.5 z"
       sodipodi:ry="1.5"
       sodipodi:rx="1.5"
       sodipodi:cy="600"
       sodipodi:cx="180"
       style="fill:#000000;stroke:none"
       id="path4666"
       sodipodi:type="arc"
       transform="translate(0,-98.13782)" />
    <path
       d="m 201.5,600 c 0,0.82843 -0.67157,1.5 -1.5,1.5 -0.82843,0 -1.5,-0.67157 -1.5,-1.5 0,-0.82843 0.67157,-1.5 1.5,-1.5 0.82843,0 1.5,0.67157 1.5,1.5 z"
       sodipodi:ry="1.5"
       sodipodi:rx="1.5"
       sodipodi:cy="600"
       sodipodi:cx="200"
       style="fill:#000000;stroke:none"
       id="path4668"
       sodipodi:type="arc"
       transform="translate(0,-98.13782)" />
    <path
       d="m 221.5,600 c 0,0.82843 -0.67157,1.5 -1.5,1.5 -0.82843,0 -1.5,-0.67157 -1.5,-1.5 0,-0.82843 0.67157,-1.5 1.5,-1.5 0.82843,0 1.5,0.67157 1.5,1.5 z"
       sodipodi:ry="1.5"
       sodipodi:rx="1.5"
       sodipodi:cy="600"
       sodipodi:cx="220"
       style="fill:#000000;stroke:none"
       id="path4670"
       sodipodi:type="arc"
       transform="translate(0,-98.13782)" />
    <path
       d="m 241.5,600 c 0,0.82843 -0.67157,1.5 -1.5,1.5 -0.82843,0 -1.5,-0.67157 -1.5,-1.5 0,-0.82843 0.67157,-1.5 1.5,-1.5 0.82843,0 1.5,0.67157 1.5,1.5 z"
       sodipodi:ry="1.5"
       sodipodi:rx="1.5"
       sodipodi:cy="600"
       sodipodi:cx="240"
       style="fill:#000000;stroke:none"
       id="path4672"
       sodipodi:type="arc"
       transform="translate(0,-98.13782)" />
    <path
       d="m 261.5,600 c 0,0.82843 -0.67157,1.5 -1.5,1.5 -0.82843,0 -1.5,-0.67157 -1.5,-1.5 0,-0.82843 0.67157,-1.5 1.5,-1.5 0.82843,0 1.5,0.67157 1.5,1.5 z"
       sodipodi:ry="1.5"
       sodipodi:rx="1.5"
       sodipodi:cy="600"
       sodipodi:cx="260"
       style="fill:#000000;stroke:none"
       id="path4674"
       sodipodi:type="arc"
       transform="translate(0,-98.13782)" />
    <path
       d="m 261.5,580 c 0,0.82843 -0.67157,1.5 -1.5,1.5 -0.82843,0 -1.5,-0.67157 -1.5,-1.5 0,-0.82843 0.67157,-1.5 1.5,-1.5 0.82843,0 1.5,0.67157 1.5,1.5 z"
       sodipodi:ry="1.5"
       sodipodi:rx="1.5"
       sodipodi:cy="580"
       sodipodi:cx="260"
       style="fill:#000000;stroke:none"
       id="path4676"
       sodipodi:type="arc"
       transform="translate(0,-98.13782)" />
    <path
       d="m 241.5,580 c 0,0.82843 -0.67157,1.5 -1.5,1.5 -0.82843,0 -1.5,-0.67157 -1.5,-1.5 0,-0.82843 0.67157,-1.5 1.5,-1.5 0.82843,0 1.5,0.67157 1.5,1.5 z"
       sodipodi:ry="1.5"
       sodipodi:rx="1.5"
       sodipodi:cy="580"
       sodipodi:cx="240"
       style="fill:#000000;stroke:none"
       id="path4678"
       sodipodi:type="arc"
       transform="translate(0,-98.13782)" />
    <path
       d="m 221.5,580 c 0,0.82843 -0.67157,1.5 -1.5,1.5 -0.82843,0 -1.5,-0.67157 -1.5,-1.5 0,-0.82843 0.67157,-1.5 1.5,-1.5 0.82843,0 1.5,0.67157 1.5,1.5 z"
       sodipodi:ry="1.5"
       sodipodi:rx="1.5"
       sodipodi:cy="580"
       sodipodi:cx="220"
       style="fill:#000000;stroke:none"
       id="path4680"
       sodipodi:type="arc"
       transform="translate(0,-98.13782)" />
    <path
       d="m 201.5,580 c 0,0.82843 -0.67157,1.5 -1.5,1.5 -0.82843,0 -1.5,-0.67157 -1.5,-1.5 0,-0.82843 0.67157,-1.5 1.5,-1.5 0.82843,0 1.5,0.67157 1.5,1.5 z"
       sodipodi:ry="1.5"
       sodipodi:rx="1.5"
       sodipodi:cy="580"
       sodipodi:cx="200"
       style="fill:#000000;stroke:none"
       id="path4682"
       sodipodi:type="arc"
       transform="translate(0,-98.13782)" />
    <path
       d="m 181.5,580 c 0,0.82843 -0.67157,1.5 -1.5,1.5 -0.82843,0 -1.5,-0.67157 -1.5,-1.5 0,-0.82843 0.67157,-1.5 1.5,-1.5 0.82843,0 1.5,0.67157 1.5,1.5 z"
       sodipodi:ry="1.5"
       sodipodi:rx="1.5"
       sodipodi:cy="580"
       sodipodi:cx="180"
       style="fill:#000000;stroke:none"
       id="path4684"
       sodipodi:type="arc"
       transform="translate(0,-98.13782)" />
    <path
       d="m 161.5,580 c 0,0.82843 -0.67157,1.5 -1.5,1.5 -0.82843,0 -1.5,-0.67157 -1.5,-1.5 0,-0.82843 0.67157,-1.5 1.5,-1.5 0.82843,0 1.5,0.67157 1.5,1.5 z"
       sodipodi:ry="1.5"
       sodipodi:rx="1.5"
       sodipodi:cy="580"
       sodipodi:cx="160"
       style="fill:#000000;stroke:none"
       id="path4686"
       sodipodi:type="arc"
       transform="translate(0,-98.13782)" />
    <path
       d="m 141.5,580 c 0,0.82843 -0.67157,1.5 -1.5,1.5 -0.82843,0 -1.5,-0.67157 -1.5,-1.5 0,-0.82843 0.67157,-1.5 1.5,-1.5 0.82843,0 1.5,0.67157 1.5,1.5 z"
       sodipodi:ry="1.5"
       sodipodi:rx="1.5"
       sodipodi:cy="580"
       sodipodi:cx="140"
       style="fill:#000000;stroke:none"
       id="path4688"
       sodipodi:type="arc"
       transform="translate(0,-98.13782)" />
    <path
       d="m 121.5,580 c 0,0.82843 -0.67157,1.5 -1.5,1.5 -0.82843,0 -1.5,-0.67157 -1.5,-1.5 0,-0.82843 0.67157,-1.5 1.5,-1.5 0.82843,0 1.5,0.67157 1.5,1.5 z"
       sodipodi:ry="1.5"
       sodipodi:rx="1.5"
       sodipodi:cy="580"
       sodipodi:cx="120"
       style="fill:#000000;stroke:none"
       id="path4690"
       sodipodi:type="arc"
       transform="translate(0,-98.13782)" />
    <path
       transform="matrix(1,0,0,-1,90,1220.8622)"
       d="m 111.5,660 c 0,0.82843 -0.67157,1.5 -1.5,1.5 -0.82843,0 -1.5,-0.67157 -1.5,-1.5 0,-0.82843 0.67157,-1.5 1.5,-1.5 0.82843,0 1.5,0.67157 1.5,1.5 z"
       sodipodi:ry="1.5"
       sodipodi:rx="1.5"
       sodipodi:cy="660"
       sodipodi:cx="110"
       style="fill:#000000;stroke:none"
       id="path4692"
       sodipodi:type="arc" />
    <path
       transform="matrix(1,0,0,-1,90,1220.8622)"
       d="m 131.5,660 c 0,0.82843 -0.67157,1.5 -1.5,1.5 -0.82843,0 -1.5,-0.67157 -1.5,-1.5 0,-0.82843 0.67157,-1.5 1.5,-1.5 0.82843,0 1.5,0.67157 1.5,1.5 z"
       sodipodi:ry="1.5"
       sodipodi:rx="1.5"
       sodipodi:cy="660"
       sodipodi:cx="130"
       style="fill:#000000;stroke:none"
       id="path4694"
       sodipodi:type="arc" />
    <path
       transform="matrix(1,0,0,-1,90,1220.8622)"
       d="m 151.5,660 c 0,0.82843 -0.67157,1.5 -1.5,1.5 -0.82843,0 -1.5,-0.67157 -1.5,-1.5 0,-0.82843 0.67157,-1.5 1.5,-1.5 0.82843,0 1.5,0.67157 1.5,1.5 z"
       sodipodi:ry="1.5"
       sodipodi:rx="1.5"
       sodipodi:cy="660"
       sodipodi:cx="150"
       style="fill:#000000;stroke:none"
       id="path4696"
       sodipodi:type="arc" />
    <path
       transform="matrix(1,0,0,-1,90,1220.8622)"
       d="m 171.5,660 c 0,0.82843 -0.67157,1.5 -1.5,1.5 -0.82843,0 -1.5,-0.67157 -1.5,-1.5 0,-0.82843 0.67157,-1.5 1.5,-1.5 0.82843,0 1.5,0.67157 1.5,1.5 z"
       sodipodi:ry="1.5"
       sodipodi:rx="1.5"
       sodipodi:cy="660"
       sodipodi:cx="170"
       style="fill:#000000;stroke:none"
       id="path4698"
       sodipodi:type="arc" />
    <path
       d="m 121.5,580 c 0,0.82843 -0.67157,1.5 -1.5,1.5 -0.82843,0 -1.5,-0.67157 -1.5,-1.5 0,-0.82843 0.67157,-1.5 1.5,-1.5 0.82843,0 1.5,0.67157 1.5,1.5 z"
       sodipodi:ry="1.5"
       sodipodi:rx="1.5"
       sodipodi:cy="580"
       sodipodi:cx="120"
       style="fill:#000000;stroke:none"
       id="path4700"
       sodipodi:type="arc"
       transform="translate(-20,0)" />
  </g>
</svg>
