<?xml version="1.0" encoding="UTF-8" standalone="no"?>
<!-- Created with Inkscape (http://www.inkscape.org/) -->

<svg
   xmlns:dc="http://purl.org/dc/elements/1.1/"
   xmlns:cc="http://creativecommons.org/ns#"
   xmlns:rdf="http://www.w3.org/1999/02/22-rdf-syntax-ns#"
   xmlns:svg="http://www.w3.org/2000/svg"
   xmlns="http://www.w3.org/2000/svg"
   xmlns:xlink="http://www.w3.org/1999/xlink"
   xmlns:sodipodi="http://sodipodi.sourceforge.net/DTD/sodipodi-0.dtd"
   xmlns:inkscape="http://www.inkscape.org/namespaces/inkscape"
   width="760"
   height="525"
   id="svg2"
   version="1.1"
   inkscape:version="0.47+devel r9327"
   sodipodi:docname="motzkin.svg">
  <defs
     id="defs4">
    <linearGradient
       id="linearGradient4206">
      <stop
         style="stop-color:#0022fa;stop-opacity:1;"
         offset="0"
         id="stop4208" />
      <stop
         style="stop-color:#ffffff;stop-opacity:1;"
         offset="1"
         id="stop4210" />
    </linearGradient>
    <linearGradient
       inkscape:collect="always"
       id="linearGradient5447">
      <stop
         style="stop-color:#00ff00;stop-opacity:1;"
         offset="0"
         id="stop5449" />
      <stop
         style="stop-color:#00ff00;stop-opacity:0;"
         offset="1"
         id="stop5451" />
    </linearGradient>
    <linearGradient
       inkscape:collect="always"
       id="linearGradient5427">
      <stop
         style="stop-color:#00ff00;stop-opacity:1;"
         offset="0"
         id="stop5429" />
      <stop
         style="stop-color:#00ff00;stop-opacity:0;"
         offset="1"
         id="stop5431" />
    </linearGradient>
    <marker
       inkscape:stockid="Arrow1Mstart"
       orient="auto"
       refY="0"
       refX="0"
       id="Arrow1Mstart"
       style="overflow:visible">
      <path
         id="path3858"
         d="M 0,0 5,-5 -12.5,0 5,5 0,0 z"
         style="fill-rule:evenodd;stroke:#000000;stroke-width:1pt;marker-start:none"
         transform="matrix(0.4,0,0,0.4,4,0)" />
    </marker>
    <marker
       inkscape:stockid="Arrow1Mend"
       orient="auto"
       refY="0"
       refX="0"
       id="Arrow1Mend"
       style="overflow:visible">
      <path
         id="path3861"
         d="M 0,0 5,-5 -12.5,0 5,5 0,0 z"
         style="fill-rule:evenodd;stroke:#000000;stroke-width:1pt;marker-start:none"
         transform="matrix(-0.4,0,0,-0.4,-4,0)" />
    </marker>
    <marker
       inkscape:stockid="Arrow1Lend"
       orient="auto"
       refY="0"
       refX="0"
       id="Arrow1Lend"
       style="overflow:visible">
      <path
         id="path3855"
         d="M 0,0 5,-5 -12.5,0 5,5 0,0 z"
         style="fill-rule:evenodd;stroke:#000000;stroke-width:1pt;marker-start:none"
         transform="matrix(-0.8,0,0,-0.8,-10,0)" />
    </marker>
    <inkscape:perspective
       sodipodi:type="inkscape:persp3d"
       inkscape:vp_x="0 : 526.18109 : 1"
       inkscape:vp_y="0 : 1000 : 0"
       inkscape:vp_z="744.09448 : 526.18109 : 1"
       inkscape:persp3d-origin="372.04724 : 350.78739 : 1"
       id="perspective10" />
    <inkscape:perspective
       id="perspective2901"
       inkscape:persp3d-origin="0.5 : 0.33333333 : 1"
       inkscape:vp_z="1 : 0.5 : 1"
       inkscape:vp_y="0 : 1000 : 0"
       inkscape:vp_x="0 : 0.5 : 1"
       sodipodi:type="inkscape:persp3d" />
    <inkscape:perspective
       id="perspective2901-0"
       inkscape:persp3d-origin="0.5 : 0.33333333 : 1"
       inkscape:vp_z="1 : 0.5 : 1"
       inkscape:vp_y="0 : 1000 : 0"
       inkscape:vp_x="0 : 0.5 : 1"
       sodipodi:type="inkscape:persp3d" />
    <inkscape:perspective
       id="perspective2901-9"
       inkscape:persp3d-origin="0.5 : 0.33333333 : 1"
       inkscape:vp_z="1 : 0.5 : 1"
       inkscape:vp_y="0 : 1000 : 0"
       inkscape:vp_x="0 : 0.5 : 1"
       sodipodi:type="inkscape:persp3d" />
    <inkscape:perspective
       id="perspective2901-7"
       inkscape:persp3d-origin="0.5 : 0.33333333 : 1"
       inkscape:vp_z="1 : 0.5 : 1"
       inkscape:vp_y="0 : 1000 : 0"
       inkscape:vp_x="0 : 0.5 : 1"
       sodipodi:type="inkscape:persp3d" />
    <inkscape:perspective
       id="perspective2901-97"
       inkscape:persp3d-origin="0.5 : 0.33333333 : 1"
       inkscape:vp_z="1 : 0.5 : 1"
       inkscape:vp_y="0 : 1000 : 0"
       inkscape:vp_x="0 : 0.5 : 1"
       sodipodi:type="inkscape:persp3d" />
    <inkscape:perspective
       id="perspective2901-2"
       inkscape:persp3d-origin="0.5 : 0.33333333 : 1"
       inkscape:vp_z="1 : 0.5 : 1"
       inkscape:vp_y="0 : 1000 : 0"
       inkscape:vp_x="0 : 0.5 : 1"
       sodipodi:type="inkscape:persp3d" />
    <inkscape:perspective
       id="perspective2901-5"
       inkscape:persp3d-origin="0.5 : 0.33333333 : 1"
       inkscape:vp_z="1 : 0.5 : 1"
       inkscape:vp_y="0 : 1000 : 0"
       inkscape:vp_x="0 : 0.5 : 1"
       sodipodi:type="inkscape:persp3d" />
    <inkscape:perspective
       id="perspective2979"
       inkscape:persp3d-origin="0.5 : 0.33333333 : 1"
       inkscape:vp_z="1 : 0.5 : 1"
       inkscape:vp_y="0 : 1000 : 0"
       inkscape:vp_x="0 : 0.5 : 1"
       sodipodi:type="inkscape:persp3d" />
    <inkscape:perspective
       id="perspective2979-0"
       inkscape:persp3d-origin="0.5 : 0.33333333 : 1"
       inkscape:vp_z="1 : 0.5 : 1"
       inkscape:vp_y="0 : 1000 : 0"
       inkscape:vp_x="0 : 0.5 : 1"
       sodipodi:type="inkscape:persp3d" />
    <inkscape:perspective
       id="perspective2979-5"
       inkscape:persp3d-origin="0.5 : 0.33333333 : 1"
       inkscape:vp_z="1 : 0.5 : 1"
       inkscape:vp_y="0 : 1000 : 0"
       inkscape:vp_x="0 : 0.5 : 1"
       sodipodi:type="inkscape:persp3d" />
    <inkscape:perspective
       id="perspective2979-9"
       inkscape:persp3d-origin="0.5 : 0.33333333 : 1"
       inkscape:vp_z="1 : 0.5 : 1"
       inkscape:vp_y="0 : 1000 : 0"
       inkscape:vp_x="0 : 0.5 : 1"
       sodipodi:type="inkscape:persp3d" />
    <inkscape:perspective
       id="perspective2979-1"
       inkscape:persp3d-origin="0.5 : 0.33333333 : 1"
       inkscape:vp_z="1 : 0.5 : 1"
       inkscape:vp_y="0 : 1000 : 0"
       inkscape:vp_x="0 : 0.5 : 1"
       sodipodi:type="inkscape:persp3d" />
    <inkscape:perspective
       id="perspective2979-12"
       inkscape:persp3d-origin="0.5 : 0.33333333 : 1"
       inkscape:vp_z="1 : 0.5 : 1"
       inkscape:vp_y="0 : 1000 : 0"
       inkscape:vp_x="0 : 0.5 : 1"
       sodipodi:type="inkscape:persp3d" />
    <inkscape:perspective
       id="perspective2979-8"
       inkscape:persp3d-origin="0.5 : 0.33333333 : 1"
       inkscape:vp_z="1 : 0.5 : 1"
       inkscape:vp_y="0 : 1000 : 0"
       inkscape:vp_x="0 : 0.5 : 1"
       sodipodi:type="inkscape:persp3d" />
    <inkscape:perspective
       id="perspective2979-92"
       inkscape:persp3d-origin="0.5 : 0.33333333 : 1"
       inkscape:vp_z="1 : 0.5 : 1"
       inkscape:vp_y="0 : 1000 : 0"
       inkscape:vp_x="0 : 0.5 : 1"
       sodipodi:type="inkscape:persp3d" />
    <linearGradient
       inkscape:collect="always"
       xlink:href="#linearGradient5427"
       id="linearGradient5433"
       x1="9.6062517"
       y1="842.36218"
       x2="572.57233"
       y2="842.36218"
       gradientUnits="userSpaceOnUse"
       gradientTransform="matrix(1.3443471,0,0,0.7341751,-279.29749,223.92083)" />
    <linearGradient
       inkscape:collect="always"
       xlink:href="#linearGradient5447"
       id="linearGradient5453"
       x1="160"
       y1="490"
       x2="597.79541"
       y2="49.999996"
       gradientUnits="userSpaceOnUse" />
    <inkscape:perspective
       id="perspective2979-91"
       inkscape:persp3d-origin="0.5 : 0.33333333 : 1"
       inkscape:vp_z="1 : 0.5 : 1"
       inkscape:vp_y="0 : 1000 : 0"
       inkscape:vp_x="0 : 0.5 : 1"
       sodipodi:type="inkscape:persp3d" />
    <inkscape:perspective
       id="perspective5499"
       inkscape:persp3d-origin="0.5 : 0.33333333 : 1"
       inkscape:vp_z="1 : 0.5 : 1"
       inkscape:vp_y="0 : 1000 : 0"
       inkscape:vp_x="0 : 0.5 : 1"
       sodipodi:type="inkscape:persp3d" />
    <inkscape:perspective
       id="perspective3237"
       inkscape:persp3d-origin="0.5 : 0.33333333 : 1"
       inkscape:vp_z="1 : 0.5 : 1"
       inkscape:vp_y="0 : 1000 : 0"
       inkscape:vp_x="0 : 0.5 : 1"
       sodipodi:type="inkscape:persp3d" />
    <inkscape:perspective
       id="perspective3237-4"
       inkscape:persp3d-origin="0.5 : 0.33333333 : 1"
       inkscape:vp_z="1 : 0.5 : 1"
       inkscape:vp_y="0 : 1000 : 0"
       inkscape:vp_x="0 : 0.5 : 1"
       sodipodi:type="inkscape:persp3d" />
    <inkscape:perspective
       id="perspective3237-6"
       inkscape:persp3d-origin="0.5 : 0.33333333 : 1"
       inkscape:vp_z="1 : 0.5 : 1"
       inkscape:vp_y="0 : 1000 : 0"
       inkscape:vp_x="0 : 0.5 : 1"
       sodipodi:type="inkscape:persp3d" />
    <inkscape:perspective
       id="perspective3237-5"
       inkscape:persp3d-origin="0.5 : 0.33333333 : 1"
       inkscape:vp_z="1 : 0.5 : 1"
       inkscape:vp_y="0 : 1000 : 0"
       inkscape:vp_x="0 : 0.5 : 1"
       sodipodi:type="inkscape:persp3d" />
    <inkscape:perspective
       id="perspective3237-9"
       inkscape:persp3d-origin="0.5 : 0.33333333 : 1"
       inkscape:vp_z="1 : 0.5 : 1"
       inkscape:vp_y="0 : 1000 : 0"
       inkscape:vp_x="0 : 0.5 : 1"
       sodipodi:type="inkscape:persp3d" />
    <inkscape:perspective
       id="perspective4298"
       inkscape:persp3d-origin="0.5 : 0.33333333 : 1"
       inkscape:vp_z="1 : 0.5 : 1"
       inkscape:vp_y="0 : 1000 : 0"
       inkscape:vp_x="0 : 0.5 : 1"
       sodipodi:type="inkscape:persp3d" />
    <linearGradient
       inkscape:collect="always"
       xlink:href="#linearGradient4206"
       id="linearGradient4212"
       x1="48.904095"
       y1="790.04039"
       x2="76.178211"
       y2="790.04039"
       gradientUnits="userSpaceOnUse" />
    <linearGradient
       inkscape:collect="always"
       xlink:href="#linearGradient4206"
       id="linearGradient4218"
       gradientUnits="userSpaceOnUse"
       x1="48.904095"
       y1="790.04039"
       x2="76.178211"
       y2="790.04039"
       gradientTransform="matrix(-1,0,0,0.67493965,358.90409,355.75788)" />
    <linearGradient
       inkscape:collect="always"
       xlink:href="#linearGradient4206"
       id="linearGradient4241"
       gradientUnits="userSpaceOnUse"
       gradientTransform="matrix(-1,0,0,0.93810496,278.62547,105.31201)"
       x1="48.904095"
       y1="790.04039"
       x2="76.178211"
       y2="790.04039" />
  </defs>
  <sodipodi:namedview
     id="base"
     pagecolor="#ffffff"
     bordercolor="#666666"
     borderopacity="1.0"
     inkscape:pageopacity="0.0"
     inkscape:pageshadow="2"
     inkscape:zoom="1.4"
     inkscape:cx="585.01336"
     inkscape:cy="169.13629"
     inkscape:document-units="px"
     inkscape:current-layer="layer1"
     showgrid="false"
     showguides="true"
     inkscape:guide-bbox="true"
     inkscape:window-width="1276"
     inkscape:window-height="756"
     inkscape:window-x="4"
     inkscape:window-y="0"
     inkscape:window-maximized="0"
     guidetolerance="10">
    <sodipodi:guide
       orientation="1,0"
       position="277.27367,459.31181"
       id="guide2816" />
    <sodipodi:guide
       orientation="1,0"
       position="316.17775,204.18096"
       id="guide2818" />
    <sodipodi:guide
       orientation="1,0"
       position="527.27367,447.88324"
       id="guide2820" />
    <sodipodi:guide
       orientation="1,0"
       position="377.27367,449.31181"
       id="guide2822" />
    <sodipodi:guide
       orientation="1,0"
       position="427.27367,459.31181"
       id="guide2824" />
    <sodipodi:guide
       orientation="1,0"
       position="477.27367,434.31181"
       id="guide2826" />
    <sodipodi:guide
       orientation="1,0"
       position="577.27367,347.16896"
       id="guide2828" />
    <sodipodi:guide
       orientation="1,0"
       position="627.27367,355.0261"
       id="guide2830" />
    <sodipodi:guide
       orientation="1,0"
       position="677.27367,285.74039"
       id="guide2832" />
    <sodipodi:guide
       orientation="0,1"
       position="42.273671,-59.973894"
       id="guide2834" />
    <sodipodi:guide
       orientation="0,1"
       position="164.41653,-9.9738937"
       id="guide2836" />
    <sodipodi:guide
       orientation="0,1"
       position="188.70224,40.026108"
       id="guide2838" />
    <sodipodi:guide
       orientation="0,1"
       position="170.8451,90.026108"
       id="guide2840" />
    <sodipodi:guide
       orientation="0,1"
       position="155.13081,140.0261"
       id="guide2842" />
    <sodipodi:guide
       orientation="0,1"
       position="487.85714,187.14286"
       id="guide2844" />
    <sodipodi:guide
       orientation="0,1"
       position="377.27367,240.0261"
       id="guide2846" />
    <sodipodi:guide
       orientation="0,1"
       position="457.27367,290.0261"
       id="guide2848" />
    <sodipodi:guide
       orientation="0,1"
       position="110.8451,340.0261"
       id="guide2850" />
    <sodipodi:guide
       orientation="0,1"
       position="354.41653,392.16896"
       id="guide2879" />
    <sodipodi:guide
       orientation="1,0"
       position="367.27367,428.59753"
       id="guide2883" />
    <sodipodi:guide
       orientation="1,0"
       position="387.85714,61.749459"
       id="guide2885" />
    <sodipodi:guide
       orientation="0,1"
       position="387.27367,130.0261"
       id="guide2887" />
    <sodipodi:guide
       orientation="0,1"
       position="223.70224,150.74039"
       id="guide2889" />
    <sodipodi:guide
       orientation="1,0"
       position="-24.405359,551.51986"
       id="guide3219" />
    <sodipodi:guide
       orientation="1,0"
       position="228.10172,220.18984"
       id="guide3221" />
    <sodipodi:guide
       orientation="1,0"
       position="177.59409,359.59089"
       id="guide3223" />
    <sodipodi:guide
       orientation="1,0"
       position="128.09661,376.76348"
       id="guide3225" />
    <sodipodi:guide
       orientation="1,0"
       position="77.588986,379.79394"
       id="guide3227" />
    <sodipodi:guide
       orientation="0,1"
       position="402.85811,439.39294"
       id="guide4271" />
    <sodipodi:guide
       orientation="1,0"
       position="343.45187,190.0261"
       id="guide4336" />
    <sodipodi:guide
       orientation="1,2.3607939e-08"
       position="496.99505,177.917"
       id="guide4338" />
    <sodipodi:guide
       orientation="0,1"
       position="277.27367,113.26723"
       id="guide4350" />
    <sodipodi:guide
       orientation="0,1"
       position="496.99505,61.749459"
       id="guide4352" />
    <sodipodi:guide
       orientation="0,1"
       position="387.27367,130.0261"
       id="guide4103" />
  </sodipodi:namedview>
  <metadata
     id="metadata7">
    <rdf:RDF>
      <cc:Work
         rdf:about="">
        <dc:format>image/svg+xml</dc:format>
        <dc:type
           rdf:resource="http://purl.org/dc/dcmitype/StillImage" />
        <dc:title></dc:title>
      </cc:Work>
    </rdf:RDF>
  </metadata>
  <g
     inkscape:label="Layer 1"
     inkscape:groupmode="layer"
     id="layer1"
     transform="translate(267.27367,-457.38827)">
    <path
       sodipodi:nodetypes="ccccc"
       inkscape:connector-curvature="0"
       id="use4029"
       d="m 310,842.36218 -27.27411,-10e-6 -10e-6,99.99997 27.27412,0 z"
       style="fill:url(#linearGradient4218);fill-opacity:1;fill-rule:evenodd;stroke:none" />
    <path
       style="fill:url(#linearGradient4212);fill-opacity:1;fill-rule:evenodd;stroke:none"
       d="m 48.904095,720.95972 27.274105,-12.14286 1.1e-5,160.3042 -27.274116,0 z"
       id="rect3231"
       inkscape:connector-curvature="0"
       sodipodi:nodetypes="ccccc" />
    <use
       x="0"
       y="0"
       xlink:href="#rect3231"
       id="use4027"
       transform="matrix(1,0,0,1.2195365,27.274105,-167.56266)"
       width="760"
       height="525" />
    <path
       style="fill:url(#linearGradient4241);fill-opacity:1;fill-rule:evenodd;stroke:none"
       d="m 229.72138,781.6479 -27.27411,-7.85715 -1e-5,146.84804 27.27412,0 z"
       id="use4177"
       inkscape:connector-curvature="0"
       sodipodi:nodetypes="ccccc" />
    <path
       style="fill:#00ff00;stroke:#000000;stroke-width:1.25;stroke-linecap:butt;stroke-linejoin:miter;stroke-miterlimit:4;stroke-opacity:1;stroke-dasharray:none;marker-start:url(#Arrow1Mstart);marker-end:none"
       d="m 110,462.12617 0,380.23601"
       id="path2877" />
    <path
       style="fill:url(#linearGradient5433);stroke:#000000;stroke-width:1.25;stroke-linecap:butt;stroke-linejoin:miter;stroke-miterlimit:4;stroke-opacity:1;stroke-dasharray:none;marker-start:url(#Arrow1Mstart);marker-end:url(#Arrow1Mend)"
       d="m -265.71117,842.36218 754.46919,0"
       id="path2881" />
    <path
       style="fill:none;stroke:#000000;stroke-width:1.25;stroke-linecap:butt;stroke-linejoin:miter;stroke-miterlimit:4;stroke-opacity:1;stroke-dasharray:none"
       d="m 160,852.36218 0,-20.71429"
       id="path2891-3" />
    <path
       style="fill:none;stroke:#000000;stroke-width:1.25;stroke-linecap:butt;stroke-linejoin:miter;stroke-miterlimit:4;stroke-opacity:1;stroke-dasharray:none"
       d="m 210,852.36218 0,-20.71429"
       id="path2891-2" />
    <path
       style="fill:none;stroke:#000000;stroke-width:1.25;stroke-linecap:butt;stroke-linejoin:miter;stroke-miterlimit:4;stroke-opacity:1;stroke-dasharray:none"
       d="m 260,852.36218 0,-20.71429"
       id="path2891-7" />
    <path
       style="fill:none;stroke:#000000;stroke-width:1.25;stroke-linecap:butt;stroke-linejoin:miter;stroke-miterlimit:4;stroke-opacity:1;stroke-dasharray:none"
       d="m 310,852.36218 0,-20.71429"
       id="path2891-6" />
    <path
       style="fill:none;stroke:#000000;stroke-width:1.25;stroke-linecap:butt;stroke-linejoin:miter;stroke-miterlimit:4;stroke-opacity:1;stroke-dasharray:none"
       d="m 360,852.36218 0,-20.71429"
       id="path2891-71" />
    <path
       style="fill:none;stroke:#000000;stroke-width:1.25;stroke-linecap:butt;stroke-linejoin:miter;stroke-miterlimit:4;stroke-opacity:1;stroke-dasharray:none"
       d="m 410,852.36218 0,-20.71429"
       id="path2891-88" />
    <path
       style="fill:none;stroke:#000000;stroke-width:1.25;stroke-linecap:butt;stroke-linejoin:miter;stroke-miterlimit:4;stroke-opacity:1;stroke-dasharray:none"
       d="m 100,792.36218 20,0 0,0"
       id="path2969-7" />
    <path
       style="fill:none;stroke:#000000;stroke-width:1.25;stroke-linecap:butt;stroke-linejoin:miter;stroke-miterlimit:4;stroke-opacity:1;stroke-dasharray:none"
       d="m 100,742.36218 20,0 0,0"
       id="path2969-3" />
    <path
       style="fill:none;stroke:#000000;stroke-width:1.25;stroke-linecap:butt;stroke-linejoin:miter;stroke-miterlimit:4;stroke-opacity:1;stroke-dasharray:none"
       d="m 100,692.36218 20,0 0,0"
       id="path2969-06" />
    <path
       style="fill:none;stroke:#000000;stroke-width:1.25;stroke-linecap:butt;stroke-linejoin:miter;stroke-miterlimit:4;stroke-opacity:1;stroke-dasharray:none"
       d="m 100,642.36218 20,0 0,0"
       id="path2969-74" />
    <path
       style="fill:none;stroke:#000000;stroke-width:1.25;stroke-linecap:butt;stroke-linejoin:miter;stroke-miterlimit:4;stroke-opacity:1;stroke-dasharray:none"
       d="m 100,590.21932 20,0 0,0"
       id="path2969-4" />
    <path
       style="opacity:0;fill:#00ff00;fill-opacity:0.98039216;stroke:#ff0000;stroke-width:1.25;stroke-miterlimit:4;stroke-opacity:1;stroke-dasharray:none"
       d="m 11.816429,461.47467 0,-23.73859 4.545687,0 c 2.500127,0 4.545686,-0.45457 4.545686,-1.01015 0,-0.55559 -2.045559,-1.01015 -4.545686,-1.01015 l -4.545687,0 0,-23.73859 0,-23.73858 4.545687,0 c 5.356479,0 6.609779,-2.68787 1.500956,-3.219 -2.848061,-0.29609 9.271927,-12.62625 187.635838,-190.8896 L 396.17947,3.5569358 444.01584,3.1289134 491.85221,2.700891 l -0.70555,101.097519 -0.70554,101.09751 -139.05471,139.16086 -139.0547,139.16086 -0.31062,-4.05296 c -0.44524,-5.80943 -2.21476,-5.01222 -2.21476,0.99781 l 0,5.05076 -23.73859,0 -23.73858,0 0,-5.05076 c 0,-3.81614 -0.37039,-5.05076 -1.51523,-5.05076 -1.14484,0 -1.51523,1.23462 -1.51523,5.05076 l 0,5.05076 -23.73858,0 -23.73859,0 0,-5.05076 c 0,-2.77792 -0.45457,-5.05076 -1.01015,-5.05076 -0.55559,0 -1.01015,2.27284 -1.01015,5.05076 l 0,5.05076 -23.738589,0 -23.738584,0 0,-5.05076 c 0,-3.81614 -0.37039,-5.05076 -1.515229,-5.05076 -1.144839,0 -1.515229,1.23462 -1.515229,5.05076 l 0,5.05076 -23.738585,0 -23.738585,0 0,-23.73858 z M 190.83354,256.91878 c 3.18613,-6.44751 3.30777,-7.07107 1.37929,-7.07107 -0.78707,0 -1.8693,1.25006 -2.40497,2.77792 l -0.97393,2.77792 -1.10555,-2.77792 c -0.60806,-1.52786 -1.57138,-2.77792 -2.14071,-2.77792 -1.42974,0 -1.29829,1.45543 0.52575,5.82097 1.40778,3.36928 1.40778,3.84775 0,4.87714 -2.08353,1.52352 -1.97936,2.65932 0.20686,2.2554 0.97227,-0.17963 3.00325,-2.82673 4.51326,-5.88244 l 0,0 z m -17.84338,0.92213 c 0.48873,-0.79079 0.98608,-0.79079 1.77688,0 0.60399,0.60399 1.74455,1.09817 2.53457,1.09817 1.22207,0 1.21218,-0.3377 -0.0663,-2.26309 -1.32746,-1.99929 -1.32828,-2.5292 -0.007,-4.54569 1.33197,-2.03284 1.32364,-2.28259 -0.0762,-2.28259 -0.86449,0 -1.87721,0.49417 -2.2505,1.09816 -0.48873,0.7908 -0.98608,0.7908 -1.77688,0 -0.60393,-0.60399 -1.74132,-1.09816 -2.52748,-1.09816 -1.21286,0 -1.20283,0.34575 0.0663,2.28259 1.32125,2.01649 1.32043,2.5464 -0.007,4.54569 -1.34101,2.01965 -1.33281,2.26309 0.0762,2.26309 0.86835,0 1.88424,-0.49418 2.25753,-1.09817 l 2e-5,0 z m 47.92785,0.088 c 0,-0.55559 -0.73413,-1.01015 -1.63141,-1.01015 -1.48551,0 -1.47992,-0.23119 0.0624,-2.58513 0.93161,-1.42181 1.5521,-3.58101 1.37887,-4.79822 -0.25392,-1.78409 -0.98402,-2.2131 -3.76633,-2.2131 -2.04991,0 -3.64156,0.57061 -3.91976,1.40525 -0.35264,1.0579 0.17305,1.24426 2.12675,0.75391 3.96455,-0.99504 4.33044,1.16487 0.81224,4.79474 -1.7292,1.78409 -3.14401,3.56309 -3.14401,3.95333 0,0.39023 1.81827,0.70952 4.04061,0.70952 2.22233,0 4.04061,-0.45457 4.04061,-1.01015 l 0,0 z m -15.15229,-2.02031 c 0,-0.55558 -2.50013,-1.01015 -5.55584,-1.01015 -3.05571,0 -5.55584,0.45457 -5.55584,1.01015 0,0.55559 2.50013,1.01016 5.55584,1.01016 3.05571,0 5.55584,-0.45457 5.55584,-1.01016 z m -21.21321,-1.01015 c 0,-0.55558 -1.3637,-1.01015 -3.03045,-1.01015 -1.66675,0 -3.03046,0.45457 -3.03046,1.01015 0,0.55558 1.36371,1.01015 3.03046,1.01015 1.66675,0 3.03045,-0.45457 3.03045,-1.01015 z m 27.27412,0 c 0,-0.55558 -1.13642,-1.01015 -2.52538,-1.01015 -1.38896,0 -2.52538,0.45457 -2.52538,1.01015 0,0.55558 1.13642,1.01015 2.52538,1.01015 1.38896,0 2.52538,-0.45457 2.52538,-1.01015 z m -6.06091,-2.52538 c 0,-1.16321 -1.29075,-1.51523 -5.55584,-1.51523 -4.26509,0 -5.55584,0.35202 -5.55584,1.51523 0,1.16321 1.29075,1.51523 5.55584,1.51523 4.26509,0 5.55584,-0.35202 5.55584,-1.51523 z"
       id="path5569"
       transform="translate(99.25,355.66537)" />
    <path
       style="opacity:0;fill:#00ff00;fill-opacity:0.98039216;stroke:#ff0000;stroke-width:1.25;stroke-miterlimit:4;stroke-opacity:1;stroke-dasharray:none"
       d="m 11.816429,461.47467 0,-23.73859 4.545687,0 c 2.500127,0 4.545686,-0.45457 4.545686,-1.01015 0,-0.55559 -2.045559,-1.01015 -4.545686,-1.01015 l -4.545687,0 0,-23.73859 0,-23.73858 4.545687,0 c 5.356479,0 6.609779,-2.68787 1.500956,-3.219 -2.848061,-0.29609 9.271927,-12.62625 187.635838,-190.8896 L 396.17947,3.5569358 444.01584,3.1289134 491.85221,2.700891 l -0.70555,101.097519 -0.70554,101.09751 -139.05471,139.16086 -139.0547,139.16086 -0.31062,-4.05296 c -0.44524,-5.80943 -2.21476,-5.01222 -2.21476,0.99781 l 0,5.05076 -23.73859,0 -23.73858,0 0,-5.05076 c 0,-3.81614 -0.37039,-5.05076 -1.51523,-5.05076 -1.14484,0 -1.51523,1.23462 -1.51523,5.05076 l 0,5.05076 -23.73858,0 -23.73859,0 0,-5.05076 c 0,-2.77792 -0.45457,-5.05076 -1.01015,-5.05076 -0.55559,0 -1.01015,2.27284 -1.01015,5.05076 l 0,5.05076 -23.738589,0 -23.738584,0 0,-5.05076 c 0,-3.81614 -0.37039,-5.05076 -1.515229,-5.05076 -1.144839,0 -1.515229,1.23462 -1.515229,5.05076 l 0,5.05076 -23.738585,0 -23.738585,0 0,-23.73858 z M 190.83354,256.91878 c 3.18613,-6.44751 3.30777,-7.07107 1.37929,-7.07107 -0.78707,0 -1.8693,1.25006 -2.40497,2.77792 l -0.97393,2.77792 -1.10555,-2.77792 c -0.60806,-1.52786 -1.57138,-2.77792 -2.14071,-2.77792 -1.42974,0 -1.29829,1.45543 0.52575,5.82097 1.40778,3.36928 1.40778,3.84775 0,4.87714 -2.08353,1.52352 -1.97936,2.65932 0.20686,2.2554 0.97227,-0.17963 3.00325,-2.82673 4.51326,-5.88244 l 0,0 z m -17.84338,0.92213 c 0.48873,-0.79079 0.98608,-0.79079 1.77688,0 0.60399,0.60399 1.74455,1.09817 2.53457,1.09817 1.22207,0 1.21218,-0.3377 -0.0663,-2.26309 -1.32746,-1.99929 -1.32828,-2.5292 -0.007,-4.54569 1.33197,-2.03284 1.32364,-2.28259 -0.0762,-2.28259 -0.86449,0 -1.87721,0.49417 -2.2505,1.09816 -0.48873,0.7908 -0.98608,0.7908 -1.77688,0 -0.60393,-0.60399 -1.74132,-1.09816 -2.52748,-1.09816 -1.21286,0 -1.20283,0.34575 0.0663,2.28259 1.32125,2.01649 1.32043,2.5464 -0.007,4.54569 -1.34101,2.01965 -1.33281,2.26309 0.0762,2.26309 0.86835,0 1.88424,-0.49418 2.25753,-1.09817 l 2e-5,0 z m 47.92785,0.088 c 0,-0.55559 -0.73413,-1.01015 -1.63141,-1.01015 -1.48551,0 -1.47992,-0.23119 0.0624,-2.58513 0.93161,-1.42181 1.5521,-3.58101 1.37887,-4.79822 -0.25392,-1.78409 -0.98402,-2.2131 -3.76633,-2.2131 -2.04991,0 -3.64156,0.57061 -3.91976,1.40525 -0.35264,1.0579 0.17305,1.24426 2.12675,0.75391 3.96455,-0.99504 4.33044,1.16487 0.81224,4.79474 -1.7292,1.78409 -3.14401,3.56309 -3.14401,3.95333 0,0.39023 1.81827,0.70952 4.04061,0.70952 2.22233,0 4.04061,-0.45457 4.04061,-1.01015 l 0,0 z m -15.15229,-2.02031 c 0,-0.55558 -2.50013,-1.01015 -5.55584,-1.01015 -3.05571,0 -5.55584,0.45457 -5.55584,1.01015 0,0.55559 2.50013,1.01016 5.55584,1.01016 3.05571,0 5.55584,-0.45457 5.55584,-1.01016 z m -21.21321,-1.01015 c 0,-0.55558 -1.3637,-1.01015 -3.03045,-1.01015 -1.66675,0 -3.03046,0.45457 -3.03046,1.01015 0,0.55558 1.36371,1.01015 3.03046,1.01015 1.66675,0 3.03045,-0.45457 3.03045,-1.01015 z m 27.27412,0 c 0,-0.55558 -1.13642,-1.01015 -2.52538,-1.01015 -1.38896,0 -2.52538,0.45457 -2.52538,1.01015 0,0.55558 1.13642,1.01015 2.52538,1.01015 1.38896,0 2.52538,-0.45457 2.52538,-1.01015 z m -6.06091,-2.52538 c 0,-1.16321 -1.29075,-1.51523 -5.55584,-1.51523 -4.26509,0 -5.55584,0.35202 -5.55584,1.51523 0,1.16321 1.29075,1.51523 5.55584,1.51523 4.26509,0 5.55584,-0.35202 5.55584,-1.51523 z"
       id="path5571"
       transform="translate(99.25,355.66537)" />
    <path
       style="opacity:0;fill:#00ff00;fill-opacity:0.98039216;stroke:#ff0000;stroke-width:1.25;stroke-miterlimit:4;stroke-opacity:1;stroke-dasharray:none"
       d="m 11.816429,461.47467 0,-23.73859 4.545687,0 c 2.500127,0 4.545686,-0.45457 4.545686,-1.01015 0,-0.55559 -2.045559,-1.01015 -4.545686,-1.01015 l -4.545687,0 0,-23.73859 0,-23.73858 4.545687,0 c 5.356479,0 6.609779,-2.68787 1.500956,-3.219 -2.848061,-0.29609 9.271927,-12.62625 187.635838,-190.8896 L 396.17947,3.5569358 444.01584,3.1289134 491.85221,2.700891 l -0.70555,101.097519 -0.70554,101.09751 -139.05471,139.16086 -139.0547,139.16086 -0.31062,-4.05296 c -0.44524,-5.80943 -2.21476,-5.01222 -2.21476,0.99781 l 0,5.05076 -23.73859,0 -23.73858,0 0,-5.05076 c 0,-3.81614 -0.37039,-5.05076 -1.51523,-5.05076 -1.14484,0 -1.51523,1.23462 -1.51523,5.05076 l 0,5.05076 -23.73858,0 -23.73859,0 0,-5.05076 c 0,-2.77792 -0.45457,-5.05076 -1.01015,-5.05076 -0.55559,0 -1.01015,2.27284 -1.01015,5.05076 l 0,5.05076 -23.738589,0 -23.738584,0 0,-5.05076 c 0,-3.81614 -0.37039,-5.05076 -1.515229,-5.05076 -1.144839,0 -1.515229,1.23462 -1.515229,5.05076 l 0,5.05076 -23.738585,0 -23.738585,0 0,-23.73858 z M 190.83354,256.91878 c 3.18613,-6.44751 3.30777,-7.07107 1.37929,-7.07107 -0.78707,0 -1.8693,1.25006 -2.40497,2.77792 l -0.97393,2.77792 -1.10555,-2.77792 c -0.60806,-1.52786 -1.57138,-2.77792 -2.14071,-2.77792 -1.42974,0 -1.29829,1.45543 0.52575,5.82097 1.40778,3.36928 1.40778,3.84775 0,4.87714 -2.08353,1.52352 -1.97936,2.65932 0.20686,2.2554 0.97227,-0.17963 3.00325,-2.82673 4.51326,-5.88244 l 0,0 z m -17.84338,0.92213 c 0.48873,-0.79079 0.98608,-0.79079 1.77688,0 0.60399,0.60399 1.74455,1.09817 2.53457,1.09817 1.22207,0 1.21218,-0.3377 -0.0663,-2.26309 -1.32746,-1.99929 -1.32828,-2.5292 -0.007,-4.54569 1.33197,-2.03284 1.32364,-2.28259 -0.0762,-2.28259 -0.86449,0 -1.87721,0.49417 -2.2505,1.09816 -0.48873,0.7908 -0.98608,0.7908 -1.77688,0 -0.60393,-0.60399 -1.74132,-1.09816 -2.52748,-1.09816 -1.21286,0 -1.20283,0.34575 0.0663,2.28259 1.32125,2.01649 1.32043,2.5464 -0.007,4.54569 -1.34101,2.01965 -1.33281,2.26309 0.0762,2.26309 0.86835,0 1.88424,-0.49418 2.25753,-1.09817 l 2e-5,0 z m 47.92785,0.088 c 0,-0.55559 -0.73413,-1.01015 -1.63141,-1.01015 -1.48551,0 -1.47992,-0.23119 0.0624,-2.58513 0.93161,-1.42181 1.5521,-3.58101 1.37887,-4.79822 -0.25392,-1.78409 -0.98402,-2.2131 -3.76633,-2.2131 -2.04991,0 -3.64156,0.57061 -3.91976,1.40525 -0.35264,1.0579 0.17305,1.24426 2.12675,0.75391 3.96455,-0.99504 4.33044,1.16487 0.81224,4.79474 -1.7292,1.78409 -3.14401,3.56309 -3.14401,3.95333 0,0.39023 1.81827,0.70952 4.04061,0.70952 2.22233,0 4.04061,-0.45457 4.04061,-1.01015 l 0,0 z m -15.15229,-2.02031 c 0,-0.55558 -2.50013,-1.01015 -5.55584,-1.01015 -3.05571,0 -5.55584,0.45457 -5.55584,1.01015 0,0.55559 2.50013,1.01016 5.55584,1.01016 3.05571,0 5.55584,-0.45457 5.55584,-1.01016 z m -21.21321,-1.01015 c 0,-0.55558 -1.3637,-1.01015 -3.03045,-1.01015 -1.66675,0 -3.03046,0.45457 -3.03046,1.01015 0,0.55558 1.36371,1.01015 3.03046,1.01015 1.66675,0 3.03045,-0.45457 3.03045,-1.01015 z m 27.27412,0 c 0,-0.55558 -1.13642,-1.01015 -2.52538,-1.01015 -1.38896,0 -2.52538,0.45457 -2.52538,1.01015 0,0.55558 1.13642,1.01015 2.52538,1.01015 1.38896,0 2.52538,-0.45457 2.52538,-1.01015 z m -6.06091,-2.52538 c 0,-1.16321 -1.29075,-1.51523 -5.55584,-1.51523 -4.26509,0 -5.55584,0.35202 -5.55584,1.51523 0,1.16321 1.29075,1.51523 5.55584,1.51523 4.26509,0 5.55584,-0.35202 5.55584,-1.51523 z"
       id="path5573"
       transform="translate(99.25,355.66537)" />
    <path
       style="opacity:0;fill:#00ff00;fill-opacity:0.98039216;stroke:#ff0000;stroke-width:1.25;stroke-miterlimit:4;stroke-opacity:1;stroke-dasharray:none"
       d="m 11.816429,461.47467 0,-23.73859 4.545687,0 c 2.500127,0 4.545686,-0.45457 4.545686,-1.01015 0,-0.55559 -2.045559,-1.01015 -4.545686,-1.01015 l -4.545687,0 0,-23.73859 0,-23.73858 4.545687,0 c 5.356479,0 6.609779,-2.68787 1.500956,-3.219 -2.848061,-0.29609 9.271927,-12.62625 187.635838,-190.8896 L 396.17947,3.5569358 444.01584,3.1289134 491.85221,2.700891 l -0.70555,101.097519 -0.70554,101.09751 -139.05471,139.16086 -139.0547,139.16086 -0.31062,-4.05296 c -0.44524,-5.80943 -2.21476,-5.01222 -2.21476,0.99781 l 0,5.05076 -23.73859,0 -23.73858,0 0,-5.05076 c 0,-3.81614 -0.37039,-5.05076 -1.51523,-5.05076 -1.14484,0 -1.51523,1.23462 -1.51523,5.05076 l 0,5.05076 -23.73858,0 -23.73859,0 0,-5.05076 c 0,-2.77792 -0.45457,-5.05076 -1.01015,-5.05076 -0.55559,0 -1.01015,2.27284 -1.01015,5.05076 l 0,5.05076 -23.738589,0 -23.738584,0 0,-5.05076 c 0,-3.81614 -0.37039,-5.05076 -1.515229,-5.05076 -1.144839,0 -1.515229,1.23462 -1.515229,5.05076 l 0,5.05076 -23.738585,0 -23.738585,0 0,-23.73858 z M 190.83354,256.91878 c 3.18613,-6.44751 3.30777,-7.07107 1.37929,-7.07107 -0.78707,0 -1.8693,1.25006 -2.40497,2.77792 l -0.97393,2.77792 -1.10555,-2.77792 c -0.60806,-1.52786 -1.57138,-2.77792 -2.14071,-2.77792 -1.42974,0 -1.29829,1.45543 0.52575,5.82097 1.40778,3.36928 1.40778,3.84775 0,4.87714 -2.08353,1.52352 -1.97936,2.65932 0.20686,2.2554 0.97227,-0.17963 3.00325,-2.82673 4.51326,-5.88244 l 0,0 z m -17.84338,0.92213 c 0.48873,-0.79079 0.98608,-0.79079 1.77688,0 0.60399,0.60399 1.74455,1.09817 2.53457,1.09817 1.22207,0 1.21218,-0.3377 -0.0663,-2.26309 -1.32746,-1.99929 -1.32828,-2.5292 -0.007,-4.54569 1.33197,-2.03284 1.32364,-2.28259 -0.0762,-2.28259 -0.86449,0 -1.87721,0.49417 -2.2505,1.09816 -0.48873,0.7908 -0.98608,0.7908 -1.77688,0 -0.60393,-0.60399 -1.74132,-1.09816 -2.52748,-1.09816 -1.21286,0 -1.20283,0.34575 0.0663,2.28259 1.32125,2.01649 1.32043,2.5464 -0.007,4.54569 -1.34101,2.01965 -1.33281,2.26309 0.0762,2.26309 0.86835,0 1.88424,-0.49418 2.25753,-1.09817 l 2e-5,0 z m 47.92785,0.088 c 0,-0.55559 -0.73413,-1.01015 -1.63141,-1.01015 -1.48551,0 -1.47992,-0.23119 0.0624,-2.58513 0.93161,-1.42181 1.5521,-3.58101 1.37887,-4.79822 -0.25392,-1.78409 -0.98402,-2.2131 -3.76633,-2.2131 -2.04991,0 -3.64156,0.57061 -3.91976,1.40525 -0.35264,1.0579 0.17305,1.24426 2.12675,0.75391 3.96455,-0.99504 4.33044,1.16487 0.81224,4.79474 -1.7292,1.78409 -3.14401,3.56309 -3.14401,3.95333 0,0.39023 1.81827,0.70952 4.04061,0.70952 2.22233,0 4.04061,-0.45457 4.04061,-1.01015 l 0,0 z m -15.15229,-2.02031 c 0,-0.55558 -2.50013,-1.01015 -5.55584,-1.01015 -3.05571,0 -5.55584,0.45457 -5.55584,1.01015 0,0.55559 2.50013,1.01016 5.55584,1.01016 3.05571,0 5.55584,-0.45457 5.55584,-1.01016 z m -21.21321,-1.01015 c 0,-0.55558 -1.3637,-1.01015 -3.03045,-1.01015 -1.66675,0 -3.03046,0.45457 -3.03046,1.01015 0,0.55558 1.36371,1.01015 3.03046,1.01015 1.66675,0 3.03045,-0.45457 3.03045,-1.01015 z m 27.27412,0 c 0,-0.55558 -1.13642,-1.01015 -2.52538,-1.01015 -1.38896,0 -2.52538,0.45457 -2.52538,1.01015 0,0.55558 1.13642,1.01015 2.52538,1.01015 1.38896,0 2.52538,-0.45457 2.52538,-1.01015 z m -6.06091,-2.52538 c 0,-1.16321 -1.29075,-1.51523 -5.55584,-1.51523 -4.26509,0 -5.55584,0.35202 -5.55584,1.51523 0,1.16321 1.29075,1.51523 5.55584,1.51523 4.26509,0 5.55584,-0.35202 5.55584,-1.51523 z"
       id="path5575"
       transform="translate(99.25,355.66537)" />
    <path
       style="opacity:0;fill:#00ff00;fill-opacity:0.98039216;stroke:#ff0000;stroke-width:1.25;stroke-miterlimit:4;stroke-opacity:1;stroke-dasharray:none"
       d="m 11.816429,461.47467 0,-23.73859 4.545687,0 c 2.500127,0 4.545686,-0.45457 4.545686,-1.01015 0,-0.55559 -2.045559,-1.01015 -4.545686,-1.01015 l -4.545687,0 0,-23.73859 0,-23.73858 4.545687,0 c 5.356479,0 6.609779,-2.68787 1.500956,-3.219 -2.848061,-0.29609 9.271927,-12.62625 187.635838,-190.8896 L 396.17947,3.5569358 444.01584,3.1289134 491.85221,2.700891 l -0.70555,101.097519 -0.70554,101.09751 -139.05471,139.16086 -139.0547,139.16086 -0.31062,-4.05296 c -0.44524,-5.80943 -2.21476,-5.01222 -2.21476,0.99781 l 0,5.05076 -23.73859,0 -23.73858,0 0,-5.05076 c 0,-3.81614 -0.37039,-5.05076 -1.51523,-5.05076 -1.14484,0 -1.51523,1.23462 -1.51523,5.05076 l 0,5.05076 -23.73858,0 -23.73859,0 0,-5.05076 c 0,-2.77792 -0.45457,-5.05076 -1.01015,-5.05076 -0.55559,0 -1.01015,2.27284 -1.01015,5.05076 l 0,5.05076 -23.738589,0 -23.738584,0 0,-5.05076 c 0,-3.81614 -0.37039,-5.05076 -1.515229,-5.05076 -1.144839,0 -1.515229,1.23462 -1.515229,5.05076 l 0,5.05076 -23.738585,0 -23.738585,0 0,-23.73858 z M 190.83354,256.91878 c 3.18613,-6.44751 3.30777,-7.07107 1.37929,-7.07107 -0.78707,0 -1.8693,1.25006 -2.40497,2.77792 l -0.97393,2.77792 -1.10555,-2.77792 c -0.60806,-1.52786 -1.57138,-2.77792 -2.14071,-2.77792 -1.42974,0 -1.29829,1.45543 0.52575,5.82097 1.40778,3.36928 1.40778,3.84775 0,4.87714 -2.08353,1.52352 -1.97936,2.65932 0.20686,2.2554 0.97227,-0.17963 3.00325,-2.82673 4.51326,-5.88244 l 0,0 z m -17.84338,0.92213 c 0.48873,-0.79079 0.98608,-0.79079 1.77688,0 0.60399,0.60399 1.74455,1.09817 2.53457,1.09817 1.22207,0 1.21218,-0.3377 -0.0663,-2.26309 -1.32746,-1.99929 -1.32828,-2.5292 -0.007,-4.54569 1.33197,-2.03284 1.32364,-2.28259 -0.0762,-2.28259 -0.86449,0 -1.87721,0.49417 -2.2505,1.09816 -0.48873,0.7908 -0.98608,0.7908 -1.77688,0 -0.60393,-0.60399 -1.74132,-1.09816 -2.52748,-1.09816 -1.21286,0 -1.20283,0.34575 0.0663,2.28259 1.32125,2.01649 1.32043,2.5464 -0.007,4.54569 -1.34101,2.01965 -1.33281,2.26309 0.0762,2.26309 0.86835,0 1.88424,-0.49418 2.25753,-1.09817 l 2e-5,0 z m 47.92785,0.088 c 0,-0.55559 -0.73413,-1.01015 -1.63141,-1.01015 -1.48551,0 -1.47992,-0.23119 0.0624,-2.58513 0.93161,-1.42181 1.5521,-3.58101 1.37887,-4.79822 -0.25392,-1.78409 -0.98402,-2.2131 -3.76633,-2.2131 -2.04991,0 -3.64156,0.57061 -3.91976,1.40525 -0.35264,1.0579 0.17305,1.24426 2.12675,0.75391 3.96455,-0.99504 4.33044,1.16487 0.81224,4.79474 -1.7292,1.78409 -3.14401,3.56309 -3.14401,3.95333 0,0.39023 1.81827,0.70952 4.04061,0.70952 2.22233,0 4.04061,-0.45457 4.04061,-1.01015 l 0,0 z m -15.15229,-2.02031 c 0,-0.55558 -2.50013,-1.01015 -5.55584,-1.01015 -3.05571,0 -5.55584,0.45457 -5.55584,1.01015 0,0.55559 2.50013,1.01016 5.55584,1.01016 3.05571,0 5.55584,-0.45457 5.55584,-1.01016 z m -21.21321,-1.01015 c 0,-0.55558 -1.3637,-1.01015 -3.03045,-1.01015 -1.66675,0 -3.03046,0.45457 -3.03046,1.01015 0,0.55558 1.36371,1.01015 3.03046,1.01015 1.66675,0 3.03045,-0.45457 3.03045,-1.01015 z m 27.27412,0 c 0,-0.55558 -1.13642,-1.01015 -2.52538,-1.01015 -1.38896,0 -2.52538,0.45457 -2.52538,1.01015 0,0.55558 1.13642,1.01015 2.52538,1.01015 1.38896,0 2.52538,-0.45457 2.52538,-1.01015 z m -6.06091,-2.52538 c 0,-1.16321 -1.29075,-1.51523 -5.55584,-1.51523 -4.26509,0 -5.55584,0.35202 -5.55584,1.51523 0,1.16321 1.29075,1.51523 5.55584,1.51523 4.26509,0 5.55584,-0.35202 5.55584,-1.51523 z"
       id="path5577"
       transform="translate(99.25,355.66537)" />
    <path
       style="opacity:0;fill:#00ff00;fill-opacity:0.98039216;stroke:#ff0000;stroke-width:1.25;stroke-miterlimit:4;stroke-opacity:1;stroke-dasharray:none"
       d="m 11.816429,461.47467 0,-23.73859 4.545687,0 c 2.500127,0 4.545686,-0.45457 4.545686,-1.01015 0,-0.55559 -2.045559,-1.01015 -4.545686,-1.01015 l -4.545687,0 0,-23.73859 0,-23.73858 4.545687,0 c 5.356479,0 6.609779,-2.68787 1.500956,-3.219 -2.848061,-0.29609 9.271927,-12.62625 187.635838,-190.8896 L 396.17947,3.5569358 444.01584,3.1289134 491.85221,2.700891 l -0.70555,101.097519 -0.70554,101.09751 -139.05471,139.16086 -139.0547,139.16086 -0.31062,-4.05296 c -0.44524,-5.80943 -2.21476,-5.01222 -2.21476,0.99781 l 0,5.05076 -23.73859,0 -23.73858,0 0,-5.05076 c 0,-3.81614 -0.37039,-5.05076 -1.51523,-5.05076 -1.14484,0 -1.51523,1.23462 -1.51523,5.05076 l 0,5.05076 -23.73858,0 -23.73859,0 0,-5.05076 c 0,-2.77792 -0.45457,-5.05076 -1.01015,-5.05076 -0.55559,0 -1.01015,2.27284 -1.01015,5.05076 l 0,5.05076 -23.738589,0 -23.738584,0 0,-5.05076 c 0,-3.81614 -0.37039,-5.05076 -1.515229,-5.05076 -1.144839,0 -1.515229,1.23462 -1.515229,5.05076 l 0,5.05076 -23.738585,0 -23.738585,0 0,-23.73858 z M 190.83354,256.91878 c 3.18613,-6.44751 3.30777,-7.07107 1.37929,-7.07107 -0.78707,0 -1.8693,1.25006 -2.40497,2.77792 l -0.97393,2.77792 -1.10555,-2.77792 c -0.60806,-1.52786 -1.57138,-2.77792 -2.14071,-2.77792 -1.42974,0 -1.29829,1.45543 0.52575,5.82097 1.40778,3.36928 1.40778,3.84775 0,4.87714 -2.08353,1.52352 -1.97936,2.65932 0.20686,2.2554 0.97227,-0.17963 3.00325,-2.82673 4.51326,-5.88244 l 0,0 z m -17.84338,0.92213 c 0.48873,-0.79079 0.98608,-0.79079 1.77688,0 0.60399,0.60399 1.74455,1.09817 2.53457,1.09817 1.22207,0 1.21218,-0.3377 -0.0663,-2.26309 -1.32746,-1.99929 -1.32828,-2.5292 -0.007,-4.54569 1.33197,-2.03284 1.32364,-2.28259 -0.0762,-2.28259 -0.86449,0 -1.87721,0.49417 -2.2505,1.09816 -0.48873,0.7908 -0.98608,0.7908 -1.77688,0 -0.60393,-0.60399 -1.74132,-1.09816 -2.52748,-1.09816 -1.21286,0 -1.20283,0.34575 0.0663,2.28259 1.32125,2.01649 1.32043,2.5464 -0.007,4.54569 -1.34101,2.01965 -1.33281,2.26309 0.0762,2.26309 0.86835,0 1.88424,-0.49418 2.25753,-1.09817 l 2e-5,0 z m 47.92785,0.088 c 0,-0.55559 -0.73413,-1.01015 -1.63141,-1.01015 -1.48551,0 -1.47992,-0.23119 0.0624,-2.58513 0.93161,-1.42181 1.5521,-3.58101 1.37887,-4.79822 -0.25392,-1.78409 -0.98402,-2.2131 -3.76633,-2.2131 -2.04991,0 -3.64156,0.57061 -3.91976,1.40525 -0.35264,1.0579 0.17305,1.24426 2.12675,0.75391 3.96455,-0.99504 4.33044,1.16487 0.81224,4.79474 -1.7292,1.78409 -3.14401,3.56309 -3.14401,3.95333 0,0.39023 1.81827,0.70952 4.04061,0.70952 2.22233,0 4.04061,-0.45457 4.04061,-1.01015 l 0,0 z m -15.15229,-2.02031 c 0,-0.55558 -2.50013,-1.01015 -5.55584,-1.01015 -3.05571,0 -5.55584,0.45457 -5.55584,1.01015 0,0.55559 2.50013,1.01016 5.55584,1.01016 3.05571,0 5.55584,-0.45457 5.55584,-1.01016 z m -21.21321,-1.01015 c 0,-0.55558 -1.3637,-1.01015 -3.03045,-1.01015 -1.66675,0 -3.03046,0.45457 -3.03046,1.01015 0,0.55558 1.36371,1.01015 3.03046,1.01015 1.66675,0 3.03045,-0.45457 3.03045,-1.01015 z m 27.27412,0 c 0,-0.55558 -1.13642,-1.01015 -2.52538,-1.01015 -1.38896,0 -2.52538,0.45457 -2.52538,1.01015 0,0.55558 1.13642,1.01015 2.52538,1.01015 1.38896,0 2.52538,-0.45457 2.52538,-1.01015 z m -6.06091,-2.52538 c 0,-1.16321 -1.29075,-1.51523 -5.55584,-1.51523 -4.26509,0 -5.55584,0.35202 -5.55584,1.51523 0,1.16321 1.29075,1.51523 5.55584,1.51523 4.26509,0 5.55584,-0.35202 5.55584,-1.51523 z"
       id="path5579"
       transform="translate(99.25,355.66537)" />
    <path
       style="opacity:0;fill:#008000;fill-opacity:0.98039216;stroke:#000000;stroke-width:1.25;stroke-miterlimit:4;stroke-opacity:1;stroke-dasharray:none"
       d="m 11.816429,461.7272 0,-23.99112 4.545687,0 c 4.208968,0 4.545686,-0.0748 4.545686,-1.01015 0,-0.93533 -0.336718,-1.01015 -4.545686,-1.01015 l -4.545687,0 0,-23.99113 0,-23.99112 4.545687,0 c 4.208968,0 4.545686,-0.0748 4.545686,-1.01015 0,-0.92325 -0.336718,-1.01016 -3.914068,-1.01016 l -3.914068,0 175.260924,-175.26146 175.26092,-175.261468 64.01869,0 64.01869,0 -5.1e-4,17.298862 c -3e-4,9.514374 -0.23745,47.868606 -0.527,85.231616 l -0.5265,67.93276 -139.25285,139.27756 -139.25286,139.27755 -0.14593,-4.29592 c -0.13185,-3.88116 -0.24156,-4.29592 -1.13642,-4.29592 -0.9179,0 -0.99049,0.37014 -0.99049,5.05076 l 0,5.05077 -23.99112,0 -23.99113,0 0,-5.05077 c 0,-4.71404 -0.0673,-5.05076 -1.01015,-5.05076 -0.94281,0 -1.01015,0.33672 -1.01015,5.05076 l 0,5.05077 -23.99113,0 -23.99112,0 0,-5.05077 c 0,-4.71404 -0.0673,-5.05076 -1.01015,-5.05076 -0.94281,0 -1.01015,0.33672 -1.01015,5.05076 l 0,5.05077 -23.991127,0 -23.991123,0 0,-5.05077 c 0,-4.71404 -0.06734,-5.05076 -1.010152,-5.05076 -0.942809,0 -1.010153,0.33672 -1.010153,5.05076 l 0,5.05077 -23.991123,0 -23.991123,0 0,-23.99113 z M 187.98598,262.0433 c 0.6084,-0.38592 5.15283,-10.74596 5.15283,-11.74701 0,-0.24672 -0.42685,-0.44858 -0.94857,-0.44858 -0.69729,0 -1.25042,0.80713 -2.08804,3.0469 -0.6267,1.6758 -1.27364,2.91272 -1.43764,2.74873 -0.164,-0.164 -0.77238,-1.47784 -1.35196,-2.91964 -0.59806,-1.48778 -1.42273,-2.69251 -1.90693,-2.78576 -1.20103,-0.2313 -1.07367,0.66674 0.68976,4.86383 1.62575,3.8694 1.61203,5.38465 -0.0535,5.91328 -1.36648,0.4337 -1.2512,1.76138 0.1521,1.75183 0.62503,-0.004 1.43142,-0.19486 1.79197,-0.42358 l 0,0 z m -15.09235,-4.49318 1.05228,-1.38896 1.05228,1.38896 c 0.63333,0.83597 1.53408,1.38896 2.26244,1.38896 l 1.21015,0 -1.58414,-2.24744 -1.58414,-2.24744 1.34201,-1.75947 c 0.73811,-0.96771 1.34201,-2.00192 1.34201,-2.29825 0,-1.15308 -1.97191,-0.45853 -2.91153,1.02551 l -0.99044,1.56428 -1.11386,-1.56428 c -0.61263,-0.86036 -1.55296,-1.56428 -2.08963,-1.56428 -1.28444,0 -1.23133,0.4675 0.28693,2.52538 0.69448,0.94131 1.26269,1.91872 1.26269,2.17202 0,0.25329 -0.70095,1.34556 -1.55767,2.42725 l -1.55767,1.96672 1.26301,0 c 0.78601,0 1.66042,-0.52457 2.31528,-1.38896 l 0,0 z m 48.02438,0.63135 c 0,-0.56347 -0.59446,-0.75762 -2.31965,-0.75762 l -2.31965,0 2.31965,-2.58 c 1.74701,-1.9431 2.31965,-2.9836 2.31965,-4.21488 0,-2.25698 -1.47624,-3.475 -4.21169,-3.475 -2.61523,0 -3.36446,0.39358 -3.36446,1.76743 0,0.78994 0.20888,0.94659 0.88389,0.66285 2.63968,-1.10954 4.67195,-0.62217 4.67195,1.12041 0,0.4033 -1.25006,2.04383 -2.77792,3.64563 -3.86078,4.04762 -3.74165,4.58879 1.01015,4.58879 3.03046,0 3.78808,-0.15152 3.78808,-0.75761 l 0,0 z m -15.65737,-2.52539 c 0,-0.62533 -0.92597,-0.75761 -5.3033,-0.75761 -4.37733,0 -5.3033,0.13228 -5.3033,0.75761 0,0.62534 0.92597,0.75762 5.3033,0.75762 4.37733,0 5.3033,-0.13228 5.3033,-0.75762 z m -21.2132,-1.01015 c 0,-0.57242 -0.61732,-0.75761 -2.52538,-0.75761 -1.90807,0 -2.52538,0.18519 -2.52538,0.75761 0,0.57242 0.61731,0.75762 2.52538,0.75762 1.90806,0 2.52538,-0.1852 2.52538,-0.75762 z m 27.77919,0 c 0,-0.56119 -0.58925,-0.75761 -2.27284,-0.75761 -1.68359,0 -2.27284,0.19642 -2.27284,0.75761 0,0.5612 0.58925,0.75762 2.27284,0.75762 1.68359,0 2.27284,-0.19642 2.27284,-0.75762 z m -6.56599,-2.27284 c 0,-0.94602 -0.33672,-1.01015 -5.3033,-1.01015 -4.96658,0 -5.3033,0.0641 -5.3033,1.01015 0,0.94602 0.33672,1.01015 5.3033,1.01015 4.96658,0 5.3033,-0.0641 5.3033,-1.01015 z"
       id="path5583"
       transform="translate(99.25,355.66537)" />
    <path
       style="opacity:0;fill:#008000;fill-opacity:0.98039216;stroke:#000000;stroke-width:1.25;stroke-miterlimit:4;stroke-opacity:1;stroke-dasharray:none"
       d="m 11.816429,461.47467 0,-23.73859 4.545687,0 c 2.500127,0 4.545686,-0.45457 4.545686,-1.01015 0,-0.55559 -2.045559,-1.01015 -4.545686,-1.01015 l -4.545687,0 0,-23.73859 0,-23.73858 4.545687,0 c 5.356479,0 6.609779,-2.68787 1.500956,-3.219 -2.848061,-0.29609 9.271927,-12.62625 187.635838,-190.8896 L 396.17947,3.5569358 444.01584,3.1289134 491.85221,2.700891 l -0.70555,101.097519 -0.70554,101.09751 -139.05471,139.16086 -139.0547,139.16086 -0.31062,-4.05296 c -0.44524,-5.80943 -2.21476,-5.01222 -2.21476,0.99781 l 0,5.05076 -23.73859,0 -23.73858,0 0,-5.05076 c 0,-3.81614 -0.37039,-5.05076 -1.51523,-5.05076 -1.14484,0 -1.51523,1.23462 -1.51523,5.05076 l 0,5.05076 -23.73858,0 -23.73859,0 0,-5.05076 c 0,-2.77792 -0.45457,-5.05076 -1.01015,-5.05076 -0.55559,0 -1.01015,2.27284 -1.01015,5.05076 l 0,5.05076 -23.738589,0 -23.738584,0 0,-5.05076 c 0,-3.81614 -0.37039,-5.05076 -1.515229,-5.05076 -1.144839,0 -1.515229,1.23462 -1.515229,5.05076 l 0,5.05076 -23.738585,0 -23.738585,0 0,-23.73858 z M 190.83354,256.91878 c 3.18613,-6.44751 3.30777,-7.07107 1.37929,-7.07107 -0.78707,0 -1.8693,1.25006 -2.40497,2.77792 l -0.97393,2.77792 -1.10555,-2.77792 c -0.60806,-1.52786 -1.57138,-2.77792 -2.14071,-2.77792 -1.42974,0 -1.29829,1.45543 0.52575,5.82097 1.40778,3.36928 1.40778,3.84775 0,4.87714 -2.08353,1.52352 -1.97936,2.65932 0.20686,2.2554 0.97227,-0.17963 3.00325,-2.82673 4.51326,-5.88244 l 0,0 z m -17.84338,0.92213 c 0.48873,-0.79079 0.98608,-0.79079 1.77688,0 0.60399,0.60399 1.74455,1.09817 2.53457,1.09817 1.22207,0 1.21218,-0.3377 -0.0663,-2.26309 -1.32746,-1.99929 -1.32828,-2.5292 -0.007,-4.54569 1.33197,-2.03284 1.32364,-2.28259 -0.0762,-2.28259 -0.86449,0 -1.87721,0.49417 -2.2505,1.09816 -0.48873,0.7908 -0.98608,0.7908 -1.77688,0 -0.60393,-0.60399 -1.74132,-1.09816 -2.52748,-1.09816 -1.21286,0 -1.20283,0.34575 0.0663,2.28259 1.32125,2.01649 1.32043,2.5464 -0.007,4.54569 -1.34101,2.01965 -1.33281,2.26309 0.0762,2.26309 0.86835,0 1.88424,-0.49418 2.25753,-1.09817 l 2e-5,0 z m 47.92785,0.088 c 0,-0.55559 -0.73413,-1.01015 -1.63141,-1.01015 -1.48551,0 -1.47992,-0.23119 0.0624,-2.58513 0.93161,-1.42181 1.5521,-3.58101 1.37887,-4.79822 -0.25392,-1.78409 -0.98402,-2.2131 -3.76633,-2.2131 -2.04991,0 -3.64156,0.57061 -3.91976,1.40525 -0.35264,1.0579 0.17305,1.24426 2.12675,0.75391 3.96455,-0.99504 4.33044,1.16487 0.81224,4.79474 -1.7292,1.78409 -3.14401,3.56309 -3.14401,3.95333 0,0.39023 1.81827,0.70952 4.04061,0.70952 2.22233,0 4.04061,-0.45457 4.04061,-1.01015 l 0,0 z m -15.15229,-2.02031 c 0,-0.55558 -2.50013,-1.01015 -5.55584,-1.01015 -3.05571,0 -5.55584,0.45457 -5.55584,1.01015 0,0.55559 2.50013,1.01016 5.55584,1.01016 3.05571,0 5.55584,-0.45457 5.55584,-1.01016 z m -21.21321,-1.01015 c 0,-0.55558 -1.3637,-1.01015 -3.03045,-1.01015 -1.66675,0 -3.03046,0.45457 -3.03046,1.01015 0,0.55558 1.36371,1.01015 3.03046,1.01015 1.66675,0 3.03045,-0.45457 3.03045,-1.01015 z m 27.27412,0 c 0,-0.55558 -1.13642,-1.01015 -2.52538,-1.01015 -1.38896,0 -2.52538,0.45457 -2.52538,1.01015 0,0.55558 1.13642,1.01015 2.52538,1.01015 1.38896,0 2.52538,-0.45457 2.52538,-1.01015 z m -6.06091,-2.52538 c 0,-1.16321 -1.29075,-1.51523 -5.55584,-1.51523 -4.26509,0 -5.55584,0.35202 -5.55584,1.51523 0,1.16321 1.29075,1.51523 5.55584,1.51523 4.26509,0 5.55584,-0.35202 5.55584,-1.51523 z"
       id="path5585"
       transform="translate(99.25,355.66537)" />
    <path
       style="opacity:0;fill:#008000;fill-opacity:0.98039216;stroke:#000000;stroke-width:1.25;stroke-miterlimit:4;stroke-opacity:1;stroke-dasharray:none"
       d="m 11.816429,461.47467 0,-23.73859 4.545687,0 c 2.500127,0 4.545686,-0.45457 4.545686,-1.01015 0,-0.55559 -2.045559,-1.01015 -4.545686,-1.01015 l -4.545687,0 0,-23.73859 0,-23.73858 4.545687,0 c 5.356479,0 6.609779,-2.68787 1.500956,-3.219 -2.848061,-0.29609 9.271927,-12.62625 187.635838,-190.8896 L 396.17947,3.5569358 444.01584,3.1289134 491.85221,2.700891 l -0.70555,101.097519 -0.70554,101.09751 -139.05471,139.16086 -139.0547,139.16086 -0.31062,-4.05296 c -0.44524,-5.80943 -2.21476,-5.01222 -2.21476,0.99781 l 0,5.05076 -23.73859,0 -23.73858,0 0,-5.05076 c 0,-3.81614 -0.37039,-5.05076 -1.51523,-5.05076 -1.14484,0 -1.51523,1.23462 -1.51523,5.05076 l 0,5.05076 -23.73858,0 -23.73859,0 0,-5.05076 c 0,-2.77792 -0.45457,-5.05076 -1.01015,-5.05076 -0.55559,0 -1.01015,2.27284 -1.01015,5.05076 l 0,5.05076 -23.738589,0 -23.738584,0 0,-5.05076 c 0,-3.81614 -0.37039,-5.05076 -1.515229,-5.05076 -1.144839,0 -1.515229,1.23462 -1.515229,5.05076 l 0,5.05076 -23.738585,0 -23.738585,0 0,-23.73858 z M 190.83354,256.91878 c 3.18613,-6.44751 3.30777,-7.07107 1.37929,-7.07107 -0.78707,0 -1.8693,1.25006 -2.40497,2.77792 l -0.97393,2.77792 -1.10555,-2.77792 c -0.60806,-1.52786 -1.57138,-2.77792 -2.14071,-2.77792 -1.42974,0 -1.29829,1.45543 0.52575,5.82097 1.40778,3.36928 1.40778,3.84775 0,4.87714 -2.08353,1.52352 -1.97936,2.65932 0.20686,2.2554 0.97227,-0.17963 3.00325,-2.82673 4.51326,-5.88244 l 0,0 z m -17.84338,0.92213 c 0.48873,-0.79079 0.98608,-0.79079 1.77688,0 0.60399,0.60399 1.74455,1.09817 2.53457,1.09817 1.22207,0 1.21218,-0.3377 -0.0663,-2.26309 -1.32746,-1.99929 -1.32828,-2.5292 -0.007,-4.54569 1.33197,-2.03284 1.32364,-2.28259 -0.0762,-2.28259 -0.86449,0 -1.87721,0.49417 -2.2505,1.09816 -0.48873,0.7908 -0.98608,0.7908 -1.77688,0 -0.60393,-0.60399 -1.74132,-1.09816 -2.52748,-1.09816 -1.21286,0 -1.20283,0.34575 0.0663,2.28259 1.32125,2.01649 1.32043,2.5464 -0.007,4.54569 -1.34101,2.01965 -1.33281,2.26309 0.0762,2.26309 0.86835,0 1.88424,-0.49418 2.25753,-1.09817 l 2e-5,0 z m 47.92785,0.088 c 0,-0.55559 -0.73413,-1.01015 -1.63141,-1.01015 -1.48551,0 -1.47992,-0.23119 0.0624,-2.58513 0.93161,-1.42181 1.5521,-3.58101 1.37887,-4.79822 -0.25392,-1.78409 -0.98402,-2.2131 -3.76633,-2.2131 -2.04991,0 -3.64156,0.57061 -3.91976,1.40525 -0.35264,1.0579 0.17305,1.24426 2.12675,0.75391 3.96455,-0.99504 4.33044,1.16487 0.81224,4.79474 -1.7292,1.78409 -3.14401,3.56309 -3.14401,3.95333 0,0.39023 1.81827,0.70952 4.04061,0.70952 2.22233,0 4.04061,-0.45457 4.04061,-1.01015 l 0,0 z m -15.15229,-2.02031 c 0,-0.55558 -2.50013,-1.01015 -5.55584,-1.01015 -3.05571,0 -5.55584,0.45457 -5.55584,1.01015 0,0.55559 2.50013,1.01016 5.55584,1.01016 3.05571,0 5.55584,-0.45457 5.55584,-1.01016 z m -21.21321,-1.01015 c 0,-0.55558 -1.3637,-1.01015 -3.03045,-1.01015 -1.66675,0 -3.03046,0.45457 -3.03046,1.01015 0,0.55558 1.36371,1.01015 3.03046,1.01015 1.66675,0 3.03045,-0.45457 3.03045,-1.01015 z m 27.27412,0 c 0,-0.55558 -1.13642,-1.01015 -2.52538,-1.01015 -1.38896,0 -2.52538,0.45457 -2.52538,1.01015 0,0.55558 1.13642,1.01015 2.52538,1.01015 1.38896,0 2.52538,-0.45457 2.52538,-1.01015 z m -6.06091,-2.52538 c 0,-1.16321 -1.29075,-1.51523 -5.55584,-1.51523 -4.26509,0 -5.55584,0.35202 -5.55584,1.51523 0,1.16321 1.29075,1.51523 5.55584,1.51523 4.26509,0 5.55584,-0.35202 5.55584,-1.51523 z"
       id="path5587"
       transform="translate(99.25,355.66537)" />
    <path
       style="opacity:0;fill:#008000;fill-opacity:0.98039216;stroke:#000000;stroke-width:1.25;stroke-miterlimit:4;stroke-opacity:1;stroke-dasharray:none"
       d="m 11.816429,461.47467 0,-23.73859 4.545687,0 c 2.500127,0 4.545686,-0.45457 4.545686,-1.01015 0,-0.55559 -2.045559,-1.01015 -4.545686,-1.01015 l -4.545687,0 0,-23.73859 0,-23.73858 4.545687,0 c 5.356479,0 6.609779,-2.68787 1.500956,-3.219 -2.848061,-0.29609 9.271927,-12.62625 187.635838,-190.8896 L 396.17947,3.5569358 444.01584,3.1289134 491.85221,2.700891 l -0.70555,101.097519 -0.70554,101.09751 -139.05471,139.16086 -139.0547,139.16086 -0.31062,-4.05296 c -0.44524,-5.80943 -2.21476,-5.01222 -2.21476,0.99781 l 0,5.05076 -23.73859,0 -23.73858,0 0,-5.05076 c 0,-3.81614 -0.37039,-5.05076 -1.51523,-5.05076 -1.14484,0 -1.51523,1.23462 -1.51523,5.05076 l 0,5.05076 -23.73858,0 -23.73859,0 0,-5.05076 c 0,-2.77792 -0.45457,-5.05076 -1.01015,-5.05076 -0.55559,0 -1.01015,2.27284 -1.01015,5.05076 l 0,5.05076 -23.738589,0 -23.738584,0 0,-5.05076 c 0,-3.81614 -0.37039,-5.05076 -1.515229,-5.05076 -1.144839,0 -1.515229,1.23462 -1.515229,5.05076 l 0,5.05076 -23.738585,0 -23.738585,0 0,-23.73858 z M 190.83354,256.91878 c 3.18613,-6.44751 3.30777,-7.07107 1.37929,-7.07107 -0.78707,0 -1.8693,1.25006 -2.40497,2.77792 l -0.97393,2.77792 -1.10555,-2.77792 c -0.60806,-1.52786 -1.57138,-2.77792 -2.14071,-2.77792 -1.42974,0 -1.29829,1.45543 0.52575,5.82097 1.40778,3.36928 1.40778,3.84775 0,4.87714 -2.08353,1.52352 -1.97936,2.65932 0.20686,2.2554 0.97227,-0.17963 3.00325,-2.82673 4.51326,-5.88244 l 0,0 z m -17.84338,0.92213 c 0.48873,-0.79079 0.98608,-0.79079 1.77688,0 0.60399,0.60399 1.74455,1.09817 2.53457,1.09817 1.22207,0 1.21218,-0.3377 -0.0663,-2.26309 -1.32746,-1.99929 -1.32828,-2.5292 -0.007,-4.54569 1.33197,-2.03284 1.32364,-2.28259 -0.0762,-2.28259 -0.86449,0 -1.87721,0.49417 -2.2505,1.09816 -0.48873,0.7908 -0.98608,0.7908 -1.77688,0 -0.60393,-0.60399 -1.74132,-1.09816 -2.52748,-1.09816 -1.21286,0 -1.20283,0.34575 0.0663,2.28259 1.32125,2.01649 1.32043,2.5464 -0.007,4.54569 -1.34101,2.01965 -1.33281,2.26309 0.0762,2.26309 0.86835,0 1.88424,-0.49418 2.25753,-1.09817 l 2e-5,0 z m 47.92785,0.088 c 0,-0.55559 -0.73413,-1.01015 -1.63141,-1.01015 -1.48551,0 -1.47992,-0.23119 0.0624,-2.58513 0.93161,-1.42181 1.5521,-3.58101 1.37887,-4.79822 -0.25392,-1.78409 -0.98402,-2.2131 -3.76633,-2.2131 -2.04991,0 -3.64156,0.57061 -3.91976,1.40525 -0.35264,1.0579 0.17305,1.24426 2.12675,0.75391 3.96455,-0.99504 4.33044,1.16487 0.81224,4.79474 -1.7292,1.78409 -3.14401,3.56309 -3.14401,3.95333 0,0.39023 1.81827,0.70952 4.04061,0.70952 2.22233,0 4.04061,-0.45457 4.04061,-1.01015 l 0,0 z m -15.15229,-2.02031 c 0,-0.55558 -2.50013,-1.01015 -5.55584,-1.01015 -3.05571,0 -5.55584,0.45457 -5.55584,1.01015 0,0.55559 2.50013,1.01016 5.55584,1.01016 3.05571,0 5.55584,-0.45457 5.55584,-1.01016 z m -21.21321,-1.01015 c 0,-0.55558 -1.3637,-1.01015 -3.03045,-1.01015 -1.66675,0 -3.03046,0.45457 -3.03046,1.01015 0,0.55558 1.36371,1.01015 3.03046,1.01015 1.66675,0 3.03045,-0.45457 3.03045,-1.01015 z m 27.27412,0 c 0,-0.55558 -1.13642,-1.01015 -2.52538,-1.01015 -1.38896,0 -2.52538,0.45457 -2.52538,1.01015 0,0.55558 1.13642,1.01015 2.52538,1.01015 1.38896,0 2.52538,-0.45457 2.52538,-1.01015 z m -6.06091,-2.52538 c 0,-1.16321 -1.29075,-1.51523 -5.55584,-1.51523 -4.26509,0 -5.55584,0.35202 -5.55584,1.51523 0,1.16321 1.29075,1.51523 5.55584,1.51523 4.26509,0 5.55584,-0.35202 5.55584,-1.51523 z"
       id="path5589"
       transform="translate(99.25,355.66537)" />
    <path
       style="opacity:0;fill:#008000;fill-opacity:0.98039216;stroke:#000000;stroke-width:1.25;stroke-miterlimit:4;stroke-opacity:1;stroke-dasharray:none"
       d="m 11.816429,461.47467 0,-23.73859 4.545687,0 c 2.500127,0 4.545686,-0.45457 4.545686,-1.01015 0,-0.55559 -2.045559,-1.01015 -4.545686,-1.01015 l -4.545687,0 0,-23.73859 0,-23.73858 4.545687,0 c 5.356479,0 6.609779,-2.68787 1.500956,-3.219 -2.848061,-0.29609 9.271927,-12.62625 187.635838,-190.8896 L 396.17947,3.5569358 444.01584,3.1289134 491.85221,2.700891 l -0.70555,101.097519 -0.70554,101.09751 -139.05471,139.16086 -139.0547,139.16086 -0.31062,-4.05296 c -0.44524,-5.80943 -2.21476,-5.01222 -2.21476,0.99781 l 0,5.05076 -23.73859,0 -23.73858,0 0,-5.05076 c 0,-3.81614 -0.37039,-5.05076 -1.51523,-5.05076 -1.14484,0 -1.51523,1.23462 -1.51523,5.05076 l 0,5.05076 -23.73858,0 -23.73859,0 0,-5.05076 c 0,-2.77792 -0.45457,-5.05076 -1.01015,-5.05076 -0.55559,0 -1.01015,2.27284 -1.01015,5.05076 l 0,5.05076 -23.738589,0 -23.738584,0 0,-5.05076 c 0,-3.81614 -0.37039,-5.05076 -1.515229,-5.05076 -1.144839,0 -1.515229,1.23462 -1.515229,5.05076 l 0,5.05076 -23.738585,0 -23.738585,0 0,-23.73858 z M 190.83354,256.91878 c 3.18613,-6.44751 3.30777,-7.07107 1.37929,-7.07107 -0.78707,0 -1.8693,1.25006 -2.40497,2.77792 l -0.97393,2.77792 -1.10555,-2.77792 c -0.60806,-1.52786 -1.57138,-2.77792 -2.14071,-2.77792 -1.42974,0 -1.29829,1.45543 0.52575,5.82097 1.40778,3.36928 1.40778,3.84775 0,4.87714 -2.08353,1.52352 -1.97936,2.65932 0.20686,2.2554 0.97227,-0.17963 3.00325,-2.82673 4.51326,-5.88244 l 0,0 z m -17.84338,0.92213 c 0.48873,-0.79079 0.98608,-0.79079 1.77688,0 0.60399,0.60399 1.74455,1.09817 2.53457,1.09817 1.22207,0 1.21218,-0.3377 -0.0663,-2.26309 -1.32746,-1.99929 -1.32828,-2.5292 -0.007,-4.54569 1.33197,-2.03284 1.32364,-2.28259 -0.0762,-2.28259 -0.86449,0 -1.87721,0.49417 -2.2505,1.09816 -0.48873,0.7908 -0.98608,0.7908 -1.77688,0 -0.60393,-0.60399 -1.74132,-1.09816 -2.52748,-1.09816 -1.21286,0 -1.20283,0.34575 0.0663,2.28259 1.32125,2.01649 1.32043,2.5464 -0.007,4.54569 -1.34101,2.01965 -1.33281,2.26309 0.0762,2.26309 0.86835,0 1.88424,-0.49418 2.25753,-1.09817 l 2e-5,0 z m 47.92785,0.088 c 0,-0.55559 -0.73413,-1.01015 -1.63141,-1.01015 -1.48551,0 -1.47992,-0.23119 0.0624,-2.58513 0.93161,-1.42181 1.5521,-3.58101 1.37887,-4.79822 -0.25392,-1.78409 -0.98402,-2.2131 -3.76633,-2.2131 -2.04991,0 -3.64156,0.57061 -3.91976,1.40525 -0.35264,1.0579 0.17305,1.24426 2.12675,0.75391 3.96455,-0.99504 4.33044,1.16487 0.81224,4.79474 -1.7292,1.78409 -3.14401,3.56309 -3.14401,3.95333 0,0.39023 1.81827,0.70952 4.04061,0.70952 2.22233,0 4.04061,-0.45457 4.04061,-1.01015 l 0,0 z m -15.15229,-2.02031 c 0,-0.55558 -2.50013,-1.01015 -5.55584,-1.01015 -3.05571,0 -5.55584,0.45457 -5.55584,1.01015 0,0.55559 2.50013,1.01016 5.55584,1.01016 3.05571,0 5.55584,-0.45457 5.55584,-1.01016 z m -21.21321,-1.01015 c 0,-0.55558 -1.3637,-1.01015 -3.03045,-1.01015 -1.66675,0 -3.03046,0.45457 -3.03046,1.01015 0,0.55558 1.36371,1.01015 3.03046,1.01015 1.66675,0 3.03045,-0.45457 3.03045,-1.01015 z m 27.27412,0 c 0,-0.55558 -1.13642,-1.01015 -2.52538,-1.01015 -1.38896,0 -2.52538,0.45457 -2.52538,1.01015 0,0.55558 1.13642,1.01015 2.52538,1.01015 1.38896,0 2.52538,-0.45457 2.52538,-1.01015 z m -6.06091,-2.52538 c 0,-1.16321 -1.29075,-1.51523 -5.55584,-1.51523 -4.26509,0 -5.55584,0.35202 -5.55584,1.51523 0,1.16321 1.29075,1.51523 5.55584,1.51523 4.26509,0 5.55584,-0.35202 5.55584,-1.51523 z"
       id="path5591"
       transform="translate(99.25,355.66537)" />
    <path
       style="opacity:0;fill:#00ff00;fill-opacity:0.98039216;stroke:#000000;stroke-width:1.25;stroke-miterlimit:4;stroke-opacity:1;stroke-dasharray:none"
       d="m 11.816429,461.47467 0,-23.73859 4.545687,0 c 2.500127,0 4.545686,-0.45457 4.545686,-1.01015 0,-0.55559 -2.045559,-1.01015 -4.545686,-1.01015 l -4.545687,0 0,-23.73859 0,-23.73858 4.545687,0 c 5.356479,0 6.609779,-2.68787 1.500956,-3.219 -2.848061,-0.29609 9.271927,-12.62625 187.635838,-190.8896 L 396.17947,3.5569358 444.01584,3.1289134 491.85221,2.700891 l -0.70555,101.097519 -0.70554,101.09751 -139.05471,139.16086 -139.0547,139.16086 -0.31062,-4.05296 c -0.44524,-5.80943 -2.21476,-5.01222 -2.21476,0.99781 l 0,5.05076 -23.73859,0 -23.73858,0 0,-5.05076 c 0,-3.81614 -0.37039,-5.05076 -1.51523,-5.05076 -1.14484,0 -1.51523,1.23462 -1.51523,5.05076 l 0,5.05076 -23.73858,0 -23.73859,0 0,-5.05076 c 0,-2.77792 -0.45457,-5.05076 -1.01015,-5.05076 -0.55559,0 -1.01015,2.27284 -1.01015,5.05076 l 0,5.05076 -23.738589,0 -23.738584,0 0,-5.05076 c 0,-3.81614 -0.37039,-5.05076 -1.515229,-5.05076 -1.144839,0 -1.515229,1.23462 -1.515229,5.05076 l 0,5.05076 -23.738585,0 -23.738585,0 0,-23.73858 z M 190.83354,256.91878 c 3.18613,-6.44751 3.30777,-7.07107 1.37929,-7.07107 -0.78707,0 -1.8693,1.25006 -2.40497,2.77792 l -0.97393,2.77792 -1.10555,-2.77792 c -0.60806,-1.52786 -1.57138,-2.77792 -2.14071,-2.77792 -1.42974,0 -1.29829,1.45543 0.52575,5.82097 1.40778,3.36928 1.40778,3.84775 0,4.87714 -2.08353,1.52352 -1.97936,2.65932 0.20686,2.2554 0.97227,-0.17963 3.00325,-2.82673 4.51326,-5.88244 l 0,0 z m -17.84338,0.92213 c 0.48873,-0.79079 0.98608,-0.79079 1.77688,0 0.60399,0.60399 1.74455,1.09817 2.53457,1.09817 1.22207,0 1.21218,-0.3377 -0.0663,-2.26309 -1.32746,-1.99929 -1.32828,-2.5292 -0.007,-4.54569 1.33197,-2.03284 1.32364,-2.28259 -0.0762,-2.28259 -0.86449,0 -1.87721,0.49417 -2.2505,1.09816 -0.48873,0.7908 -0.98608,0.7908 -1.77688,0 -0.60393,-0.60399 -1.74132,-1.09816 -2.52748,-1.09816 -1.21286,0 -1.20283,0.34575 0.0663,2.28259 1.32125,2.01649 1.32043,2.5464 -0.007,4.54569 -1.34101,2.01965 -1.33281,2.26309 0.0762,2.26309 0.86835,0 1.88424,-0.49418 2.25753,-1.09817 l 2e-5,0 z m 47.92785,0.088 c 0,-0.55559 -0.73413,-1.01015 -1.63141,-1.01015 -1.48551,0 -1.47992,-0.23119 0.0624,-2.58513 0.93161,-1.42181 1.5521,-3.58101 1.37887,-4.79822 -0.25392,-1.78409 -0.98402,-2.2131 -3.76633,-2.2131 -2.04991,0 -3.64156,0.57061 -3.91976,1.40525 -0.35264,1.0579 0.17305,1.24426 2.12675,0.75391 3.96455,-0.99504 4.33044,1.16487 0.81224,4.79474 -1.7292,1.78409 -3.14401,3.56309 -3.14401,3.95333 0,0.39023 1.81827,0.70952 4.04061,0.70952 2.22233,0 4.04061,-0.45457 4.04061,-1.01015 l 0,0 z m -15.15229,-2.02031 c 0,-0.55558 -2.50013,-1.01015 -5.55584,-1.01015 -3.05571,0 -5.55584,0.45457 -5.55584,1.01015 0,0.55559 2.50013,1.01016 5.55584,1.01016 3.05571,0 5.55584,-0.45457 5.55584,-1.01016 z m -21.21321,-1.01015 c 0,-0.55558 -1.3637,-1.01015 -3.03045,-1.01015 -1.66675,0 -3.03046,0.45457 -3.03046,1.01015 0,0.55558 1.36371,1.01015 3.03046,1.01015 1.66675,0 3.03045,-0.45457 3.03045,-1.01015 z m 27.27412,0 c 0,-0.55558 -1.13642,-1.01015 -2.52538,-1.01015 -1.38896,0 -2.52538,0.45457 -2.52538,1.01015 0,0.55558 1.13642,1.01015 2.52538,1.01015 1.38896,0 2.52538,-0.45457 2.52538,-1.01015 z m -6.06091,-2.52538 c 0,-1.16321 -1.29075,-1.51523 -5.55584,-1.51523 -4.26509,0 -5.55584,0.35202 -5.55584,1.51523 0,1.16321 1.29075,1.51523 5.55584,1.51523 4.26509,0 5.55584,-0.35202 5.55584,-1.51523 z"
       id="path5593"
       transform="translate(99.25,355.66537)" />
    <path
       style="opacity:0;fill:#00ff00;fill-opacity:0.98039216;stroke:#000000;stroke-width:1.25;stroke-miterlimit:4;stroke-opacity:1;stroke-dasharray:none"
       d="m 11.660116,461.72437 0,-24.24366 4.545687,0 4.545686,0 0,-0.88388 0,-0.88389 -4.545686,0 -4.545687,0 0,-24.11739 0,-24.11739 4.545687,0 4.545686,0 0,-0.88389 0,-0.88388 -3.850967,0 -3.850968,0 50.002073,-50.00255 50.002073,-50.00255 148.74508,0 148.74507,0 -99.37363,99.37431 -99.37363,99.37431 -0.0691,-4.2937 -0.0691,-4.2937 -0.87792,0 -0.87792,0 0,5.05076 0,5.05076 -24.11739,0 -24.11739,0 0,-5.05076 0,-5.05076 -0.88388,0 -0.88389,0 0,5.05076 0,5.05076 -24.11739,0 -24.11739,0 0,-5.05076 0,-5.05076 -0.88389,0 -0.88388,0 0,5.05076 0,5.05076 -24.117391,0 -24.117392,0 0,-5.05076 0,-5.05076 -0.883883,0 -0.883884,0 0,5.05076 0,5.05076 -24.117392,0 -24.117392,0 0,-24.24366 z"
       id="path5603"
       transform="translate(99.25,355.66537)" />
    <path
       style="opacity:0;fill:#00ff00;fill-opacity:0.98039216;stroke:#000000;stroke-width:1.25;stroke-miterlimit:4;stroke-opacity:1;stroke-dasharray:none"
       d="m 11.660116,461.72437 0,-24.24366 4.545687,0 4.545686,0 0,-0.88388 0,-0.88389 -4.545686,0 -4.545687,0 0,-24.11739 0,-24.11739 4.545687,0 4.545686,0 0,-0.88389 0,-0.88388 -3.850967,0 -3.850968,0 50.002073,-50.00255 50.002073,-50.00255 148.74508,0 148.74507,0 -99.37363,99.37431 -99.37363,99.37431 -0.0691,-4.2937 -0.0691,-4.2937 -0.87792,0 -0.87792,0 0,5.05076 0,5.05076 -24.11739,0 -24.11739,0 0,-5.05076 0,-5.05076 -0.88388,0 -0.88389,0 0,5.05076 0,5.05076 -24.11739,0 -24.11739,0 0,-5.05076 0,-5.05076 -0.88389,0 -0.88388,0 0,5.05076 0,5.05076 -24.117391,0 -24.117392,0 0,-5.05076 0,-5.05076 -0.883883,0 -0.883884,0 0,5.05076 0,5.05076 -24.117392,0 -24.117392,0 0,-24.24366 z"
       id="path5605"
       transform="translate(99.25,355.66537)" />
    <path
       style="fill:none;stroke:#000000;stroke-width:1.25;stroke-linecap:butt;stroke-linejoin:miter;stroke-miterlimit:4;stroke-opacity:1;stroke-dasharray:none"
       d="m 60,852.3622 0,-20.71429"
       id="path2891-88-0" />
    <path
       style="fill:none;stroke:#000000;stroke-width:1.25;stroke-linecap:butt;stroke-linejoin:miter;stroke-miterlimit:4;stroke-opacity:1;stroke-dasharray:none"
       d="M 10,852.36219 10,831.6479"
       id="path2891-88-6" />
    <path
       style="fill:none;stroke:#000000;stroke-width:1.25;stroke-linecap:butt;stroke-linejoin:miter;stroke-miterlimit:4;stroke-opacity:1;stroke-dasharray:none"
       d="m -39.17195,852.36219 0,-20.71429"
       id="path2891-88-02" />
    <path
       style="fill:none;stroke:#000000;stroke-width:1.25;stroke-linecap:butt;stroke-linejoin:miter;stroke-miterlimit:4;stroke-opacity:1;stroke-dasharray:none"
       d="m -89.67958,852.3622 0,-20.71429"
       id="path2891-88-8" />
    <path
       style="fill:none;stroke:#000000;stroke-width:1.25;stroke-linecap:butt;stroke-linejoin:miter;stroke-miterlimit:4;stroke-opacity:1;stroke-dasharray:none"
       d="m -139.17706,852.35765 0,-20.71429"
       id="path2891-88-5" />
    <path
       style="fill:none;stroke:#000000;stroke-width:1.33810115;stroke-linecap:butt;stroke-linejoin:miter;stroke-miterlimit:4;stroke-opacity:1;stroke-dasharray:none"
       d="m -230.57857,862.61375 627.70155,-314.181"
       id="path4265" />
    <path
       style="fill:none;stroke:#000000;stroke-width:1.73523355;stroke-linecap:butt;stroke-linejoin:miter;stroke-miterlimit:4;stroke-opacity:1;stroke-dasharray:none"
       d="M 80.886442,484.74666 329.79877,981.52063"
       id="path4273" />
    <path
       style="fill:none;stroke:#000000;stroke-width:1.32008934;stroke-linecap:butt;stroke-linejoin:miter;stroke-miterlimit:4;stroke-opacity:1;stroke-dasharray:none"
       d="M 440.86002,852.36217 -148.46903,655.91915"
       id="path4275" />
    <path
       style="fill:none;stroke:#000000;stroke-width:1.25;stroke-linecap:butt;stroke-linejoin:miter;stroke-miterlimit:4;stroke-opacity:1;stroke-dasharray:none"
       d="m 101.34077,544.00551 20,0 0,0"
       id="path2969-7-9" />
    <path
       style="fill:#00ff00;stroke-width:1.25;stroke-miterlimit:4;stroke-dasharray:none"
       d="m 451.13241,403.42783 c -29.44595,-9.9128 -52.96988,-18.05916 -52.2754,-18.10301 0.69448,-0.0439 1.26269,-0.53431 1.26269,-1.08989 0,-0.55559 -2.04555,-1.01015 -4.54568,-1.01015 l -4.54569,0 0,-23.73859 0,-23.73858 4.54569,0 c 5.10413,0 6.23535,-1.71935 1.45327,-2.20885 -2.55745,-0.26178 1.62849,-2.66904 24.19749,-13.9156 15.00943,-7.47948 27.48792,-13.38887 27.72996,-13.13198 0.64089,0.68022 57.23098,114.00754 57.23098,114.61077 0,0.85895 -0.019,0.85285 -55.05331,-17.67412 z"
       id="path4312"
       transform="translate(-279.58826,357.86118)" />
    <path
       style="fill:#00ff00;stroke-width:1.25;stroke-miterlimit:4;stroke-dasharray:none"
       d="m 372.94297,365.64589 -14.54983,-14.57706 14.40497,-7.21622 c 7.92273,-3.96892 14.59303,-7.02816 14.82288,-6.7983 0.22986,0.22986 0.29505,10.03684 0.14487,21.79328 l -0.27306,21.37537 -14.54983,-14.57707 z"
       id="path4314"
       transform="translate(-279.58826,357.86118)" />
    <text
       xml:space="preserve"
       style="font-size:40px;font-style:normal;font-weight:normal;fill:#000000;fill-opacity:1;stroke:none;font-family:Bitstream Vera Sans"
       x="346.70633"
       y="600.57404"
       id="text4316"><tspan
         sodipodi:role="line"
         id="tspan4318"
         x="346.70633"
         y="600.57404"
         style="font-size:19px"
         dy="0 0 0 -4.2857141">c<tspan
   style="font-size:10px"
   id="tspan4155"
   dy="4.2857141">1 </tspan>-0.5x+y=3</tspan></text>
    <text
       xml:space="preserve"
       style="font-size:19px;font-style:normal;font-weight:normal;fill:#000000;fill-opacity:1;stroke:none;font-family:Bitstream Vera Sans"
       x="138.61488"
       y="573.29993"
       id="text4320"><tspan
         sodipodi:role="line"
         id="tspan4322"
         x="138.61488"
         y="573.29993"
         dy="0 0 0 -4.2857141">c<tspan
   style="font-size:10px"
   id="tspan4153"
   dy="4.2857141">2 </tspan>2x+y=6</tspan></text>
    <text
       xml:space="preserve"
       style="font-size:19px;font-style:normal;font-weight:normal;fill:#000000;fill-opacity:1;stroke:none;font-family:Bitstream Vera Sans"
       x="333.57434"
       y="809.67566"
       id="text4324"><tspan
         sodipodi:role="line"
         id="tspan4326"
         x="333.57434"
         y="809.67566"
         dy="0 0 0 -4.2857141">c<tspan
   style="font-size:10px"
   id="tspan4157"
   dy="4.2857141">3 </tspan>x+3y=6</tspan></text>
    <text
       xml:space="preserve"
       style="font-size:19px;font-style:normal;font-weight:normal;fill:#000000;fill-opacity:1;stroke:none;font-family:Bitstream Vera Sans"
       x="-1.7962972"
       y="610.6756"
       id="text4328"><tspan
         sodipodi:role="line"
         id="tspan4330"
         x="-1.7962972"
         y="610.6756"
         dy="0 0 0 -4.2857141">c<tspan
   style="font-size:10px"
   id="tspan4151"
   dy="4.2857141">4 </tspan>x+y=2</tspan></text>
    <path
       style="fill:none;stroke:#000000;stroke-width:1.25;stroke-linecap:butt;stroke-linejoin:miter;stroke-miterlimit:4;stroke-opacity:1;stroke-dasharray:7.5, 1.25;stroke-dashoffset:0"
       d="m 48.90408,719.72458 0,148.79543"
       id="path4342" />
    <path
       style="fill:none;stroke:#000000;stroke-width:1.25;stroke-linecap:butt;stroke-linejoin:miter;stroke-miterlimit:4;stroke-opacity:1;stroke-dasharray:7.5, 1.25;stroke-dashoffset:0"
       d="m 76.1782,708.50678 0,183.85539"
       id="path4344" />
    <path
       style="fill:none;stroke:#000000;stroke-width:1.25;stroke-linecap:butt;stroke-linejoin:miter;stroke-miterlimit:4;stroke-opacity:1;stroke-dasharray:7.5, 1.25;stroke-dashoffset:0"
       d="m 229.72138,921.41489 0,-138.92526"
       id="path4346" />
    <path
       style="fill:none;stroke:#000000;stroke-width:1.25;stroke-linecap:butt;stroke-linejoin:miter;stroke-miterlimit:4;stroke-opacity:1;stroke-dasharray:7.5, 1.25;stroke-dashoffset:0"
       d="m 577.27367,584.62091 0,-100"
       id="path4348"
       transform="translate(-267.27367,357.74126)" />
    <path
       style="fill:none;stroke:#000000;stroke-width:1.25;stroke-linecap:butt;stroke-linejoin:miter;stroke-miterlimit:4;stroke-opacity:1;stroke-dasharray:5, 1.25;stroke-dashoffset:0;marker-end:url(#Arrow1Mend)"
       d="m 49.208546,869.12103 290.922654,0"
       id="path4354" />
    <path
       style="fill:none;stroke:#000000;stroke-width:1.25;stroke-linecap:butt;stroke-linejoin:miter;stroke-miterlimit:4;stroke-opacity:1;stroke-dasharray:5, 1.25;stroke-dashoffset:0;marker-end:url(#Arrow1Mend)"
       d="m 76.529466,892.36217 261.412074,0"
       id="path4356" />
    <path
       style="fill:none;stroke:#000000;stroke-width:1.25;stroke-linecap:butt;stroke-linejoin:miter;stroke-miterlimit:4;stroke-opacity:1;stroke-dasharray:5, 1.25;stroke-dashoffset:0;marker-end:url(#Arrow1Mend)"
       d="m 229.4302,920.63881 -242.96082,0"
       id="path4358" />
    <path
       style="fill:none;stroke:#000000;stroke-width:1.25;stroke-linecap:butt;stroke-linejoin:miter;stroke-miterlimit:4;stroke-opacity:1;stroke-dasharray:5, 1.25;stroke-dashoffset:0;marker-end:url(#Arrow1Mend)"
       d="m 309.81597,942.36217 -319.882312,0"
       id="path4360" />
    <path
       style="fill:none;stroke:#ff0000;stroke-width:3;stroke-linecap:butt;stroke-linejoin:miter;stroke-miterlimit:4;stroke-opacity:1;stroke-dasharray:none"
       d="m 343.45187,494.62089 153.54318,0"
       id="path4107"
       transform="translate(-267.27367,357.74126)" />
    <text
       xml:space="preserve"
       style="font-size:40px;font-style:normal;font-weight:normal;fill:#000000;fill-opacity:1;stroke:none;font-family:Bitstream Vera Sans"
       x="198.57143"
       y="462.85715"
       id="text4159"
       transform="translate(-267.27367,457.38827)"><tspan
         sodipodi:role="line"
         id="tspan4161"
         x="198.57143"
         y="462.85715" /></text>
    <path
       style="fill:none;stroke:#000000;stroke-width:1.90777373;stroke-linecap:butt;stroke-linejoin:miter;stroke-miterlimit:4;stroke-opacity:1;stroke-dasharray:none"
       d="M 343.01125,975.37345 -41.813976,590.54823"
       id="path4269" />
    <use
       x="0"
       y="0"
       xlink:href="#path4346"
       id="use4175" />
  </g>
</svg>
