<?xml version="1.0" encoding="UTF-8" standalone="no"?>
<!-- Created with Inkscape (http://www.inkscape.org/) -->

<svg
   xmlns:dc="http://purl.org/dc/elements/1.1/"
   xmlns:cc="http://creativecommons.org/ns#"
   xmlns:rdf="http://www.w3.org/1999/02/22-rdf-syntax-ns#"
   xmlns:svg="http://www.w3.org/2000/svg"
   xmlns="http://www.w3.org/2000/svg"
   xmlns:sodipodi="http://sodipodi.sourceforge.net/DTD/sodipodi-0.dtd"
   xmlns:inkscape="http://www.inkscape.org/namespaces/inkscape"
   width="239.71036"
   height="106.71619"
   id="svg2"
   version="1.1"
   inkscape:version="0.47+devel r9327"
   sodipodi:docname="Neues Dokument 1">
  <defs
     id="defs4" />
  <sodipodi:namedview
     id="base"
     pagecolor="#ffffff"
     bordercolor="#666666"
     borderopacity="1.0"
     inkscape:pageopacity="0.0"
     inkscape:pageshadow="2"
     inkscape:zoom="2.8492719"
     inkscape:cx="91.777834"
     inkscape:cy="64.618397"
     inkscape:document-units="px"
     inkscape:current-layer="layer1"
     showgrid="false"
     inkscape:snap-center="true"
     inkscape:snap-nodes="true"
     inkscape:window-width="1276"
     inkscape:window-height="756"
     inkscape:window-x="4"
     inkscape:window-y="0"
     inkscape:window-maximized="0" />
  <metadata
     id="metadata7">
    <rdf:RDF>
      <cc:Work
         rdf:about="">
        <dc:format>image/svg+xml</dc:format>
        <dc:type
           rdf:resource="http://purl.org/dc/dcmitype/StillImage" />
        <dc:title></dc:title>
      </cc:Work>
    </rdf:RDF>
  </metadata>
  <g
     inkscape:label="Ebene 1"
     inkscape:groupmode="layer"
     id="layer1"
     transform="translate(-27.944161,-2.2584524)">
    <path
       sodipodi:type="arc"
       style="fill:#000000;fill-opacity:1;fill-rule:nonzero;stroke:none"
       id="path2937"
       sodipodi:cx="55.563389"
       sodipodi:cy="16.803617"
       sodipodi:rx="3.5742531"
       sodipodi:ry="3.5742531"
       d="m 59.137642,16.803617 c 0,1.974006 -1.600248,3.574254 -3.574253,3.574254 -1.974006,0 -3.574253,-1.600248 -3.574253,-3.574254 0,-1.974005 1.600247,-3.574253 3.574253,-3.574253 1.974005,0 3.574253,1.600248 3.574253,3.574253 z"
       transform="matrix(0.69082126,0,0,0.69082126,4.1503406,3.6883899)" />
    <path
       d="m 59.137642,16.803617 c 0,1.974006 -1.600248,3.574254 -3.574253,3.574254 -1.974006,0 -3.574253,-1.600248 -3.574253,-3.574254 0,-1.974005 1.600247,-3.574253 3.574253,-3.574253 1.974005,0 3.574253,1.600248 3.574253,3.574253 z"
       sodipodi:ry="3.5742531"
       sodipodi:rx="3.5742531"
       sodipodi:cy="16.803617"
       sodipodi:cx="55.563389"
       id="path3707"
       style="fill:#000000;fill-opacity:1;fill-rule:nonzero;stroke:none"
       sodipodi:type="arc"
       transform="matrix(0.69082126,0,0,0.69082126,28.3931,58.010128)" />
    <path
       d="m 59.137642,16.803617 c 0,1.974006 -1.600248,3.574254 -3.574253,3.574254 -1.974006,0 -3.574253,-1.600248 -3.574253,-3.574254 0,-1.974005 1.600247,-3.574253 3.574253,-3.574253 1.974005,0 3.574253,1.600248 3.574253,3.574253 z"
       sodipodi:ry="3.5742531"
       sodipodi:rx="3.5742531"
       sodipodi:cy="16.803617"
       sodipodi:cx="55.563389"
       id="path3711"
       style="fill:#000000;fill-opacity:1;fill-rule:nonzero;stroke:none"
       sodipodi:type="arc"
       transform="matrix(0.69082126,0,0,0.69082126,43.20812,2.7905099)" />
    <path
       transform="matrix(0.69082126,0,0,0.69082126,-7.9710393,78.212425)"
       d="m 59.137642,16.803617 c 0,1.974006 -1.600248,3.574254 -3.574253,3.574254 -1.974006,0 -3.574253,-1.600248 -3.574253,-3.574254 0,-1.974005 1.600247,-3.574253 3.574253,-3.574253 1.974005,0 3.574253,1.600248 3.574253,3.574253 z"
       sodipodi:ry="3.5742531"
       sodipodi:rx="3.5742531"
       sodipodi:cy="16.803617"
       sodipodi:cx="55.563389"
       id="path3713"
       style="fill:#000000;fill-opacity:1;fill-rule:nonzero;stroke:none"
       sodipodi:type="arc" />
    <path
       transform="matrix(0.69082126,0,0,0.69082126,100.2235,44.092986)"
       d="m 59.137642,16.803617 c 0,1.974006 -1.600248,3.574254 -3.574253,3.574254 -1.974006,0 -3.574253,-1.600248 -3.574253,-3.574254 0,-1.974005 1.600247,-3.574253 3.574253,-3.574253 1.974005,0 3.574253,1.600248 3.574253,3.574253 z"
       sodipodi:ry="3.5742531"
       sodipodi:rx="3.5742531"
       sodipodi:cy="16.803617"
       sodipodi:cx="55.563389"
       id="path3717"
       style="fill:#000000;fill-opacity:1;fill-rule:nonzero;stroke:none"
       sodipodi:type="arc" />
    <path
       sodipodi:type="arc"
       style="fill:#000000;fill-opacity:1;fill-rule:nonzero;stroke:none"
       id="path3719"
       sodipodi:cx="55.563389"
       sodipodi:cy="16.803617"
       sodipodi:rx="3.5742531"
       sodipodi:ry="3.5742531"
       d="m 59.137642,16.803617 c 0,1.974006 -1.600248,3.574254 -3.574253,3.574254 -1.974006,0 -3.574253,-1.600248 -3.574253,-3.574254 0,-1.974005 1.600247,-3.574253 3.574253,-3.574253 1.974005,0 3.574253,1.600248 3.574253,3.574253 z"
       transform="matrix(0.69082126,0,0,0.69082126,99.325615,90.782747)" />
    <path
       sodipodi:type="arc"
       style="fill:#000000;fill-opacity:1;fill-rule:nonzero;stroke:none"
       id="path3721"
       sodipodi:cx="55.563389"
       sodipodi:cy="16.803617"
       sodipodi:rx="3.5742531"
       sodipodi:ry="3.5742531"
       d="m 59.137642,16.803617 c 0,1.974006 -1.600248,3.574254 -3.574253,3.574254 -1.974006,0 -3.574253,-1.600248 -3.574253,-3.574254 0,-1.974005 1.600247,-3.574253 3.574253,-3.574253 1.974005,0 3.574253,1.600248 3.574253,3.574253 z"
       transform="matrix(0.69082126,0,0,0.69082126,175.35658,16.919765)" />
    <text
       xml:space="preserve"
       style="font-size:10px;font-style:normal;font-variant:normal;font-weight:normal;font-stretch:normal;text-align:start;line-height:112.99999952%;writing-mode:lr-tb;text-anchor:start;fill:#000000;fill-opacity:1;stroke:none;font-family:Palatino;-inkscape-font-specification:Palatino"
       x="237.20042"
       y="32.075424"
       id="text3723"
       sodipodi:linespacing="113%"><tspan
         sodipodi:role="line"
         id="tspan3725"
         x="237.20042"
         y="32.075424">T node</tspan></text>
    <path
       style="fill:none;stroke:#000000;stroke-width:1px;stroke-linecap:butt;stroke-linejoin:miter;stroke-opacity:1"
       d="M 42.534711,15.296686 65.43065,39.539445 81.59249,14.398806"
       id="path3727"
       inkscape:connector-curvature="0" />
    <path
       style="fill:none;stroke:#000000;stroke-width:1px;stroke-linecap:butt;stroke-linejoin:miter;stroke-opacity:1"
       d="M 65.43065,39.539445 66.77747,69.618424 30.413331,89.820721"
       id="path3729"
       inkscape:connector-curvature="0" />
    <path
       style="fill:none;stroke:#000000;stroke-width:1px;stroke-linecap:butt;stroke-linejoin:miter;stroke-opacity:1"
       d="m 66.77747,69.618424 48.03658,5.387278 23.79382,-19.30442"
       id="path3731"
       inkscape:connector-curvature="0" />
    <path
       style="fill:none;stroke:#000000;stroke-width:1px;stroke-linecap:butt;stroke-linejoin:miter;stroke-opacity:1"
       d="m 114.81405,75.005702 22.89594,27.385338"
       id="path3733"
       inkscape:connector-curvature="0" />
    <text
       xml:space="preserve"
       style="font-size:10px;font-style:normal;font-variant:normal;font-weight:normal;font-stretch:normal;text-align:start;line-height:112.99999952%;writing-mode:lr-tb;text-anchor:start;fill:#000000;fill-opacity:1;stroke:none;font-family:Palatino;-inkscape-font-specification:Palatino"
       x="88.304283"
       y="9.2886772"
       id="text3735"
       sodipodi:linespacing="113%"><tspan
         sodipodi:role="line"
         id="tspan3737"
         x="88.304283"
         y="9.2886772">a</tspan></text>
    <text
       xml:space="preserve"
       style="font-size:10px;font-style:normal;font-variant:normal;font-weight:normal;font-stretch:normal;text-align:start;line-height:112.99999952%;writing-mode:lr-tb;text-anchor:start;fill:#000000;fill-opacity:1;stroke:none;font-family:Palatino;-inkscape-font-specification:Palatino"
       x="45.414089"
       y="9.533843"
       id="text3739"
       sodipodi:linespacing="113%"><tspan
         sodipodi:role="line"
         id="tspan3741"
         x="45.414089"
         y="9.533843">b</tspan></text>
    <text
       xml:space="preserve"
       style="font-size:10px;font-style:normal;font-variant:normal;font-weight:normal;font-stretch:normal;text-align:start;line-height:112.99999952%;writing-mode:lr-tb;text-anchor:start;fill:#000000;fill-opacity:1;stroke:none;font-family:Palatino;-inkscape-font-specification:Palatino"
       x="71.246269"
       y="64.390472"
       id="text3743"
       sodipodi:linespacing="113%"><tspan
         sodipodi:role="line"
         id="tspan3745"
         x="71.246269"
         y="64.390472">c</tspan></text>
    <text
       xml:space="preserve"
       style="font-size:10px;font-style:normal;font-variant:normal;font-weight:normal;font-stretch:normal;text-align:start;line-height:112.99999952%;writing-mode:lr-tb;text-anchor:start;fill:#000000;fill-opacity:1;stroke:none;font-family:Palatino;-inkscape-font-specification:Palatino"
       x="32.885086"
       y="99.131081"
       id="text3747"
       sodipodi:linespacing="113%"><tspan
         sodipodi:role="line"
         id="tspan3749"
         x="32.885086"
         y="99.131081">d</tspan></text>
    <text
       xml:space="preserve"
       style="font-size:10px;font-style:normal;font-variant:normal;font-weight:normal;font-stretch:normal;text-align:start;line-height:112.99999952%;writing-mode:lr-tb;text-anchor:start;fill:#000000;fill-opacity:1;stroke:none;font-family:Palatino;-inkscape-font-specification:Palatino"
       x="141.50677"
       y="108.85746"
       id="text3751"
       sodipodi:linespacing="113%"><tspan
         sodipodi:role="line"
         id="tspan3753"
         x="141.50677"
         y="108.85746">e</tspan></text>
    <text
       xml:space="preserve"
       style="font-size:10px;font-style:normal;font-variant:normal;font-weight:normal;font-stretch:normal;text-align:start;line-height:112.99999952%;writing-mode:lr-tb;text-anchor:start;fill:#000000;fill-opacity:1;stroke:none;font-family:Palatino;-inkscape-font-specification:Palatino"
       x="141.33385"
       y="50.140198"
       id="text3755"
       sodipodi:linespacing="113%"><tspan
         sodipodi:role="line"
         id="tspan3757"
         x="141.33385"
         y="50.140198">f</tspan></text>
    <path
       sodipodi:type="arc"
       style="fill:#00ff00;fill-opacity:1;fill-rule:nonzero;stroke:none"
       id="path3709"
       sodipodi:cx="55.563389"
       sodipodi:cy="16.803617"
       sodipodi:rx="3.5742531"
       sodipodi:ry="3.5742531"
       d="m 59.137642,16.803617 c 0,1.974006 -1.600248,3.574254 -3.574253,3.574254 -1.974006,0 -3.574253,-1.600248 -3.574253,-3.574254 0,-1.974005 1.600247,-3.574253 3.574253,-3.574253 1.974005,0 3.574253,1.600248 3.574253,3.574253 z"
       transform="matrix(0.69082126,0,0,0.69082126,27.04628,27.931149)" />
    <path
       sodipodi:type="arc"
       style="fill:#00ff00;fill-opacity:1;fill-rule:nonzero;stroke:none"
       id="path3715"
       sodipodi:cx="55.563389"
       sodipodi:cy="16.803617"
       sodipodi:rx="3.5742531"
       sodipodi:ry="3.5742531"
       d="m 59.137642,16.803617 c 0,1.974006 -1.600248,3.574254 -3.574253,3.574254 -1.974006,0 -3.574253,-1.600248 -3.574253,-3.574254 0,-1.974005 1.600247,-3.574253 3.574253,-3.574253 1.974005,0 3.574253,1.600248 3.574253,3.574253 z"
       transform="matrix(0.69082126,0,0,0.69082126,76.429678,63.397406)" />
  </g>
</svg>
